<svg xmlns="http://www.w3.org/2000/svg" viewBox="0 0 117 227.34"><defs><style>.cls-1,.cls-5,.cls-6{fill:none;}.cls-1,.cls-2,.cls-3,.cls-4,.cls-5,.cls-6{stroke:#00214a;stroke-miterlimit:10;}.cls-2{fill:#011238;}.cls-3,.cls-4{fill:#00214a;}.cls-4{stroke-width:0.99px;opacity:0.4;}.cls-5{stroke-width:0.98px;}.cls-6{stroke-width:0.98px;}</style></defs><g id="Layer_2" data-name="Layer 2"><g id="Phone"><path class="cls-1" d="M116.5,73.43c0,.1,0,2.43-1.09,3.33a1.57,1.57,0,0,1-.84.35V214.35a12.49,12.49,0,0,1-12.49,12.49H13.89A12.49,12.49,0,0,1,1.4,214.35V82.07a.58.58,0,0,1-.34-.17c-.55-.51-.56-2-.56-2.17s0-9.44,0-11.07A2.13,2.13,0,0,1,1,67.11a.81.81,0,0,1,.42-.23V62a.57.57,0,0,1-.34-.16c-.55-.51-.56-2-.56-2.17s0-9.45,0-11.07A2.13,2.13,0,0,1,1,47.08a.77.77,0,0,1,.42-.24V39.5a.7.7,0,0,1-.27-.14,1.49,1.49,0,0,1-.32-1V33.47a.91.91,0,0,1,.25-.67.69.69,0,0,1,.34-.19V13A12.49,12.49,0,0,1,13.89.5h88.19A12.5,12.5,0,0,1,114.57,13V52.85a2,2,0,0,1,1.05.47,2.88,2.88,0,0,1,.86,2.3C116.48,58.23,116.5,73.28,116.5,73.43Z"/><path class="cls-2" d="M9.48,208.88h97a0,0,0,0,1,0,0v4.78a6,6,0,0,1-6,6h-85a6,6,0,0,1-6-6v-4.78a0,0,0,0,1,0,0Z"/><path class="cls-3" d="M11.91,215.73a9.54,9.54,0,0,0,6.6,2.58H93.57c4.05.05,7.16-1.09,9.26-3.4a12.3,12.3,0,0,0,2.82-6.49,16,16,0,0,0,.12-3.51V23.3c.32-5.33-.78-9.28-3.25-11.73A9.25,9.25,0,0,0,96,9H84.72a0,0,0,0,0,0,0,7.43,7.43,0,0,1-2.37,5.52c-2.71,2.4-6.85,2.1-6.9,2.1s-22.24,0-33.92,0c-4.94,0-8.42-1.11-10.33-3.3A5.9,5.9,0,0,1,29.67,9s0,0,0,0l0,0H19.27A9.3,9.3,0,0,0,12,11.92a13.23,13.23,0,0,0-2.88,7.17A19.7,19.7,0,0,0,9,23.14v181.3C8.57,209.56,9.54,213.36,11.91,215.73ZM96.7,5.47a12.61,12.61,0,0,1,12.59,12.59v191A12.61,12.61,0,0,1,96.7,221.69H19A12.61,12.61,0,0,1,6.41,209.1v-191A12.61,12.61,0,0,1,19,5.47Z"/><rect class="cls-4" x="9.42" y="29.24" width="96" height="65.57"/><rect class="cls-3" x="8.58" y="93.91" width="97" height="17.07"/><rect class="cls-1" x="9.03" y="109.85" width="49.4" height="49.4"/><rect class="cls-5" x="58.43" y="109.85" width="47.49" height="49.4"/><rect class="cls-1" x="9.03" y="159.25" width="49.4" height="49.4"/><rect class="cls-6" x="58.43" y="159.25" width="47.49" height="49.4"/></g></g></svg>