<svg xmlns="http://www.w3.org/2000/svg" xmlns:xlink="http://www.w3.org/1999/xlink" viewBox="0 0 1767.24 707.2">
  <defs>
    <style>
      .cls-1, .cls-2, .cls-5 {
        fill: none;
        stroke: #fff;
      }

      .cls-1, .cls-3, .cls-5 {
        stroke-miterlimit: 10;
      }

      .cls-1 {
        stroke-width: 6px;
      }

      .cls-2 {
        stroke-linejoin: round;
      }

      .cls-2, .cls-5 {
        stroke-width: 9px;
      }

      .cls-3 {
        fill: url(#radial-gradient);
        stroke: url(#radial-gradient-2);
      }

      .cls-4 {
        fill: #fff;
      }
    </style>
    <radialGradient id="radial-gradient" cx="1537.74" cy="-69.59" r="229" gradientTransform="translate(0 308.55)" gradientUnits="userSpaceOnUse">
      <stop offset="0" stop-color="#fff" stop-opacity="0.8"/>
      <stop offset="0.1" stop-color="#fffdfa" stop-opacity="0.8"/>
      <stop offset="0.21" stop-color="#fff7ec" stop-opacity="0.8"/>
      <stop offset="0.33" stop-color="#feeed5" stop-opacity="0.8"/>
      <stop offset="0.45" stop-color="#fde1b5" stop-opacity="0.8"/>
      <stop offset="0.58" stop-color="#fdd08c" stop-opacity="0.8"/>
      <stop offset="0.71" stop-color="#fcbc5a" stop-opacity="0.8"/>
      <stop offset="0.78" stop-color="#fbb03b" stop-opacity="0.8"/>
      <stop offset="0.98" stop-color="#fbb03b" stop-opacity="0"/>
    </radialGradient>
    <radialGradient id="radial-gradient-2" cx="1537.74" cy="-69.59" r="229.5" gradientTransform="translate(0 308.55)" gradientUnits="userSpaceOnUse">
      <stop offset="0" stop-color="#fff" stop-opacity="0.8"/>
      <stop offset="0.1" stop-color="#fffaf3" stop-opacity="0.71"/>
      <stop offset="0.27" stop-color="#feedd3" stop-opacity="0.56"/>
      <stop offset="0.51" stop-color="#fdd89f" stop-opacity="0.35"/>
      <stop offset="0.79" stop-color="#fcbc59" stop-opacity="0.1"/>
      <stop offset="0.9" stop-color="#fbb03b" stop-opacity="0"/>
    </radialGradient>
  </defs>
  <g id="Layer_2" data-name="Layer 2">
    <g id="Layer_1-2" data-name="Layer 1">
      <g id="Layer_1-3" data-name="Layer 1">
        <g id="bulb">
          <path class="cls-1" d="M1478.44,473.66c2.9-2.2,4.8-3.8,6.8-5.2,4.8-3.2,5.5-5.8.6-10.1-3.1-2.7-4.5-7.3-6.5-11.2-1.6-3.1-2.9-6.4-4.3-9.6-3.9-9.3-10.8-18.4-11.2-27.8-.9-21.9-9.6-40.2-20.1-58.3-7-12-13.9-24-21.3-35.8-34.8-55.3-11.3-111.6,20.6-142.9,64.1-63.1,176.4-44.6,214.8,35.8,16.5,34.6,16.8,68.9-2.7,102.8-12.7,22.1-25.3,44.4-37.2,67a51.06,51.06,0,0,0-5.4,21c-.7,15-3.1,29-14.1,40.3-1.8,1.8-1.9,5.3-2.5,8-.4,1.8.4,4.6-.5,5.3-8.9,6.6-12.5,13-.3,19.8-1.5,2.2-2.5,5.2-4.5,6.4-6.8,4-6.2,7.4.2,10.9,6.2,3.4,6.2,6.7.1,10.1-5.9,3.3-6.7,6.5-1.3,11.8,1.7,1.6,1.1,8-.7,10.4a231,231,0,0,1-20.4,22.7c-1.7,1.7-4.9,2.6-7.5,2.8-6.6.4-13.2.1-19.7.1-33.8,0-34,.1-55.2-26.1-1.7-2.1-1.4-8.5.5-10.5,4.9-5.2,3.8-8.1-1.7-10.9-5-2.6-7.5-6-1.4-9.4,10.2-5.7,6.6-9.2-1.1-13.1C1480.94,477.26,1480.24,475.76,1478.44,473.66Zm58.5-41.9h40.6c17.3-.1,22.1-5.8,23.9-23.5,1.4-12.9,3.3-26.4,8.6-38,10.9-23.9,24.6-46.5,36.4-69.9,16.6-32.7,13-64.6-6.6-94.7-34.7-53.3-113.5-68.6-169.8-34.1-40.1,24.6-69.7,79.4-39.4,133.7,10.3,18.5,21.8,36.5,30.1,55.9,6.5,15.1,10.1,31.8,12.6,48.2,2.6,16.7,7.3,22.4,23.9,22.3,13.4,0,26.6,0,39.7.1Z"/>
          <path class="cls-1" d="M1568.54,420.16h-12a7.91,7.91,0,0,1-1.1-2.9c1.2-26.3,1.9-52.6,4-78.8.5-6.4,5.1-12.7,8.3-18.8,11.1-21.4,22.3-42.7,33.8-63.8,1.3-2.5,4.8-3.8,7.2-5.7-.2,2.9.4,6.2-.7,8.7-11.2,24.2-22.9,48.1-33.8,72.4a63.53,63.53,0,0,0-5.5,23C1568.14,375.76,1568.54,397.26,1568.54,420.16Z"/>
          <path class="cls-1" d="M1517.84,420.26h-9.1c-.7-18.4-2-36.5-1.8-54.6a93.16,93.16,0,0,0-10.7-45.1c-10.3-20.1-19.5-40.8-29-61.3-1.3-2.8-1.2-6.3-1.7-9.5,1.2-.4,2.4-.7,3.7-1.1,1.9,3.3,3.9,6.5,5.7,9.8,9.5,17.7,17.8,36.1,28.6,52.9,11.4,17.9,14.3,37,14.3,57.3Z"/>
          <path class="cls-1" d="M1495.24,251.06c3.5-8.2,6.2-14.6,10.3-24.4,4.4,9.8,7.4,16.4,10.8,24,3.3-7.5,6.3-14.1,9.2-20.8h2.9c2.8,6.7,5.5,13.3,9.1,21.8,3.3-8.4,6-15,8.7-21.7,1-.1,2.1-.2,3.1-.2,3,6.6,6,13.3,9.5,20.9,3.2-7.2,6.1-13.9,9.1-20.5l3-.3c2.8,6.6,5.7,13.2,9.1,21.2,3.4-7.7,6.3-14.4,9.2-21,1-.1,2-.1,3-.2,1.7,5,3.4,10.1,5.9,17.6-3.6-2.9-5.3-4.2-7.5-5.9-3,6.9-5.9,13.7-8.8,20.5l-3.2.3c-2.9-6.6-5.8-13.2-9.3-21.2-3.2,7.7-6,14.4-8.8,21-1,.1-2,.3-3.1.4-2.9-6.6-5.9-13.1-9.5-21.2-3.3,7.7-6.1,14.3-9,20.8l-3.1.3c-2.7-6.4-5.4-12.8-9-21.3-3.4,8-6.2,14.5-9,21.1-1,.1-2,.1-3,.2-3-6.6-5.9-13.3-9.4-21.1-3.1,7.4-5.8,14.1-8.5,20.7-1.2.2-2.3.3-3.5.5-2.8-6.6-5.6-13.3-8.8-20.8-2,1.4-3.8,2.7-6.9,5,1.8-6.5,3.3-11.6,4.8-16.7l3.2-.3C1488.64,236.26,1491.64,243.06,1495.24,251.06Z"/>
        </g>
        <g id="cord">
          <path class="cls-2" d="M3.84,479.76c74.5,121.7,149.1,154.7,202.8,153.8,47.8-.2,79.4-69,81.1-105.7.3-5.5-3.8-113.7,58.5-106.6,10.4,1.2,41.5,17.9,39.6,50-1.2,20.6-11.9,52-43.4,56.6-27.1,3.9-76.2-47.9-76.4-85.9-3.8-49.1,33.5-72.1,65.1-72.6,106.6-1.9,73.5,115.2,115.3,155.1,10.4,9.9,24.6,21.2,53.5,20.5,98.1-2.3,102.1-84.9,168.8-114.6,23.4-10.4,58.8-7.6,63.9,6.4-14.5-19-46.4-11.4-66.6,1.3-41.5,26.1-48.3,76-33.5,89.1,19.2,17,50.8-14.7,60.8-24.6,35.5-35,125.9-206.3,104.7-220.9-38.7-26.7-65.1,87.7-76,144.4-6.2,32.1-19.4,90-.7,107.1,7.5,6.8,19.2,3.4,28.3-1.1,40.2-20.1,131-78.5,106-111.5-18.9-24.7-110.6,74.6-59.2,110.7,21.5,15.2,47.9-6.2,63.3-18.3,20.4-16,63.2-49.1,71.9-86.4-10.3,32.1,7.9,51.8,0,84.5-5.7,23.5-38.4,35.8-65.2,11.5,9.6,15.7,56.2,16.2,70.8,11.5,30.5-9.7,49.2-72.3,64.9-100.2-8.7,23-41.8,97.3-22.4,100.2,39.2,5.9,78.1-54.8,89.7-65.3,30-27.2,61.3-25,72.3-16.2-31.4-16.4-70.3,15.4-82.4,26.7-7.4,7-26.5,35.3-6.3,54.7,21.3,20.4,85.1-52.7,95.9-67.5-8.3,38.3-20.6,248.3-78.2,235.7-73.6-16,94-205.9,128.3-243.5-7.4,26.1-15.2,47.4-23.7,75.6,21.5-24.7,46.7-92.7,84-74.4,22.8,11.2-9,50.4-8.2,74.2.8,22.8,45,14.2,66.8-9.3,24.5-26.4,47.1-46.2,73.5-36.8,52.6,18.8,21.7,93.4,84.9,102.8,49.8,7.4,62.9-40.7,68-39.7"/>
        </g>
        <g id="halo">
          <circle class="cls-3" cx="1537.74" cy="238.96" r="229"/>
        </g>
        <g id="dot">
          <circle class="cls-4" cx="1016.04" cy="398.66" r="9.4"/>
        </g>
      </g>
      <g id="art">
        <path id="art-2" data-name="art" class="cls-5" d="M698.88,130.35c-28.4,0-60.6,9.8-71.7,16.6-10.4,6.3-27.1,17.2-38.2,44.5-5.3,13.1-11.5,50.8,13.7,55.2,40.4,7.1,81.2-72.5,81.2-72.5s-23.6,43.7-11.7,62.5c5.7,8.9,23.4,14.8,44.6.3s51.9-48.8,76-77.5,20.2-57.6,14.6-63.2c-8-8-19.4.6-21.4,16.1-2.6,20.2,10,28.6,29.4,31.5,17.5,2.6,28.6-11.4,33.4,2.8,4.6,13.5-39.3,63.1-34.9,85.7,2.1,10.4,16.4,22,33,15.9,23.4-8.5,45.5-38.6,62.3-59.6,15.6-19.4,39.2-66.6,59.3-99.8,10.7-17.7,40.8-74.7,21.9-83.6-13.8-6.5-35.3,30.3-47.1,67.5-15.7,49.3-29.2,125.3-34.8,150.7-4.4,20,9.5,37.3,41.7,21.4,26.8-13.2,56.2-61.4,56.2-61.4"/>
        <line id="crossed_t" data-name="crossed t" class="cls-5" x1="901.88" y1="54.55" x2="1029.18" y2="54.55"/>
      </g>
      <g id="plus_sign" data-name="plus sign">
        <line id="horizontal" class="cls-5" x1="1091.97" y1="153.28" x2="1205.57" y2="153.28"/>
        <line id="vertical" class="cls-5" x1="1148.17" y1="97.48" x2="1148.17" y2="206.78"/>
      </g>
    </g>
  </g>
</svg>
