<svg id="Layer_1" data-name="Layer 1" xmlns="http://www.w3.org/2000/svg" viewBox="0 0 302.6 302.6">
  <defs>
    <style>
      .cls-1 {
        fill: #011f53;
        stroke: #f7c06c;
        stroke-width: 9px;
      }

      .cls-1, .cls-3, .cls-4 {
        stroke-miterlimit: 10;
      }

      .cls-2, .cls-4 {
        opacity: 0.6;
      }

      .cls-3, .cls-4 {
        fill: none;
        stroke: #fff;
      }

      .cls-3 {
        stroke-width: 2px;
      }

      .cls-4 {
        isolation: isolate;
      }
    </style>
  </defs>
  <circle class="cls-1" cx="151.3" cy="151.3" r="146.8"/>
  <g id="Coding">
    <g class="cls-2">
      <path class="cls-3" d="M115.06,231c-13.33-.53-33-6.14-33-27.7,0-11,1.05-18.93,1.05-30.68,0-10-2.8-17-20.85-18.58v-6.84c18-1.22,20.85-7.71,20.85-19.1,0-11.22-1.05-16-1.05-25.94,0-21.74,18.93-27.88,33-28.58v7.19c-13.33,2.45-15.25,9.81-15.25,18.4C99.81,109.3,101,116,101,124.9c0,14.73-11.21,23-23.14,25.25v.7C89.47,153.3,101,160.31,101,176.44c0,9.1-1.22,19.11-1.22,28.4s1.92,17,15.25,19.11Z" transform="translate(-1.6 -1.03)"/>
    </g>
    <g class="cls-2">
      <path class="cls-3" d="M190.74,73.7c13.33.53,33,6.14,33,27.7,0,11-1,15.6-1,27.35,0,10,3.5,18.23,20.85,18.76v6.66c-16.12,1.22-20.85,7.71-20.85,19.1s1,18.24,1,28.23c0,21.56-18.93,28.92-33,29.62v-7.18c13.33-2.46,15.25-8.77,15.25-18.41,0-10.17-1.22-20-1.22-28.93,0-14.72,11.22-23.13,23.14-25.41v-.71c-11.57-2.28-23.14-10.87-23.14-25.59,0-9.11,1.22-15.78,1.22-25.07,0-10.87-1.92-17-15.25-19.09Z" transform="translate(-1.6 -1.03)"/>
    </g>
    <path id="semicolon" class="cls-4" d="M147.08,115.07V97.63h10.33v17.44Zm1.07,89.19,3-15h-4.1V172.39h11.75V189.3l-4.45,15Z" transform="translate(-1.6 -1.03)"/>
  </g>
</svg>
