<?xml version="1.0" encoding="utf-8"?>
<!-- Generator: Adobe Illustrator 24.1.3, SVG Export Plug-In . SVG Version: 6.00 Build 0)  -->
<svg version="1.1" id="Layer_1" xmlns="http://www.w3.org/2000/svg" xmlns:xlink="http://www.w3.org/1999/xlink" x="0px" y="0px"
	 viewBox="0 0 306 306" style="enable-background:new 0 0 306 306;" xml:space="preserve">
<style type="text/css">
	.st0{fill:#011F53;stroke:#F7C06C;stroke-width:9;stroke-miterlimit:10;}
	.st1{fill:none;stroke:#FFFFFF;stroke-width:2;stroke-linejoin:round;}
	.st2{fill:#FFFFFF;stroke:#FFFFFF;stroke-width:2;stroke-miterlimit:10;}
	.st3{fill:none;stroke:#FFFFFF;stroke-width:2;stroke-miterlimit:9.9999;}
</style>
<circle class="st0" cx="152.5" cy="153" r="146.8"/>
<g id="Layer_2_1_">
	<g id="Layer_1-2">
		<g id="Layer_2-2">
			<g id="Process_animation">
				<g id="design">
					<path class="st1" d="M144,187.5l-48.2-48.2l6-6c0,0,7.5,9.9,23,15.5c15,5.4,25.6,9.8,25.6,9.8s5,2.1,11.9,9.4s5,17.1,9.4,26
						s18.1,22.2,18.1,22.2l-8.5,8.5"/>
					<path class="st1" d="M95.5,139.5l-5.7,5.7c0,0,9.9,7.5,15.6,22.9c5.5,14.8,10,25.4,10,25.4s2.1,5,9.4,11.8
						c7.3,6.9,17,5.2,25.8,9.6s22.2,18.1,22.2,18.1l8.3-8.3"/>
					<circle class="st2" cx="141.3" cy="184.9" r="3.1"/>
					
						<rect x="164.9" y="223.2" transform="matrix(0.7071 -0.7071 0.7071 0.7071 -107.0348 197.1201)" class="st3" width="39.1" height="9.1"/>
					
						<rect x="169.2" y="229.3" transform="matrix(0.7071 -0.7071 0.7071 0.7071 -109.7798 203.7695)" class="st3" width="43.8" height="10.2"/>
					<path class="st1" d="M130.7,39.7c9,22.5,6.7,34.2,1.9,40.7c-10.5,14.3-35.4,7.4-43.8,21.9c-4.8,8.3-1.7,19.3,2.2,28.2"/>
				</g>
			</g>
		</g>
	</g>
</g>
</svg>
