<svg xmlns="http://www.w3.org/2000/svg" viewBox="0 0 346.85 968.48"><defs><style>.cls-1{fill:none;stroke:#d9d7d9;stroke-miterlimit:10;stroke-width:0.5px;}</style></defs><g id="Layer_2" data-name="Layer 2"><g id="Layer_1-2" data-name="Layer 1"><circle class="cls-1" cx="88.33" cy="179.1" r="30"/><circle class="cls-1" cx="63.33" cy="579.1" r="30"/><circle class="cls-1" cx="148.9" cy="348.33" r="20"/><circle class="cls-1" cx="232.56" cy="501.21" r="20"/><circle class="cls-1" cx="62.37" cy="334.87" r="15"/><circle class="cls-1" cx="232.56" cy="179.88" r="15"/><circle class="cls-1" cx="190.55" cy="953.23" r="15"/><circle class="cls-1" cx="331.6" cy="890.63" r="15"/><circle class="cls-1" cx="15.25" cy="707.94" r="15"/><circle class="cls-1" cx="295.06" cy="679.1" r="20"/><circle class="cls-1" cx="120.06" cy="837.75" r="20"/><circle class="cls-1" cx="287.37" cy="342.56" r="25"/><circle class="cls-1" cx="292.17" cy="25.25" r="25"/><line class="cls-1" x1="111.4" y1="198.33" x2="269.69" y2="324.88"/><line class="cls-1" x1="168.9" y1="348.33" x2="261.4" y2="346.4"/><line class="cls-1" x1="94.1" y1="208.54" x2="139.04" y2="330.93"/><line class="cls-1" x1="139.04" y1="365.73" x2="76.79" y2="552.28"/><line class="cls-1" x1="93.33" y1="586.1" x2="275.83" y2="670.44"/><line class="cls-1" x1="281.6" y1="693.89" x2="136.4" y2="825.25"/><line class="cls-1" x1="71.02" y1="347.11" x2="216.21" y2="489.69"/><polyline class="cls-1" points="246.02 484.87 280.9 368.33 89.09 563.73"/><line class="cls-1" x1="286.4" y1="315.63" x2="239.43" y2="193.21"/><line class="cls-1" x1="158.76" y1="330.93" x2="222.8" y2="192.07"/><line class="cls-1" x1="78.04" y1="605.24" x2="317.59" y2="885.27"/><line class="cls-1" x1="295.06" y1="699.1" x2="328.3" y2="875.63"/><line class="cls-1" x1="26.79" y1="719.48" x2="104.45" y2="825.25"/><line class="cls-1" x1="205.55" y1="946.54" x2="317.59" y2="900.67"/><line class="cls-1" x1="316.6" y1="890.63" x2="138.96" y2="846.34"/><line class="cls-1" x1="242.85" y1="518.36" x2="287.37" y2="659.1"/><line class="cls-1" x1="71.02" y1="609.1" x2="182.08" y2="938.23"/><line class="cls-1" x1="222.27" y1="518.36" x2="113.47" y2="818.86"/><line class="cls-1" x1="61.01" y1="319.67" x2="73.56" y2="204.78"/><line class="cls-1" x1="22.94" y1="694.48" x2="63.33" y2="609.1"/><line class="cls-1" x1="116.57" y1="168.97" x2="274.87" y2="39.67"/><line class="cls-1" x1="279.67" y1="50.25" x2="242.85" y2="168.97"/></g></g></svg>