<svg id="Layer_1" data-name="Layer 1" xmlns="http://www.w3.org/2000/svg" xmlns:xlink="http://www.w3.org/1999/xlink" viewBox="0 0 75 61.09">
  <defs>
    <style>
      .cls-1 {
        fill: #b3b3b3;
      }

      .cls-2 {
        fill: #999;
      }

      .cls-3 {
        fill: #ccc;
      }

      .cls-4 {
        fill: url(#linear-gradient);
      }

      .cls-5 {
        fill: #e6e6e6;
      }

      .cls-6 {
        fill: #f2f2f2;
      }
    </style>
    <linearGradient id="linear-gradient" x1="293.62" y1="194.88" x2="293.62" y2="153" gradientUnits="userSpaceOnUse">
      <stop offset="0" stop-color="#999"/>
      <stop offset="1" stop-color="#c9c9c9"/>
    </linearGradient>
  </defs>
  <polygon id="envelope_back_right" data-name="envelope back right" class="envelope-back" points="74.48 23.64 70.65 20.51 70.65 23.57 74.48 23.64"/>
  <g id="right_envelope_inside" data-name="right envelope inside">
    <path class="envelope-inside" d="M256.75,176.57h3.83v1.66l-3.13-1.51a1.07,1.07,0,0,0-.7-.08Z" transform="translate(-256 -153)"/>
  </g>
  <g id="left_envelope_inside" data-name="left envelope inside">
    <path class="envelope-inside" d="M330.05,176.57v.08a.94.94,0,0,0-.51.1l-3,1.54v-1.72Z" transform="translate(-256 -153)"/>
  </g>
  <g id="paper_and_text" data-name="paper and text">
    <g id="letter_e_fill" data-name="letter e fill">
      <path class="fill-1" d="M299.9,175.35a1.56,1.56,0,0,0-1.19.48,2.25,2.25,0,0,0-.53,1.36h3.31a2.21,2.21,0,0,0-.4-1.33A1.39,1.39,0,0,0,299.9,175.35Z" transform="translate(-256 -153)"/>
    </g>
    <g id="letter_a_fill" data-name="letter a fill">
      <path class="fill-2" d="M299.06,164.43a1.7,1.7,0,0,0,.54-1.37v-.61l-.93,0a3.09,3.09,0,0,0-1.66.4,1.14,1.14,0,0,0-.46,1,1,1,0,0,0,.32.8,1.4,1.4,0,0,0,.85.24A2,2,0,0,0,299.06,164.43Z" transform="translate(-256 -153)"/>
    </g>
    <g id="letter-e_fill" data-name="letter-e fill">
      <path class="fill-2" d="M278.61,159.75a1.54,1.54,0,0,0-1.19.48,2.19,2.19,0,0,0-.53,1.36h3.3a2.28,2.28,0,0,0-.39-1.33A1.41,1.41,0,0,0,278.61,159.75Z" transform="translate(-256 -153)"/>
    </g>
    <g id="text_cutout" data-name="text cutout">
      <path class="paper" d="M325.65,153h-64a1,1,0,0,0-1,1l-.07,22.57v1.66l22.8,11.4,10.28,5.14a1,1,0,0,0,.9,0l10-5.14,22.08-11.34V154A1,1,0,0,0,325.65,153Zm-44.08,9.61h-4.7a2.36,2.36,0,0,0,.56,1.65,2,2,0,0,0,1.52.57,5.41,5.41,0,0,0,1.2-.12,7.28,7.28,0,0,0,1.08-.37v1.14a4.92,4.92,0,0,1-1.06.36,6.71,6.71,0,0,1-1.28.11,4,4,0,0,1-1.79-.4,2.88,2.88,0,0,1-1.22-1.2,4.09,4.09,0,0,1-.43-2,4.63,4.63,0,0,1,.39-2,3,3,0,0,1,1.11-1.25,3.09,3.09,0,0,1,1.66-.44,2.85,2.85,0,0,1,2.17.85,3.26,3.26,0,0,1,.79,2.32Zm3.1,3.21h-1.38v-7h1.09l.19.94h.08a2,2,0,0,1,.88-.81,2.79,2.79,0,0,1,1.18-.26,2.11,2.11,0,0,1,2.13,1.13h.1a2.15,2.15,0,0,1,.94-.85,2.9,2.9,0,0,1,1.26-.28,2.41,2.41,0,0,1,1.78.61,2.73,2.73,0,0,1,.6,2v4.56h-1.38v-4.38c0-1.09-.44-1.63-1.31-1.63a1.53,1.53,0,0,0-1.34.58,2.89,2.89,0,0,0-.41,1.66v3.77h-1.36v-4.38c0-1.09-.44-1.63-1.33-1.63a1.41,1.41,0,0,0-1.35.64,3.63,3.63,0,0,0-.37,1.83ZM295,181.42h-1.38V177c0-1.09-.44-1.63-1.31-1.63A1.53,1.53,0,0,0,291,176a2.89,2.89,0,0,0-.4,1.66v3.77h-1.37V177c0-1.09-.44-1.63-1.33-1.63a1.43,1.43,0,0,0-1.35.64,3.63,3.63,0,0,0-.37,1.83v3.54h-1.38v-7h1.09l.19.94h.08a2,2,0,0,1,.88-.81,2.79,2.79,0,0,1,1.18-.26,2.11,2.11,0,0,1,2.13,1.13h.1a2.15,2.15,0,0,1,.94-.85,2.9,2.9,0,0,1,1.26-.28,2.41,2.41,0,0,1,1.78.61,2.73,2.73,0,0,1,.6,2Zm.09-17.59a1.85,1.85,0,0,1,.81-1.63,4.76,4.76,0,0,1,2.48-.61l1.2,0v-.39a1.38,1.38,0,0,0-.36-1.08,1.41,1.41,0,0,0-1-.32,3.22,3.22,0,0,0-1,.16,7.2,7.2,0,0,0-.95.37l-.44-1a5.42,5.42,0,0,1,1.14-.43,4.87,4.87,0,0,1,1.34-.18,2.88,2.88,0,0,1,2,.58,2.29,2.29,0,0,1,.66,1.81v4.75h-1l-.27-1h-.05a3.33,3.33,0,0,1-1,.84,2.91,2.91,0,0,1-1.38.27,2.42,2.42,0,0,1-1.58-.51A2,2,0,0,1,295.13,163.83Zm7.73,14.38h-4.7a2.41,2.41,0,0,0,.56,1.65,2,2,0,0,0,1.52.57,5.41,5.41,0,0,0,1.2-.12,7.8,7.8,0,0,0,1.09-.37v1.14a5,5,0,0,1-1.07.36,6.67,6.67,0,0,1-1.27.11,4,4,0,0,1-1.8-.4,2.86,2.86,0,0,1-1.21-1.2,4.08,4.08,0,0,1-.44-2,4.52,4.52,0,0,1,.4-2,2.92,2.92,0,0,1,1.1-1.25,3.12,3.12,0,0,1,1.66-.44,2.85,2.85,0,0,1,2.17.85,3.26,3.26,0,0,1,.79,2.32Zm1.6-12.39h-1.37v-7h1.37Zm-.13-8.28a.79.79,0,0,1-.54.19.83.83,0,0,1-.56-.19.7.7,0,0,1-.23-.6.71.71,0,0,1,.23-.61.87.87,0,0,1,.56-.18.84.84,0,0,1,.54.18.71.71,0,0,1,.24.61A.7.7,0,0,1,304.33,157.54Zm3.67,8.28h-1.38v-9.88H308Z" transform="translate(-256 -153)"/>
    </g>
  </g>
  <polygon id="envelope_back_left" data-name="envelope back left" class="envelope-back" points="0.75 23.64 4.58 20.51 4.58 23.57 0.75 23.64"/>
  <g id="envelope">
    <path class="envelope" d="M331,177.38V213a1,1,0,0,1-1,1H257a1,1,0,0,1-1-1V177.36a1,1,0,0,1,.75-1,1.07,1.07,0,0,1,.7.08l3,1.52,22.8,11.49,10.28,5.17a1,1,0,0,0,.9,0l10-5.17L326.54,178l3-1.56a.94.94,0,0,1,.51-.1A1,1,0,0,1,331,177.38Z" transform="translate(-256 -153)"/>
  </g>
  <g id="envelope_bottom_triangle" data-name="envelope bottom triangle">
    <path class="envelope-bottom" d="M326.65,214l-22.08-13-10-5.9a.88.88,0,0,0-.9,0L283.38,201l-22.8,13.07Z" transform="translate(-256 -153)"/>
  </g>
</svg>
