<svg xmlns="http://www.w3.org/2000/svg" viewBox="0 0 83.47 94.81">
  <defs>
    <style>
      .cls-1 {
        fill: none;
        stroke: #666;
        stroke-miterlimit: 10;
      }
    </style>
  </defs>
  <g id="Layer_2" data-name="Layer 2">
    <g id="Logos">
      <path class="cls-1" d="M51.55,75.84c.28-.36.38-.54.53-.69a7.24,7.24,0,0,1,3.59-1.84,1.11,1.11,0,0,1,1.44.65A1.92,1.92,0,0,0,58.59,75a1,1,0,0,0,.75-.23,3,3,0,0,1,2.15-.73c1.8.1,3-1,4.23-2.1,0,0,0-.15,0-.22s-.12-.08-.14-.07c-1.76.74-3.66.53-5.48.79-1.09.16-2.16.43-3.24.54a1.57,1.57,0,0,1-1.53-.62,3.6,3.6,0,0,1,1.46-1.81,11.34,11.34,0,0,1,2.09-1.39c.73-.37,1-.21,1.56.42a2.54,2.54,0,0,0,.72.63c.72.35,1,.23,1.57-.38A14.84,14.84,0,0,1,64,68.75a6.28,6.28,0,0,0-.75-.4c-1.22-.48-2.46-.95-3.69-1.42a1.41,1.41,0,0,0-.43-.13c-1.61,0-3.24-.24-4.81.39-3.49,1.4-7.13,1.45-10.8,1.17-.46,0-.93,0-1.44,0,0,.59,0,1.08,0,1.56a4.73,4.73,0,0,1-2,3.25,15.29,15.29,0,0,0-2.05,2.13,1.77,1.77,0,0,0,.25,2.57,24.76,24.76,0,0,0,6.15,4.28A8.54,8.54,0,0,1,47,84.21a26,26,0,0,0,2,1.92A4,4,0,0,1,50.38,88a8.73,8.73,0,0,1,.15,1,6.82,6.82,0,0,1-1.25.28,21.67,21.67,0,0,1-3-.13c-.88-.13-1.14-.63-1-1.5,0-.13,0-.26.06-.39.23-1.65.19-1.57-1.26-2.37A19,19,0,0,1,41.66,83,16.64,16.64,0,0,0,40,81.91c-2-1.16-4-2.28-6-3.43a8.19,8.19,0,0,1-.88-.65,1.35,1.35,0,0,0-.16,1.65c.8,1.25,1.61,2.5,2.52,3.68.75,1,1.64,1.83,2.46,2.76a3.88,3.88,0,0,1,.82,1.14c.53,1.47,1.68,2.45,2.62,3.59.52.64,1.06,1.26,1.51,1.94s.25,1.3-.64,1.55a5.23,5.23,0,0,1-3.49-.29,2.09,2.09,0,0,1-.85-1,2.65,2.65,0,0,1-.19-1.28,3.28,3.28,0,0,0-1.53-3.33,6.86,6.86,0,0,1-1.72-2.06c-1-1.44-2.1-2.78-3.19-4.15-.88-1.09-1.8-2.15-2.68-3.25a.9.9,0,0,1,.1-1.33c.39-.38.78-.75,1.15-1.15a2.54,2.54,0,0,0-.48-4.11c-.56-.36-1.15-.68-1.74-1a8.94,8.94,0,0,1-4.7-6.78,11.89,11.89,0,0,1,.3-5.65c.06-.19.1-.4.19-.75C21.87,58.6,21.24,60,20,60.78l1-1.44-.18-.23c-1.72,2.18-3.82,3.52-6.68,3.22l2-.55,0-.25c-2.48.36-4.9.3-7.08-1.15l1.18.31.14-.23c-1.15-.55-2.3-1.09-2.8-2.36a8.36,8.36,0,0,1-.32-3.75l.14.71.25,0A8.54,8.54,0,0,0,6.88,50l.16,0,1,3.09.17,0c.12-.76-.3-1.46-.31-2.21.9,1.85.4,4.07,1.33,5.91l.25-.06-.27-1.26a6.63,6.63,0,0,0,5,3.43,5.74,5.74,0,0,0,3.24-.6c1.67-.7,3.13-2,5-2.08a5.7,5.7,0,0,0,3-1.19,11.62,11.62,0,0,1,3.11-1.2c3-1,6-1.78,9-2.83A11.19,11.19,0,0,0,43.67,45c-3.94,5.07-9.16,6.9-15.55,6.3,2.37-1.24,4.61-2.33,6.76-3.57a17.13,17.13,0,0,0,5.45-4.93c-4.67,4.43-9.82,7.57-16.64,6.33a43.72,43.72,0,0,0,13.42-7.4L37,41.52l-.74.56a23.17,23.17,0,0,1-9.83,4.63,9,9,0,0,1-5.17-.32l-.28-.16c4.46-1.3,8.77-2.74,12.05-6.13l-.13-.23a2.14,2.14,0,0,0-.38.23,17.54,17.54,0,0,1-9,4,7,7,0,0,1-3.71-.36c-.31-.12-.6-.29-1.07-.52C23.91,42,29,41,33.33,37.9l-.1-.26a3.91,3.91,0,0,0-.59.26A23.34,23.34,0,0,1,23,41.53a15.7,15.7,0,0,1-6.88-.33L15.53,41c2.06-.48,4-.89,5.84-1.37A32.92,32.92,0,0,0,30.85,36a11.87,11.87,0,0,0,1.06-.81L31.78,35c-.16.08-.32.15-.48.24a31.09,31.09,0,0,1-11.89,4.07,12,12,0,0,1-8.19-2.08,22.75,22.75,0,0,1-2.59-2,29.75,29.75,0,0,0,9.88-.58,27.56,27.56,0,0,0,9.21-3.14l-.06-.2a2.9,2.9,0,0,0-.42.12A28.81,28.81,0,0,1,14,34.36c-4.95,0-8.83-2.2-12.44-5.28,3.18.28,6.35.6,9.52.82a52.63,52.63,0,0,0,9.56.12l0-.18-.7-.06c-2-.1-4.06-.11-6.08-.3a5.42,5.42,0,0,1-3.24-1.4,79.28,79.28,0,0,0,14,.34c-2.83-.49-5.72-.62-8.37-1.86,3.55.58,7-.09,10.38-.91,2.88-.69,5.76-1.42,8.66-2a8.48,8.48,0,0,1,6.51,1,8,8,0,0,1,3.36,4.47,42.08,42.08,0,0,1,1.13,5.12,16.71,16.71,0,0,0,1.84,5c.05.1.09.2.13.27,1.19-.8,1.63-1.77,1.28-2.78l-.6.16c-.88.2-1.44-.26-1.28-1.15a7.58,7.58,0,0,1,.54-1.41c.05-.12.12-.23.2-.41-.87-.76-.61-1.74-.34-2.83l.16-.18a31.78,31.78,0,0,0,1-3.68c.29-2,.42-4,.61-6s.39-3.87.58-5.81c.25-2.51.48-5,.73-7.54.18-1.81.38-3.61.56-5.42,0-.22,0-.45,0-.69l-2-.5c.78-.95,3.08-1,4.23-.21.07.5-.23.67-.68.68s-.76,0-1.21,0c-.12.86-.24,1.6-.32,2.35-.29,2.85-.55,5.72-.83,8.57-.19,1.94-.41,3.87-.59,5.81-.16,1.69-.3,3.39-.44,5.09-.16,1.92-.32,3.83-.49,5.75a3.87,3.87,0,0,0,.32,2.14A7.65,7.65,0,0,1,50,33.09a2.26,2.26,0,0,0,.38-.25,9.12,9.12,0,0,1,3.72-2.16.87.87,0,0,0,.5-.26,1.32,1.32,0,0,1,1.74-.61A3.67,3.67,0,0,1,58,26.23a3.42,3.42,0,0,1,2.44-.43,2.54,2.54,0,0,1,2,1.55,12,12,0,0,1,.43,2.49l-.17.06,1,.8-.06.22-1.76-.2v1l-.11-.06-1.45,1.76-1.41-.54c-.86,3.7-2.94,6.79-4.37,10.31l1.54,1.35,1.61-.74-.88-.34L58.16,43l0-.13-.81-.32v-.09l1-.09c.88-.08,1.4-.41,1.47-.93A1.62,1.62,0,0,0,58.58,40a9.23,9.23,0,0,0-1.07-.23l0-.17a6.06,6.06,0,0,1,1.19-.08c.62.07,1.23.29,1.85.35a3.53,3.53,0,0,0,1.07-.24c-.32-.74-.83-.55-1.25-.58a6.72,6.72,0,0,1-1.26-.12L62.81,38v-.15L61.7,37.7c.8-.47,1.32-1.39,2.55-.88L64,36.19c.68,0,1.45,0,1.34-1-.09-.77-.69-1.09-1.33-1.37a3.93,3.93,0,0,1,2.39,1.58,8.9,8.9,0,0,0,1.27,1.26.62.62,0,0,0,1-.16c.08-1.09-.87-1.21-1.52-1.69l1.75.55c-.27-.76-1-.76-1.36-1.12l.1-.17,2.34,1.33-.27-.77,2.52,2.61.18-.14L72,35.35l2.12,1.43.22-1.1L76,38.2a1.29,1.29,0,0,0,.35.44,7.84,7.84,0,0,1,2.64,3,13.63,13.63,0,0,0,1.89,2.6,14,14,0,0,1,2,3.22,1,1,0,0,1,0,.75,3.56,3.56,0,0,1-2.69,2.52l-.78-.93-.16.06.14.82-1,.75a13.72,13.72,0,0,1-.78-1.5,3.34,3.34,0,0,0-2.76-2.48A7.81,7.81,0,0,1,73,46.9a2.06,2.06,0,0,0-2.57.44,7.5,7.5,0,0,0-2,3.36c-.67,1.92-1.29,3.85-1.94,5.78a3.56,3.56,0,0,0-.06,2.41,3.28,3.28,0,0,1,0,2.29,7.23,7.23,0,0,0-.17.79,3,3,0,0,0,.6.3,16.43,16.43,0,0,0,4.46.77,3.11,3.11,0,0,1,1.43.32A2,2,0,0,1,73,66.77a18.74,18.74,0,0,1-1.85.92c-.69.38-1.36.8-2.14,1.26.28.28.42.45.59.6s.6.49.9.74a2.08,2.08,0,0,1,.77,2.26,2.37,2.37,0,0,1-2,1.59c-1.68.4-3.36.81-5,1.3a11,11,0,0,0-2.25,1c-1.33.74-2.74.44-4.13.42a28.79,28.79,0,0,1-3.22-.12,19.27,19.27,0,0,1-2.55-.61A2.6,2.6,0,0,1,51.55,75.84Z"/>
    </g>
  </g>
</svg>
