<svg xmlns="http://www.w3.org/2000/svg" xmlns:xlink="http://www.w3.org/1999/xlink" viewBox="0 0 1767.24 628.62">
  <defs>
    <style>
      .cls-1 {
        fill: none;
        stroke: #fff;
        stroke-linejoin: round;
        stroke-width: 9px;
      }

      .cls-2 {
        stroke-miterlimit: 10;
        fill: url(#radial-gradient);
        stroke: url(#radial-gradient-2);
      }

      .cls-3 {
        fill: #fff;
      }
    </style>
    <radialGradient id="radial-gradient" cx="1537.74" cy="-79.05" r="229" gradientTransform="translate(0 308.55)" gradientUnits="userSpaceOnUse">
      <stop offset="0" stop-color="#fff" stop-opacity="0.8"/>
      <stop offset="0.1" stop-color="#fffdfa" stop-opacity="0.8"/>
      <stop offset="0.21" stop-color="#fff7ec" stop-opacity="0.8"/>
      <stop offset="0.33" stop-color="#feeed5" stop-opacity="0.8"/>
      <stop offset="0.45" stop-color="#fde1b5" stop-opacity="0.8"/>
      <stop offset="0.58" stop-color="#fdd08c" stop-opacity="0.8"/>
      <stop offset="0.71" stop-color="#fcbc5a" stop-opacity="0.8"/>
      <stop offset="0.78" stop-color="#fbb03b" stop-opacity="0.8"/>
      <stop offset="0.98" stop-color="#fbb03b" stop-opacity="0"/>
    </radialGradient>
    <radialGradient id="radial-gradient-2" cx="1537.74" cy="-79.05" r="229.5" gradientTransform="translate(0 308.55)" gradientUnits="userSpaceOnUse">
      <stop offset="0" stop-color="#fff" stop-opacity="0.8"/>
      <stop offset="0.1" stop-color="#fffaf3" stop-opacity="0.71"/>
      <stop offset="0.27" stop-color="#feedd3" stop-opacity="0.56"/>
      <stop offset="0.51" stop-color="#fdd89f" stop-opacity="0.35"/>
      <stop offset="0.79" stop-color="#fcbc59" stop-opacity="0.1"/>
      <stop offset="0.9" stop-color="#fbb03b" stop-opacity="0"/>
    </radialGradient>
  </defs>
  <g id="Layer_2" data-name="Layer 2">
    <g id="Layer_1-2" data-name="Layer 1">
      <g id="idea_bulb" data-name="idea bulb">
        <g id="bulb">
          <path class="cls-1" d="M1478.44,464.2c2.9-2.2,4.8-3.8,6.8-5.2,4.8-3.2,5.5-5.8.6-10.1-3.1-2.7-4.5-7.3-6.5-11.2-1.6-3.1-2.9-6.4-4.3-9.6-3.9-9.3-10.8-18.4-11.2-27.8-.9-21.9-9.6-40.2-20.1-58.3-7-12-13.9-24-21.3-35.8-34.8-55.3-11.3-111.6,20.6-142.9,64.1-63.1,176.4-44.6,214.8,35.8,16.5,34.6,16.8,68.9-2.7,102.8-12.7,22.1-25.3,44.4-37.2,67a51.06,51.06,0,0,0-5.4,21c-.7,15-3.1,29-14.1,40.3-1.8,1.8-1.9,5.3-2.5,8-.4,1.8.4,4.6-.5,5.3-8.9,6.6-12.5,13-.3,19.8-1.5,2.2-2.5,5.2-4.5,6.4-6.8,4-6.2,7.4.2,10.9,6.2,3.4,6.2,6.7.1,10.1-5.9,3.3-6.7,6.5-1.3,11.8,1.7,1.6,1.1,8-.7,10.4a231,231,0,0,1-20.4,22.7c-1.7,1.7-4.9,2.6-7.5,2.8-6.6.4-13.2.1-19.7.1-33.8,0-34,.1-55.2-26.1-1.7-2.1-1.4-8.5.5-10.5,4.9-5.2,3.8-8.1-1.7-10.9-5-2.6-7.5-6-1.4-9.4,10.2-5.7,6.6-9.2-1.1-13.1C1480.94,467.8,1480.24,466.3,1478.44,464.2Zm58.5-41.9h40.6c17.3-.1,22.1-5.8,23.9-23.5,1.4-12.9,3.3-26.4,8.6-38,10.9-23.9,24.6-46.5,36.4-69.9,16.6-32.7,13-64.6-6.6-94.7-34.7-53.3-113.5-68.6-169.8-34.1-40.1,24.6-69.7,79.4-39.4,133.7,10.3,18.5,21.8,36.5,30.1,55.9,6.5,15.1,10.1,31.8,12.6,48.2,2.6,16.7,7.3,22.4,23.9,22.3,13.4,0,26.6,0,39.7.1Z"/>
          <path class="cls-1" d="M1568.54,410.7h-12a7.91,7.91,0,0,1-1.1-2.9c1.2-26.3,1.9-52.6,4-78.8.5-6.4,5.1-12.7,8.3-18.8,11.1-21.4,22.3-42.7,33.8-63.8,1.3-2.5,4.8-3.8,7.2-5.7-.2,2.9.4,6.2-.7,8.7-11.2,24.2-22.9,48.1-33.8,72.4a63.53,63.53,0,0,0-5.5,23C1568.14,366.3,1568.54,387.8,1568.54,410.7Z"/>
          <path class="cls-1" d="M1517.84,410.8h-9.1c-.7-18.4-2-36.5-1.8-54.6a93.16,93.16,0,0,0-10.7-45.1c-10.3-20.1-19.5-40.8-29-61.3-1.3-2.8-1.2-6.3-1.7-9.5,1.2-.4,2.4-.7,3.7-1.1,1.9,3.3,3.9,6.5,5.7,9.8,9.5,17.7,17.8,36.1,28.6,52.9,11.4,17.9,14.3,37,14.3,57.3Z"/>
          <path class="cls-1" d="M1495.24,241.6c3.5-8.2,6.2-14.6,10.3-24.4,4.4,9.8,7.4,16.4,10.8,24,3.3-7.5,6.3-14.1,9.2-20.8h2.9c2.8,6.7,5.5,13.3,9.1,21.8,3.3-8.4,6-15,8.7-21.7,1-.1,2.1-.2,3.1-.2,3,6.6,6,13.3,9.5,20.9,3.2-7.2,6.1-13.9,9.1-20.5l3-.3c2.8,6.6,5.7,13.2,9.1,21.2,3.4-7.7,6.3-14.4,9.2-21,1-.1,2-.1,3-.2,1.7,5,3.4,10.1,5.9,17.6-3.6-2.9-5.3-4.2-7.5-5.9-3,6.9-5.9,13.7-8.8,20.5l-3.2.3c-2.9-6.6-5.8-13.2-9.3-21.2-3.2,7.7-6,14.4-8.8,21-1,.1-2,.3-3.1.4-2.9-6.6-5.9-13.1-9.5-21.2-3.3,7.7-6.1,14.3-9,20.8l-3.1.3c-2.7-6.4-5.4-12.8-9-21.3-3.4,8-6.2,14.5-9,21.1-1,.1-2,.1-3,.2-3-6.6-5.9-13.3-9.4-21.1-3.1,7.4-5.8,14.1-8.5,20.7-1.2.2-2.3.3-3.5.5-2.8-6.6-5.6-13.3-8.8-20.8-2,1.4-3.8,2.7-6.9,5,1.8-6.5,3.3-11.6,4.8-16.7l3.2-.3C1488.64,226.8,1491.64,233.6,1495.24,241.6Z"/>
        </g>
        <g id="halo">
          <circle class="cls-2" cx="1537.74" cy="229.5" r="229"/>
        </g>
        <g id="dot">
          <circle class="cls-3" cx="606.83" cy="396.98" r="9.4"/>
        </g>
        <path id="cord" class="cls-1" d="M3.84,470.3C78.34,592,152.94,625,206.64,624.1c47.8-.2,75.07-48.66,78.3-85.17,2.72-30.85-1-134.23,61.3-127.13,10.4,1.2,41.5,17.9,39.6,50-1.2,20.6-11.9,52-43.4,56.6-27.1,3.9-76.2-47.9-76.4-85.9-3.8-49.1,33.5-72.1,65.1-72.6,106.6-1.9,81.4,132.88,115.59,173.19,22.39,26.4,51,26.66,65.6,22,30.5-9.7,68.84-94,84.54-121.88-8.7,23-43.25,107.28-13.65,120.49,30.58,6.67,42.84-33.27,58.94-57.27,14.73-22,37-44.2,56.15-48.37,25-5.44,38.92-.28,44.85,9.1-14.5-19-46.4-11.4-66.6,1.3-41.5,26.1-48.3,76-33.5,89.1,19.2,17,50.8-14.7,60.8-24.6,35.5-35,125.9-206.3,104.7-220.9-38.7-26.7-65.1,87.7-76,144.4-6.2,32.1-19.4,90-.7,107.1,7.5,6.8,19.2,3.4,28.3-1.1,40.2-20.1,131-78.5,106-111.5-18.9-24.7-110.6,76.6-59.2,112.7,21.5,15.2,55.81-3.71,71.21-15.81,20.4-16,36.17-78.19,82.84-79.22l22.72,2.11c-28.55-2.39-35.25-2.24-46.35,4.56-10.4,6.3-26.34,16.85-37.44,44.15-5.3,13.1-11.5,48.8,13.7,53.2,40.4,7.1,80.62-81.73,80.62-81.73s-7.4,55.14,6.14,72.8c18.13,23.65,60.36,24.18,85.43,18.6,39.48-8.77,65.54-19.14,85.62-35.86,10.62-8.83,10-27-4-35.16-12.92-7.51-27.79.66-28.77,16.26-1.67,26.69,25.1,44.85,61.75,51.07,53.61,9.12,159.53-60,180.1-17.43,7.91,16.34-5.53,29.62-18.9,28.35-12.22-1.16-24.17-15.38-23.91-32,.53-33.06,36.65-37,60.88-28.07C1454.45,540,1516.21,624.56,1539,537.54"/>
      </g>
    </g>
  </g>
</svg>
