<?xml version="1.0" encoding="utf-8"?>
<!-- Generator: Adobe Illustrator 24.2.1, SVG Export Plug-In . SVG Version: 6.00 Build 0)  -->
<svg version="1.1" id="Idea_Bulb" xmlns="http://www.w3.org/2000/svg" xmlns:xlink="http://www.w3.org/1999/xlink" x="0px" y="0px"
	 viewBox="0 0 1767.2 628.6" style="enable-background:new 0 0 1767.2 628.6;" xml:space="preserve">
<style type="text/css">
	.bulb-lines{fill:none;stroke:#FFFFFF;stroke-width:7;stroke-linejoin:round;}
	.bulb-glow{fill:url(#halo_1_);}
	.dot-fill{fill:#FFFFFF;}
</style>
<path id="cord" class="bulb-lines" d="M3.8,470.3C78.3,592,152.9,625,206.6,624.1c47.8-0.2,75.1-48.7,78.3-85.2
	c2.7-30.9-1-134.2,61.3-127.1c10.4,1.2,41.5,17.9,39.6,50c-1.2,20.6-11.9,52-43.4,56.6c-27.1,3.9-76.2-47.9-76.4-85.9
	c-3.8-49.1,33.5-72.1,65.1-72.6c106.6-1.9,81.4,132.9,115.6,173.2c22.4,26.4,51,26.7,65.6,22c30.5-9.7,68.8-94,84.5-121.9
	c-8.7,23-43.3,107.3-13.7,120.5c30.6,6.7,42.8-33.3,58.9-57.3c14.7-22,37-44.2,56.2-48.4c25-5.4,38.9-0.3,44.8,9.1
	c-14.5-19-46.4-11.4-66.6,1.3c-41.5,26.1-48.3,76-33.5,89.1c19.2,17,50.8-14.7,60.8-24.6c35.5-35,125.9-206.3,104.7-220.9
	c-38.7-26.7-65.1,87.7-76,144.4c-6.2,32.1-19.4,90-0.7,107.1c7.5,6.8,19.2,3.4,28.3-1.1c40.2-20.1,131-78.5,106-111.5
	c-18.9-24.7-110.6,76.6-59.2,112.7c21.5,15.2,55.8-3.7,71.2-15.8c20.4-16,36.2-78.2,82.8-79.2l22.7,2.1c-28.5-2.4-35.3-2.2-46.3,4.6
	c-10.4,6.3-26.3,16.9-37.4,44.1c-5.3,13.1-11.5,48.8,13.7,53.2c40.4,7.1,80.6-81.7,80.6-81.7s-7.4,55.1,6.1,72.8
	c18.1,23.7,60.4,24.2,85.4,18.6c39.5-8.8,65.5-19.1,85.6-35.9c10.6-8.8,10-27-4-35.2c-12.9-7.5-27.8,0.7-28.8,16.3
	c-1.7,26.7,25.1,44.8,61.8,51.1c53.6,9.1,159.5-60,180.1-17.4c7.9,16.3-5.5,29.6-18.9,28.3c-12.2-1.2-24.2-15.4-23.9-32
	c0.5-33.1,36.7-37,60.9-28.1c55.8,20.5,117.6,105.1,140.4,18.1"/>
<path id="bulb" class="bulb-lines" d="M1478.4,464.2c2.9-2.2,4.8-3.8,6.8-5.2c4.8-3.2,5.5-5.8,0.6-10.1
	c-3.1-2.7-4.5-7.3-6.5-11.2c-1.6-3.1-2.9-6.4-4.3-9.6c-3.9-9.3-10.8-18.4-11.2-27.8c-0.9-21.9-9.6-40.2-20.1-58.3
	c-7-12-13.9-24-21.3-35.8c-34.8-55.3-11.3-111.6,20.6-142.9c64.1-63.1,176.4-44.6,214.8,35.8c16.5,34.6,16.8,68.9-2.7,102.8
	c-12.7,22.1-25.3,44.4-37.2,67c-3.3,6.5-5.1,13.7-5.4,21c-0.7,15-3.1,29-14.1,40.3c-1.8,1.8-1.9,5.3-2.5,8c-0.4,1.8,0.4,4.6-0.5,5.3
	c-8.9,6.6-12.5,13-0.3,19.8c-1.5,2.2-2.5,5.2-4.5,6.4c-6.8,4-6.2,7.4,0.2,10.9c6.2,3.4,6.2,6.7,0.1,10.1c-5.9,3.3-6.7,6.5-1.3,11.8
	c1.7,1.6,1.1,8-0.7,10.4c-6.3,8-13.1,15.6-20.4,22.7c-1.7,1.7-4.9,2.6-7.5,2.8c-6.6,0.4-13.2,0.1-19.7,0.1c-33.8,0-34,0.1-55.2-26.1
	c-1.7-2.1-1.4-8.5,0.5-10.5c4.9-5.2,3.8-8.1-1.7-10.9c-5-2.6-7.5-6-1.4-9.4c10.2-5.7,6.6-9.2-1.1-13.1
	C1480.9,467.8,1480.2,466.3,1478.4,464.2z M1536.9,422.3h40.6c17.3-0.1,22.1-5.8,23.9-23.5c1.4-12.9,3.3-26.4,8.6-38
	c10.9-23.9,24.6-46.5,36.4-69.9c16.6-32.7,13-64.6-6.6-94.7c-34.7-53.3-113.5-68.6-169.8-34.1c-40.1,24.6-69.7,79.4-39.4,133.7
	c10.3,18.5,21.8,36.5,30.1,55.9c6.5,15.1,10.1,31.8,12.6,48.2c2.6,16.7,7.3,22.4,23.9,22.3C1510.6,422.2,1523.8,422.2,1536.9,422.3
	L1536.9,422.3z"/>
<path id="filament_right" class="bulb-lines" d="M1568.5,410.7h-12c-0.6-0.9-0.9-1.9-1.1-2.9c1.2-26.3,1.9-52.6,4-78.8
	c0.5-6.4,5.1-12.7,8.3-18.8c11.1-21.4,22.3-42.7,33.8-63.8c1.3-2.5,4.8-3.8,7.2-5.7c-0.2,2.9,0.4,6.2-0.7,8.7
	c-11.2,24.2-22.9,48.1-33.8,72.4c-3.3,7.3-5.1,15.1-5.5,23C1568.1,366.3,1568.5,387.8,1568.5,410.7z"/>
<path id="filament_left" class="bulb-lines" d="M1517.8,410.8h-9.1c-0.7-18.4-2-36.5-1.8-54.6c0.3-15.7-3.4-31.2-10.7-45.1
	c-10.3-20.1-19.5-40.8-29-61.3c-1.3-2.8-1.2-6.3-1.7-9.5c1.2-0.4,2.4-0.7,3.7-1.1c1.9,3.3,3.9,6.5,5.7,9.8
	c9.5,17.7,17.8,36.1,28.6,52.9c11.4,17.9,14.3,37,14.3,57.3V410.8z"/>
<path id="filament_top" class="bulb-lines" d="M1495.2,241.6c3.5-8.2,6.2-14.6,10.3-24.4c4.4,9.8,7.4,16.4,10.8,24
	c3.3-7.5,6.3-14.1,9.2-20.8h2.9c2.8,6.7,5.5,13.3,9.1,21.8c3.3-8.4,6-15,8.7-21.7c1-0.1,2.1-0.2,3.1-0.2c3,6.6,6,13.3,9.5,20.9
	c3.2-7.2,6.1-13.9,9.1-20.5l3-0.3c2.8,6.6,5.7,13.2,9.1,21.2c3.4-7.7,6.3-14.4,9.2-21c1-0.1,2-0.1,3-0.2c1.7,5,3.4,10.1,5.9,17.6
	c-3.6-2.9-5.3-4.2-7.5-5.9c-3,6.9-5.9,13.7-8.8,20.5l-3.2,0.3c-2.9-6.6-5.8-13.2-9.3-21.2c-3.2,7.7-6,14.4-8.8,21
	c-1,0.1-2,0.3-3.1,0.4c-2.9-6.6-5.9-13.1-9.5-21.2c-3.3,7.7-6.1,14.3-9,20.8l-3.1,0.3c-2.7-6.4-5.4-12.8-9-21.3
	c-3.4,8-6.2,14.5-9,21.1c-1,0.1-2,0.1-3,0.2c-3-6.6-5.9-13.3-9.4-21.1c-3.1,7.4-5.8,14.1-8.5,20.7c-1.2,0.2-2.3,0.3-3.5,0.5
	c-2.8-6.6-5.6-13.3-8.8-20.8c-2,1.4-3.8,2.7-6.9,5c1.8-6.5,3.3-11.6,4.8-16.7l3.2-0.3C1488.6,226.8,1491.6,233.6,1495.2,241.6z"/>
<radialGradient id="halo_1_" cx="1537.74" cy="709.05" r="229" gradientTransform="matrix(1 0 0 -1 0 938.55)" gradientUnits="userSpaceOnUse">
	<stop  offset="0" style="stop-color:#FFFFFF;stop-opacity:0.8"/>
	<stop  offset="0.1" style="stop-color:#FFFDFA;stop-opacity:0.8"/>
	<stop  offset="0.21" style="stop-color:#FFF7EC;stop-opacity:0.8"/>
	<stop  offset="0.33" style="stop-color:#FEEED5;stop-opacity:0.8"/>
	<stop  offset="0.45" style="stop-color:#FDE1B5;stop-opacity:0.8"/>
	<stop  offset="0.58" style="stop-color:#FDD08C;stop-opacity:0.8"/>
	<stop  offset="0.71" style="stop-color:#FCBC5A;stop-opacity:0.8"/>
	<stop  offset="0.78" style="stop-color:#FBB03B;stop-opacity:0.8"/>
	<stop  offset="0.98" style="stop-color:#FBB03B;stop-opacity:0"/>
</radialGradient>
<circle id="halo" class="bulb-glow" cx="1537.7" cy="229.5" r="229"/>
<circle id="dot" class="dot-fill" cx="606.8" cy="397" r="9.4"/>
</svg>