<svg xmlns="http://www.w3.org/2000/svg" viewBox="0 0 780.4 877.02">
  <defs>
    <style>
      .cls-1 {
        fill: #fff;
        opacity: 0.6;
      }

      .cls-2 {
        fill: #d24f1b;
      }
    </style>
  </defs>
  <g id="Layer_2" data-name="Layer 2">
    <g id="Page_2" data-name="Page 2">
      <path class="cls-1" d="M71.87,476.94c.38-.13,1.29.2,1.88-.71C73,476.26,72.19,476.3,71.87,476.94Zm43.05-36.59-.4.18A.75.75,0,0,1,114.92,440.35Zm62.8,360.27h-.09a2.9,2.9,0,0,0,.12.36C177.73,800.86,177.73,800.75,177.72,800.62ZM8.59,384.76l-.28.94c-.49,3.26-5.5-2.34-5.5-2.34.35-1.1.67-1.7.95-2.69.52-1.43.89-2.92,1.73-3.57,4.8-1.61-9.34,0-4.44-.38,2.56-5.07.73-16.93,4.53-6.76.31-.88,1.16-3.15,2.25-2.95,0,3.73,10.93,1.38,12.46,3,10.34-4.3,7.2,8.16,18.83,4a21.79,21.79,0,0,1,16.53-4.09c-1.59,6.37,2.77,5.79,8,5.39.1-1.44.71-2.6,2.29-2.65,0-.1,0-.2.07-.3.83,0,1.75-.16,2.33.42.79-.64,1.91-1.8,2.91-1.79a4.94,4.94,0,0,1,.57-.53,4,4,0,0,1,0-.49c-1.3-.12-2.64,0-3.94-.16-.25-1.49.69-3,.61-4.63-.25,0-.4-.22-.66-.27.24-1.61,2-1.86,3.39-1.77-3.83-10.32-13.21-19.66-12-31.75-3.2-2.56-10-.43-13-5.33.87-4.44-3.44-4.44-1.75-9.29,12.73-20.71-8.65-9.29-14-22.84,3.9-15.84,2.39-9.42,13.77-18.42,7.83-9,16.46-25.07,22.23-6.12,5.6,7.2,8.37-3.67,25.61-.75,6.59.75,8-5.91,10.36-9.78,8.72-4.51,4-2.69,7.22-8.81,3.38-11.73,25-2,33.25-39.5,8.49-2.36,16.81-1.39,16.59-12.08-4.24-2.46,3.17-3.06-.12-4.13-.22-1.62,2-1.23,3-1.28,0-.08,0-.15.05-.22,1-.15,1.26-1.57,2.18-1.76,0-.56,0-1.15.09-1.72,5.79-4,12.27-10.57,16.26-14.23a3,3,0,0,0-2.13-.06c0,.22-.11.55-.06.77-.43,0-.88,0-1.32,0a2.91,2.91,0,0,1,0-.51c-3.88-3,6.65-11,1.3-10.7a4.09,4.09,0,0,1,1-.55c-4.66-13.27,6-10,6.38-13.5,2.28-3.62,7.78-1.28,10.63-1.93,5.11-3.4,3.67-12.47-1.89-11.15,0,0,0,0,0,0-.45-2.06-1-1.83-.9-2.29a11.51,11.51,0,0,0-1.57,0c0,.1-.05.2-.08.3a.78.78,0,0,0-.92.88,3.61,3.61,0,0,1-1.39,0c-.06-.3,0-.21-.06-.3a3.52,3.52,0,0,1-.66-.08,4.57,4.57,0,0,1-.56-1.77c-2-.33-4.69-.27-5.44.76a4.66,4.66,0,0,1-.34-2c-1.29-.79,1.66-3.59.66-4.51a2.64,2.64,0,0,1-.3-.07c.1-1.63.83-3.06.78-4.08a3.94,3.94,0,0,0-1.95.49c-.07.57-.05,1.18-.11,1.75-2.41-.08-4-1.12-5.54-1-.05.26-.22.4-.26.66-2.67.43-1.91-2.71-2.84-3.44-4-.67-3.81-2.55-4.4-2.36-.58-1.39-.7-1-1.3-1.53a21,21,0,0,0-6.62-1.21c.17-3-2.6-2.56-3.38-2.8a12.57,12.57,0,0,0,.38-3l-.3-.07a178.4,178.4,0,0,0-.9-30.38l-.49-.07a22.31,22.31,0,0,1-.48-4.65c-.26-5,0-7.1,6.2-5.83,2.37-7.08,3-7.29,8.66-7.25,2.93-3.41,6.74-10,1-9.38-3.46-4.43-10.08-3.44-4.73-9a1,1,0,0,1,.76-1.07,4,4,0,0,0,0-1.38c-4.41-.85-8.91-1.65-11.71-3.94-5.23-2.92-3.11-4.59-5.07-7.37-3.36-.18-4.32-1-6.65-.41l-.06-.3c-1.44.05-2.1,1.17-2.87,1.14-.24-1.91-2.33-1.45-2-2.72-1.2,0-1.57,0-1.76-.13.25-1.65,1.1-3.59.18-4.64a.1.1,0,0,0-.05-.06l-.11-.14c1.34-4.26.93-5.28,4.52-4.43a3.15,3.15,0,0,1,.38-.36c.28-3,4.88-2.44,4.74-5.61.94,0,1.91.06,2.85,0,.26-1.06.58-2.13.86-3.18,1.37,0,1.89-.57,1.87-1.94,5.46-5.15,14.44,1.37,19.95-1.36a8.22,8.22,0,0,0,0-1.57A13.32,13.32,0,0,0,171.54,5V5c-.6-2.48-3.17-1.8-4-2.41,2.28-.54,1.67-.17,3.15-.1,4.41.83,6.58,2.19,9.14,2A13,13,0,0,1,180.13,3c7.63-1.19,15.28-4.53,16.5-2.12,0,0,0,0,0,0,1.1,3.39,5.55-.4,7.22.65l.34.1c.21.16,0,0,.43.49,8.22,2.08,5.89-2.21,7.76,8.14,6.7-2.9,7.76-1,12.47,9.19h0c6.64,7.39,6.9.52,11.25,8.36,1.89,1.2,6,.4,6.53,5-.23,10.3,6.43,4.75,10.2,8.25l7.42,4.14.15-.14,1.31.56c.54.72-.84.81-.9,1.21-1.27.29-4.53,2-4.31,2.84,25,1.53,9.23-3.7,21.72-2,0-.43.27-.78.26-1.21,22.06-10.84,23.49-.15,26.33-7.27,2.4-1.25,4.84-.63,4.49,1.51A55.47,55.47,0,0,0,325,44.56c3.16,5.38,4.5,4.27,6,5.22,2.45,3.91-.57,7.62-.47,11.52-2.4.43-1.62,4.2-1.79,6.1-1.74,2.85-3.43,5.79-3.31,8.61-11.64-.29-2.7,6.87-14.47,6.38l.28.36a0,0,0,0,0,0,0C315,94.16,306.68,90.71,309,95c-5.18,1-9.69-3-12.85.27,1.08,4,3.06,8,3.29,11.07-6.22-1.68-3.84,7.42-1.28,9.2h0c5.51,4.24,11.88-1.4,6.95,8,1.33,5.78,5.13,7.41,5.76,11.67-4.65,1.53-5.75,6.79-7.17,3-11.92,12.37-8.73,4.83-12.76,4.47,0-1.19,0-1.52,0-1.89a10,10,0,0,0-1.57-.45c.18-2.37.68-4.36.64-5.73-.67,0-.44-.05-.66,0-.35.67-1.08.94-1.2,1.72-1.76.45-4.91.42-5.51,2.57-1.31.22-1.88.7-1.61,1.27,3.66,1.56,3.43,5.43,1.52,6.88,2.73,5,3.3,8.61,5.95,14.15,3.77,5.3-3.56,12.93,1.4,12.68-.13,9.06,5.27.31,5.41-1.44.86.16,4,3.74,2.68,4,.6-.14,1.48.26,2.08.13.57,2-.71,4.22,1.62,4.65,1.9,3.81,4.47,6.91,8,7.93,0-.1.05-.2.07-.3a5.11,5.11,0,0,1,5.94-.21c1.81,4.44,7.13,4.48,9.25,7.66-2.53,8.6,11.36,3.94,15.33,13,11.26,4.16.84,4.16-.81,9.7-5.11-.6-3.29,5.81-7.88,5.91-1.85,3.8,1.7,4-4.09,10.31-.56,1.54.28,3.38.79,4.85.76.12.85.79.62,1.47-.58,0-1.18,0-1.76,0a2.76,2.76,0,0,0-.26.83c-6.92,13.74-11.7,9.64,2.6,19.26-.1-8.29,6,3.4,9.92,2.48-.08.35.11.86,0,1.22,9.35,2.37,9.25,3.58,11.67,9.89,0-.1.05-.2.07-.3,2.93,0,5.33,3.75,7.46,4.17-.07.29.1.74,0,1,4.37,2.34,4.72,1.06,7,4,9-4.61,11.6,8.12,22,4.61,1.52,2.33,1.19,5.23,1.16,6.32,1.37.12,5.29-.58,5.42,1.23,6.89-1.33,6.15,1.86,9.63,4.22,1.63-1.06,3.3-2.54,3.43-3.65,6.81-.22,14.59,4.76,18.73-1.15,9.73,3,1.44,4.82,14.7,5.36-.42,19.52,3.58,3.64,10.94,14.24,5.59-1.12,3.44,6.71,10.22,2.62,1.58-2.27,5.27-3.14,7.15-2.65.09,2.26-.2,4.56-.12,6.82,9.93,4,3.05-3,15.18.76,3.81-.65,9.61,3.34,12,5.37.1-.36.36-.48.45-.83,3.84.29,6.59-3.34,8.42-4.68a13.86,13.86,0,0,1,1,5.22,8.09,8.09,0,0,1,2.84.31c0,.19.06.47,0,.67,2.55,1.06,3.33,2.09,4.05-.51,3.83-1.47,8.43,0,12.66-1.78,0-.38.3-.6.26-1,1.3.52,3.1,3.76,4,3.49,1.65-3.21.65-4.09,2-5.88a8.57,8.57,0,0,0,0,.87c4,.75,1.63-5.25,4.35-5.87-.72-2.88-3.61-6-2.63-8.48-5.85-4.19-1.38-2.63-4.1-7.74,3.27-16.24,7.19-17,4.15-21.77.66,0,1.35,0,2,0,1.64.31,5.25-2.76,5.16-.87.83,1.08,1.77-2.23,2-2.3.77.08,1.11,1.06,1.84,1,0-.57,0-1.16.09-1.73h1.18c0-.33.09-.71.07-1,12,3.77,3.29,5.9,7.68,6.85.26,2.89-2.17,3.22-.25,4.34-.08,2.62-1.9,3.88-2.05,5.61-.22-.06-.56.07-.78,0a3.17,3.17,0,0,0,.12,1.05l.22,0c-.27,3.82,4.48,5.94,2.4,8.67-6.07,4.66,4.74,10.93,7.46,12.95,7.43-2.23,7.55.52,11.53,1.18-.47.59-1.34,1.19-1.1,2.08,6.76-1.5,22.56-1.81,21.91-7,11.69,1.75,18.16,5.78,29.33,3.39.05-2.34,3.31-2.05,4-1.89,0,.57,0,1.15,0,1.72,4.43-.19,10.42-4.35,9.83-.45,1.4-1.66.43-4.07,2.75-3,0,.15,0,.36,0,.5,5.06.65,3.39-3.59,3-5.85-5-1.3-2.13-5.68-.46-7.25-.88-8.3-9.27-3.49-9.46-3.09-2.16-2.8-4.76-4.52-5.23-7.43,1.48-.39,1.22-2.9,1.31-3.36a31.55,31.55,0,0,1,9.25,1c2.35-2.31,3.86-3.39,6.42-3.11q0-.66,0-1.32l-.24-.13h0a3.39,3.39,0,0,1,1.61.17c.48,1.14.51,1.19.83,1.1l.17-.17c1.1-1.28,2.6-.62,4.86-1.1.3-2.72,9.43-4,3.22-6.83,2.19-7.05,10.5-2.88,14.06-18.29.28.38,15.32-2.57,17.11-7.62,2.42-.87,3.7-.74,3-4.05,4.59.34,2.26-3.5,7.79-7.49,1.3-2,6.16.62,6.21-4.32,7.83,2.32,4.48,5,14.57,4,2.35.71,9.69,5.71,9-1.09.47,0,0,0,1.46,0-1.94-5.69,9.62-5.75,12.35-11.55,2.46,2.12,3.56,6.85,8.37,6,1.31,2.41-3.14,2.3-3.69,5.42-.12-.06-.53.07-.91,0-.16.33-.32.57-.86,1.57.78.08,1.5.28,2.26.36.26,10.35.86-3.23,7.12-1.57,1.1,10.31,10,2.16-1.29,14.75-.25.46-.75,2.48.15,3,.24,1.27-2.14,1.32-1.81,3,1.35.37.58-.26,3.62.64,1.8-5.8,5.94-4.18,11.74-2.14,1.43-.81,2.43-.07,4.37.6,2-1.62,5-1.53,7.33,1,2.5,1.94,1.87,4.85,4.15,7.91l-.36,0a11,11,0,0,0-.28,3.89c-1.3.49-1.64-1.38-5.16.86.28,1.78-2.37,3.38-3.71,5.15-.83.2-1,.49-1.82,2-4.46,5.44,5.07,9.64,7.1,15.12-2.16,2.83-3.75-.63-7.68-1.14.57-6.12-4.85-2.72-7.56-4.78-2.25,5-9.37,2.2-13.73,7-4.12,8.4-12.53,8.94-16.7,17.27-3.68-.66-12,6.2-5.39,16.73.9,2.68-3.56,4.14-2.78,7.31,2.06,3.8-1.53,3-3.13,7.33.28.09-1.39,5-4.86,5.32,0,4.95-1.11,5.29-2.19,8.58-.28.87,2.3,4.26,4.48,4.21a16.17,16.17,0,0,1-5.41,10.26c-6.06,5.17-4.9,15.26-10.43,23-.33-2.25-6.53-5.86-7.93-1.94-1.51-2.25-8.1-5-7-1.32.92,2.91-1.31-1.44-3.74-2.51-1.75-.77-3.17,1.53-3.89,2-3.46.46,16.65,36.95-2.84,35.55,0,.67-.11,4.38,2.09,3.33-.18,4.47-.73,10,2.78,14.42-2.51,13.21-1.68-2.26-7.48,12.3-2.64,2.91-8.15-11.49-7.86-2.54.27.92-2,2.11-2,0-3.09-15.29-.71-10.41-8.63-29.24-.15-2.5-.24-27.84-6.29-16.94-2.09-4.7-2.84,5-7.06-1.56-.91,2.31.09,5.08.84,8-5.76,1.77-3.87,6.79-3.93,12.07-6.55,6.66-6.77-1.34-7.61-5.55-3.55-4.79-2.05,5.51-3.07,5.43-3.47-1.33.16-2.85-3.16-11.79-3.29-5.48-1.74-8.62-.6-15,1.26,0,.44-.49,3.12-1.05a5.14,5.14,0,0,1,.22-1.85c2-.4,5.69,2.37,7-3.44.55.57.88,1.59,1.89,1.32.07-2.43,2.82-2.32,4.24.29,1.1-2.5.15-4.65,2.37-7.7.81.59,2.55,2.62,2.77-.5l.3,0c3-4.41,6.22-9,4.44-14.94,7.76,4.46,9.09-.84,4.21-1.57.46-2.79-1.57-3.92-4.81-3.39-4.8-6.64-14.25-.07-20.24-2.14-53.11-.62-49.5-.62-47.94-22.94-6.45-19.64-3.35,9.09-18.6-3.8-2.54-2.38-.92-6.53-4.13-8.92a5.31,5.31,0,0,0-3,.28c.08,2.56,1.62,2.29,3.26,5.63-1.62,1.05-5.11-3.34-5.09.65a15.11,15.11,0,0,1-.53-1.64c-1.51-.13-.42,2.21-1.46,2.68a10.44,10.44,0,0,1-.31,2.3,10.84,10.84,0,0,1-.09-3,6.88,6.88,0,0,1-2.13.07c.24-1.83,1.68-2,1.17-5.16-1-.09-1.91-.14-2.85-.32a9.07,9.07,0,0,0,.54-1.37c-.82-.07-1.68-.05-2.5-.12.05-.44-.07-1,0-1.4-1,.14-3.12-1.22-3-2.24a3,3,0,0,0-1.2-.26,4.59,4.59,0,0,0-.17-1.28c-.82,1.54-.81,6,2.9,5.93.16.79.66,1.5.49,2.31-1.52.3-10.68,6.71-7.89,10.29-2.43.41-1.81,4.57-1.74,6.48,7.82-2.7,9.9,14.6,17.72,7.2,1.07,1.52,2.29,8.83,6.07,4.68-.8,8.12-2.33,3.8-5,5.61a37.76,37.76,0,0,0-8.85.37c-.35,1.86.6,2.87.36,4.66-2.11,0-1.7.58-1.88,2.49-.76,0-1.54,0-2.3,0-.23,1,.26,1.48,1,2-2.24.5-2.09-3.32-5.72-2.08,1.15,6.3-7.52,6.76,3.07,14.87,1.12.15,2.33.76,2.13,2.05,25.11,4.14,4.38,12.74,6.86,22.61,10.42,2.54,2.07,8.83,5.76,12.11,2-1.55,4.38-1.5,6.75-.17-1.14-.34-1.59.67-1.84,1.55-1.79.75-1.19,4-1.67,5.43,1.13.85,3,1.9,2.31,5.08-.8,2.44,2.31,17.07,6,19.38l-1.27.65c-2.59-2.32-4.74-6.48-8-1l-3.38,2c-.44,0,.1,0-2.11,0-.18,1.69-1.37,3.06-.62,5.72-1.31,0-2.13.19-2.17,2.13a3.66,3.66,0,0,1-1,0c-1.07-7.8-7.82,13.31-6-9.28L539,454c.65.94.62,2.27.36,4.23-4.36,1.63-8.13,6.25-11,11.2-3.14.77-6.73,2.13-8.31,5.67-6-2.29-12.79,1.5-16.35,7.71-5.13,7,8.52,15.54-.82,15.48-1.19.3-1.41,1-1.65,3.07a36.12,36.12,0,0,1,7.29-3c-1.55,5.57-9.82,6.41-9.81,10.91.55,0,1-.1,1.58-.08,1.53,5.41-7.16,4.74-9.11,8.39-5.94,10.93-21.24,9.49-31.77,16a15.59,15.59,0,0,1,0-1.93c16.67-8.25-7-8.89-7.11,3.34l.67.32c1.26-.44,2.3-1.52,3.2-3.68.45.15.9.36,1.36.52-.51.67-1.79.91-2,1.88.68-.19,1.69.18,2-.61.5.08.52.5,1.06.52,0,.23.55.13.49.36-9.65,4.64-17.35,18-27.29,30.43a1.33,1.33,0,0,0-1.12,1.06,11.33,11.33,0,0,0-6.9,7.06c-8.42,6.15-19.52,10.63-25.59,20.38-3.09,3.49-34.53,15.82-26.38,23.34.65-1.09.51-2.65.47-3.92l-.49-.07a2.57,2.57,0,0,1,0-1.17c3.19-.06,0,11.31-.85,12,0-.74,0-1.51,0-2.26-.14,4-11.57,8.84-16.2,9.25,0-.85.37-2.32-.66-2.49-.07.74,0,1.53-.13,2.27,0-.15-.12-.45-.15-.65-1.75-1.13-9.62-4.68-11.77-2.17,1.53.28,4.7-.83,6,1.61-9.78,1.77-3.26.49-9.42,7.39.68,3.31-6.6,5.43-4.56,8.74-.6.15-1.07,0-1.29-.52a6.58,6.58,0,0,1-.05,1.18,2.51,2.51,0,0,1-.67,0,4,4,0,0,0,0-.49c-1.36.22-1-1.28-1.51-2-.12,1,.1,3.7-1.38,3.54-.09-.78.28-1.34.18-2.12-1,.19-1,1.1-1,1.92-1.86-.79-.23-2.08-1.31-5.23-2-.17-4.31-.46-5.95.58,0,.16,0,.31-.07.47-3.93,1.14-7.88,2.77-9.14,8.28-14.24,20.17,3,22.06-5.15,38.6-1,0-2.22-.21-1.77,1.23a1.19,1.19,0,0,1,1.58-.64c1,6.52,3.55,17.84,2.64,24-1.75-3.19-2.44-7.75-3.81-12a1.59,1.59,0,0,0-.78,0c-1.27,2.32,1.91,7.89.33,8.28.06.9,1.1,1.74,1.3,2.71,7.6.46,2.31,34.07-4.92,30.45,3.08,1.54-1.5,6-5.32,12.34-1.62-3.42-.55,1.26-3.54,15.63.64,8.41,5.26,40.27.14,40.27,2.64,0-2.26-2.33-7.76-2a4.82,4.82,0,0,1,.59,1.54c-1.73-.23-8.92-2.43-9.25,3.25-1-.16-1.09,2.8-1.07,3.5,3.55.15-4,4-4.29,6.86-5.2,6.81-11.32,12,.43,17.07-2.86,1.38-7.88-1.47-11.45,1.56a6.53,6.53,0,0,0-2,.52c0,.18-.08.45-.06.61-11.84,2.44-15.2,1.47-18.47,16.54-.82,0-3.24-.58-3.35.63a14.41,14.41,0,0,0,2,.06c3.41-1.86.41,8.5-6.21,9.1-2.81.06-1.74,2.74-5.69,4-1.26.77-3.75-1-4.37,1.75-10.51,3.93-24.05-14.84-29.05-23.43a5,5,0,0,1,1.17.26c.29-1.87-2.7-.06-3.33-2.9.29.13,1.58.75,1.66.33l-.42-.49c-.08,0-.13-.12-.5-.51.29-.3.11.18,2.05-1-1.51-1.85-1.61-1.64-3.76-.24a3,3,0,0,0-.67-1.66c.64-.39.57-2.6-1.09-5.72l-.41,0a13.94,13.94,0,0,1,1,4.47c-3.62-8.68-4-17.77-6.34-28.3.76.63,2,4.08,3.4,9.83-.76,2.56-1.76,4.25,4.11,4.71.26-1-.37-1.91-1.62-2.67a2.28,2.28,0,0,1-.13.7c-.29,0-.59,0-.86,0,1.06-6.64-2.63-10.46-5.79-17.53a.9.9,0,0,1,.39-.18c.2-.18-.2-.61.13-1.32a1.1,1.1,0,0,1,0,.36c.67,0,.09.17,1.61.6l0-.4c-.62-.25-.54-2-1.9-3.41a5,5,0,0,0,.06,1.72,4,4,0,0,0-1,0,38.1,38.1,0,0,0-2.23-8c.28.08-.07,0,1.44.07-.58-.43-1-3.27-2.46-2-.48,0-.71-3.21-2.27-4.07,0-.22-.07-.19-.24-1.09a2,2,0,0,1,1,.2l.26-.3a1.09,1.09,0,0,1-.27-.8c.3-.08,1-1.15-.44-1.73a6.11,6.11,0,0,1-.4-.56s-.1.28-.34,1.15l-.18,0,0,.05c-.05-3.83-3.9-10.09-1.79-14.13a9.86,9.86,0,0,0-1.83,0v0c-.45-.23.5-1-1.19-4.19.28,0,.42,0,1.49,0-1.32-1.49-4.87-2.89-5.69-6.72.24,0,.15,0,.84,0,0-.19.15-.12,0-.85-.5.81-1.12-3-4-6.66-.36-.29-2.84-.46-4.87-4.45a15.42,15.42,0,0,0,1.87,0c-.24-.25-1.63-1-3.12-2,1.05-.67-.84-1.52-2.59-1.2-.49-9.3-9.27-21.84-9-31.45-3.49-1.13-.79-6.68-3.27-11,0-1.81-4.49-2.36-.32-3.25,1.48-2.1-2.32-6.67.38-8.33.1-.83-.14-1.56-1.88-1.51.6-3.43-1.28-8.29-4.93-11,.2-.74,2.22-3.67.09-4.67,0-.07,0-.06,0-.32l.27,0c.55-2.32-2.94-2.36-.93-6.87-5.75-1.44,2.69-4.17-10-9.69-.07-1,1-.94,3.33-.82-2.28-2.32-2.91-5.66-5.59-9.33l.31-.06c.23-2.43-.94-5-2.53-7.68.72-.21,1,0,2.93-.09-.29-.92-7.17-1.5-1.79-2.37v-.4c-7.72-1-3.66-10.71-11.77-17.9,2.34-.71-.31-3.8-1.86-26.85.06-.31,1,.69,1.21-1.29a10.25,10.25,0,0,1-1.17-.3c-.12-.77,1.21-3-.31-3.8.08-.13-.36-1,.87-1,.19-.39.34-1.64-1.3-2-.4-1.28.44-1.46.91-3.21-.39,0,0,0-1.53-.08,1.07-1.47.59-4.92-.38-7.31a7.12,7.12,0,0,0,1.77-1c-.41-.37-.54-.48-1.92-.64,1.87-2.48-3.81-9.89-.84-11.13,0,0,0,.06-.11-.4-1.14.13-1.49-1.19-1.63-3.12a1.79,1.79,0,0,1-.73-.24,5.08,5.08,0,0,0,1-2.76c-.29-.45-1.83-.36-1.89-2.1,1,0,2.37-.22,3,.82l.4,0c.25-.43-.28,0,.32-2.56-.6-.12-1-.22-1.75.77a9.18,9.18,0,0,1-1.06,0,4.56,4.56,0,0,0,.2-2.27c-.36-.06-.21-.08-1.19-.46a14.74,14.74,0,0,1,.25-4.27h.32a2.34,2.34,0,0,0,.08.48c.31,0,.07.19,1.55,0-.66-.7-6-9-1.39-9.37,0,.11,0,0,.05.5,1,0,2.38.48,3.78-.43-.78,0-.27-1.53-3.16-1.2a2.71,2.71,0,0,1,0-1c-1.34,0-.13-3.91,3.09-3.27.3-1.3.49-.91-.16-4.66-1.06,0-1.23.37-1.38,3.32-.47,0,0,0-2.51,0-.25,1-.12.83-1.38,3.17a1.46,1.46,0,0,1,0-2.37c.5-.47-.69-.29.26-2,.06-.76,0,0,0-2-1.73-4.79-1.27-3.68,3.82-5.13a37.21,37.21,0,0,0-4.16-.25c.92-1.4-3-3.88,3-6.06-.18.14-3.5-4.09-3.08.28a7.5,7.5,0,0,1-1.35,0c-.46-.76,2.09-4.87-.06-5.63a31,31,0,0,1,.65-3.66,8.2,8.2,0,0,0,1.19-.26c.51-.65-2-1.76-1.16-3.75a3.75,3.75,0,0,1,1.1,0c.12.52,0,0,1.38,2-4.15-9.19,6.68-11.37,6.32-23.51.72-.27,2.2-.17,2.15-1.9-1.36-.05-2.77,0-3.36-2.47a16.2,16.2,0,0,1,3.13-.65c0-.71-.18-.12.31-1.9-1.2-.2-.83-.11-3.5,0a3.63,3.63,0,0,0-.45-2.46,4,4,0,0,1,2.07-.35c0-.33.11-.11,0-1.07a28.82,28.82,0,0,0-3.47.05,2.49,2.49,0,0,1,1.74-1.05c.08-.9-1.32-1.09-2.88-1,0-.41,0-.93.88-2l-.12-5.56c.43-1.78,3.26-2.87,4.68-5.62.21,0,.47-.05.68-.05-1.86-.68-2.93,2.18-6,1.67,0-.47-.21-.77-.21-1.22-.38-.15-.43-.34-.67-.55,1.6-.4,3.39-.05,5-.11.67-1.27-4.55-1.41-5.5-1.63.87-9.92.64-4.11,8.61-7.6l.15-.52c-1-.61-4.54-1.19-6.6.42a14.51,14.51,0,0,1-1.61,0c0-1.05.06-3.34,1.12-3.77,0-.47,0-.87-.89-1.61,3-10.86,2.87,4,11.92-4.18h-.49c-5,3.49-10.24-4.62-13.1-.95-.72-.08-1.47-.06-1.78.68.94.1,1.91.05,2.86.13a1.68,1.68,0,0,1,0,.67c-2.6,1.57-3.62,0-5.38-.27-.32,1.18-.52,2.19-1.56,2.79a3.61,3.61,0,0,0,2.28.45c-.29.27-.31.39-.64.57-4.91,5.49.4,8.93-2.33,13,.86,5.48-4,7.52-5.62,11.19l-.48,0c-.06.58,0,1.18-.1,1.75-11.6,7.15-15.26,2.32-17,6.49.33-1,1.45-1,2.36-1-1.11,1.84-5.35.85-5.89,3.05-3.88-.29-5.91,2.33-8.88,1.63-.47.79-1.92.81-2.67,1.69-.92-.69-2.45-1.5-3.53-.94-11.8-2-23.72-12.61-29.54-22.84.39-.19.3-.34.51-.53C21.19,456.73-2.73,430.87,2.08,427c1.5-3.06,1.08-2.64,3.52-2.56-5.56,3.4,2,2.55,3.25,2.11-.7,1.38-3.42,4.09-.32,3.94.19,1.16-1.08.82-1.27,1.72,6.42-3.1,5.55-2.28,8.69-1A2.48,2.48,0,0,0,16,430l-.46-.18a37.92,37.92,0,0,1,4.65-.26c-.1.47.17.86.22,1.22a2.22,2.22,0,0,0,.66-.17c1-1.23,5-4.46,5.36-1.48a2.22,2.22,0,0,0,.85,0c0-.1,0-.2.07-.3.43,0,.8-.23,1.22-.21.12-1.24,2.21-2,2.45-3.31-.56-.06-1.15-.06-1.72-.07,3.54-2.42,6.11.68,9-.16.36-3.62,4.35-5.41,6.17-7.08.13-4.23,2.93-6.4,4.59-8.7-1.26,1-3.16.62-3.06-1.35-1.71-.26-4.2.74-4.07,2.74-1.78.72-3.06-2.33-3.95.44,6.75.61-9.24,4.24-10.27,4.31,0,.17-.05.32-.08.49-4.09,1.64-7.48-1.6-10.09.14a3.93,3.93,0,0,1-1.84.09c-6-3.69-3.22-9.3-9.45-13.18-.36-1.38,0-1.8-.75-2.87,1.35.21-.18-2.11,1.37-2.17,0-.15,0-.35,0-.49-1.17-.42-2.15,1.28-3.12,1.69.2-1.09,1.57-2.27,1.16-3.19-1.06.06.93,1.54-.16,1.53,2.07-3.16,7.93-3.8,5.59-4.05,3-1.18.07-3-.88-2.55-.06-2.11-.1-3.91.6-5l-7-.63"/>
      <polyline class="cls-2" points="701.19 392.89 695.53 390.49 692.13 390.09 690.51 388.92 687.21 389.06 686.39 389.91 684.94 389.29 681.72 386.28 677.47 388.76 676.66 387.01 674.64 387.1 672.26 387.2 670.21 386.39 670.08 383.35 671.05 380.44 671.16 378.64 670.68 375.97 672.43 371.41 672.79 365.79 674.78 365.76 675.65 363.74 676.94 358.84 678.15 358.65 678.41 355.55 682.07 351.25 684.21 352.95 685.36 353.91 687.16 349.97 689.8 347.35 690.07 344.55 691.71 343.55 694.71 343.74 696.36 342.62 698.38 344.5 699.59 344.59 700.45 343.75 702.2 345.24 705.49 345.05 706.6 342.9 708.4 342.25 711.27 339.81 710.17 343.06 710.29 345.92 714.47 348.79 712.71 355.28 717.09 358.77 716.59 361.12 715.74 363.86 714.07 366.55 712.74 369.25 711.3 369.91 709.85 373 707.96 375.32 707.14 374.75 706.97 378.58 705.79 380.88 704.57 385.29 703.88 387.49 701.19 392.89"/>
    </g>
  </g>
</svg>
