<?xml version="1.0" encoding="utf-8"?>
<!-- Generator: Adobe Illustrator 24.1.1, SVG Export Plug-In . SVG Version: 6.00 Build 0)  -->
<svg version="1.1" xmlns="http://www.w3.org/2000/svg" xmlns:xlink="http://www.w3.org/1999/xlink" x="0px" y="0px"
	 viewBox="0 0 1862.1 965.1" style="enable-background:new 0 0 1862.1 965.1;" xml:space="preserve">
<style type="text/css">
	.st0{fill:none;stroke:#FFFFFF;stroke-width:6;stroke-miterlimit:10;}
	.st1{fill:none;stroke:#FFFFFF;stroke-width:5.36;stroke-linejoin:round;}
	.st2{fill:url(#SVGID_1_);stroke:url(#SVGID_2_);stroke-miterlimit:10;}
	.st3{fill:#FFFFFF;}
	.st4{fill:none;stroke:#FFFFFF;stroke-width:5;stroke-miterlimit:10;}
	.st5{stroke:#FFFFFF;stroke-width:5;stroke-miterlimit:10;}
</style>
<g id="Layer_1">
	<g id="bulb">
		<path class="st0" d="M1476.9,692.5c2.9-2.2,4.8-3.8,6.8-5.2c4.8-3.2,5.5-5.8,0.6-10.1c-3.1-2.7-4.5-7.3-6.5-11.2
			c-1.6-3.1-2.9-6.4-4.3-9.6c-3.9-9.3-10.8-18.4-11.2-27.8c-0.9-21.9-9.6-40.2-20.1-58.3c-7-12-13.9-24-21.3-35.8
			c-34.8-55.3-11.3-111.6,20.6-142.9c64.1-63.1,176.4-44.6,214.8,35.8c16.5,34.6,16.8,68.9-2.7,102.8c-12.7,22.1-25.3,44.4-37.2,67
			c-3.3,6.5-5.1,13.7-5.4,21c-0.7,15-3.1,29-14.1,40.3c-1.8,1.8-1.9,5.3-2.5,8c-0.4,1.8,0.4,4.6-0.5,5.3c-8.9,6.6-12.5,13-0.3,19.8
			c-1.5,2.2-2.5,5.2-4.5,6.4c-6.8,4-6.2,7.4,0.2,10.9c6.2,3.4,6.2,6.7,0.1,10.1c-5.9,3.3-6.7,6.5-1.3,11.8c1.7,1.6,1.1,8-0.7,10.4
			c-6.3,8-13.1,15.6-20.4,22.7c-1.7,1.7-4.9,2.6-7.5,2.8c-6.6,0.4-13.2,0.1-19.7,0.1c-33.8,0-34,0.1-55.2-26.1
			c-1.7-2.1-1.4-8.5,0.5-10.5c4.9-5.2,3.8-8.1-1.7-10.9c-5-2.6-7.5-6-1.4-9.4c10.2-5.7,6.6-9.2-1.1-13.1
			C1479.4,696.1,1478.7,694.6,1476.9,692.5z M1535.4,650.6h40.6c17.3-0.1,22.1-5.8,23.9-23.5c1.4-12.9,3.3-26.4,8.6-38
			c10.9-23.9,24.6-46.5,36.4-69.9c16.6-32.7,13-64.6-6.6-94.7c-34.7-53.3-113.5-68.6-169.8-34.1c-40.1,24.6-69.7,79.4-39.4,133.7
			c10.3,18.5,21.8,36.5,30.1,55.9c6.5,15.1,10.1,31.8,12.6,48.2c2.6,16.7,7.3,22.4,23.9,22.3
			C1509.1,650.5,1522.3,650.5,1535.4,650.6L1535.4,650.6z"/>
		<path class="st0" d="M1567,639h-12c-0.6-0.9-0.9-1.9-1.1-2.9c1.2-26.3,1.9-52.6,4-78.8c0.5-6.4,5.1-12.7,8.3-18.8
			c11.1-21.4,22.3-42.7,33.8-63.8c1.3-2.5,4.8-3.8,7.2-5.7c-0.2,2.9,0.4,6.2-0.7,8.7c-11.2,24.2-22.9,48.1-33.8,72.4
			c-3.3,7.3-5.1,15.1-5.5,23C1566.6,594.6,1567,616.1,1567,639z"/>
		<path class="st0" d="M1516.3,639.1h-9.1c-0.7-18.4-2-36.5-1.8-54.6c0.3-15.7-3.4-31.2-10.7-45.1c-10.3-20.1-19.5-40.8-29-61.3
			c-1.3-2.8-1.2-6.3-1.7-9.5c1.2-0.4,2.4-0.7,3.7-1.1c1.9,3.3,3.9,6.5,5.7,9.8c9.5,17.7,17.8,36.1,28.6,52.9
			c11.4,17.9,14.3,37,14.3,57.3V639.1z"/>
		<path class="st0" d="M1493.7,469.9c3.5-8.2,6.2-14.6,10.3-24.4c4.4,9.8,7.4,16.4,10.8,24c3.3-7.5,6.3-14.1,9.2-20.8h2.9
			c2.8,6.7,5.5,13.3,9.1,21.8c3.3-8.4,6-15,8.7-21.7c1-0.1,2.1-0.2,3.1-0.2c3,6.6,6,13.3,9.5,20.9c3.2-7.2,6.1-13.9,9.1-20.5l3-0.3
			c2.8,6.6,5.7,13.2,9.1,21.2c3.4-7.7,6.3-14.4,9.2-21c1-0.1,2-0.1,3-0.2c1.7,5,3.4,10.1,5.9,17.6c-3.6-2.9-5.3-4.2-7.5-5.9
			c-3,6.9-5.9,13.7-8.8,20.5l-3.2,0.3c-2.9-6.6-5.8-13.2-9.3-21.2c-3.2,7.7-6,14.4-8.8,21c-1,0.1-2,0.3-3.1,0.4
			c-2.9-6.6-5.9-13.1-9.5-21.2c-3.3,7.7-6.1,14.3-9,20.8l-3.1,0.3c-2.7-6.4-5.4-12.8-9-21.3c-3.4,8-6.2,14.5-9,21.1
			c-1,0.1-2,0.1-3,0.2c-3-6.6-5.9-13.3-9.4-21.1c-3.1,7.4-5.8,14.1-8.5,20.7c-1.2,0.2-2.3,0.3-3.5,0.5c-2.8-6.6-5.6-13.3-8.8-20.8
			c-2,1.4-3.8,2.7-6.9,5c1.8-6.5,3.3-11.6,4.8-16.7l3.2-0.3C1487.1,455.1,1490.1,461.9,1493.7,469.9z"/>
	</g>
	<g id="cord">
		<path class="st1" d="M2.3,698.6c74.5,121.7,149.1,154.7,202.8,153.8c47.8-0.2,79.4-69,81.1-105.7c0.3-5.5-3.8-113.7,58.5-106.6
			c10.4,1.2,41.5,17.9,39.6,50c-1.2,20.6-11.9,52-43.4,56.6c-27.1,3.9-76.2-47.9-76.4-85.9c-3.8-49.1,33.5-72.1,65.1-72.6
			c106.6-1.9,73.5,115.2,115.3,155.1c10.4,9.9,24.6,21.2,53.5,20.5c98.1-2.3,102.1-84.9,168.8-114.6c23.4-10.4,58.8-7.6,63.9,6.4
			c-14.5-19-46.4-11.4-66.6,1.3C623,683,616.2,732.9,631,746c19.2,17,50.8-14.7,60.8-24.6c35.5-35,125.9-206.3,104.7-220.9
			c-38.7-26.7-65.1,87.7-76,144.4c-6.2,32.1-19.4,90-0.7,107.1c7.5,6.8,19.2,3.4,28.3-1.1c40.2-20.1,131-78.5,106-111.5
			c-18.9-24.7-110.6,74.6-59.2,110.7c21.5,15.2,47.9-6.2,63.3-18.3c20.4-16,63.2-49.1,71.9-86.4c-10.3,32.1,7.9,51.8,0,84.5
			c-5.7,23.5-38.4,35.8-65.2,11.5c9.6,15.7,56.2,16.2,70.8,11.5c30.5-9.7,49.2-72.3,64.9-100.2c-8.7,23-41.8,97.3-22.4,100.2
			c39.2,5.9,78.1-54.8,89.7-65.3c30-27.2,61.3-25,72.3-16.2c-31.4-16.4-70.3,15.4-82.4,26.7c-7.4,7-26.5,35.3-6.3,54.7
			c21.3,20.4,85.1-52.7,95.9-67.5c-8.3,38.3-20.6,248.3-78.2,235.7c-73.6-16,94-205.9,128.3-243.5c-7.4,26.1-15.2,47.4-23.7,75.6
			c21.5-24.7,46.7-92.7,84-74.4c22.8,11.2-9,50.4-8.2,74.2c0.8,22.8,45,14.2,66.8-9.3c24.5-26.4,47.1-46.2,73.5-36.8
			c52.6,18.8,21.7,93.4,84.9,102.8c49.8,7.4,62.9-40.7,68-39.7"/>
	</g>
	<g id="halo">
		
			<radialGradient id="SVGID_1_" cx="1536.2" cy="930.7285" r="229" gradientTransform="matrix(1 0 0 -1 0 1388.5471)" gradientUnits="userSpaceOnUse">
			<stop  offset="0" style="stop-color:#FFFFFF;stop-opacity:0.8"/>
			<stop  offset="0.1" style="stop-color:#FFFDFA;stop-opacity:0.8"/>
			<stop  offset="0.21" style="stop-color:#FFF7EC;stop-opacity:0.8"/>
			<stop  offset="0.33" style="stop-color:#FEEED5;stop-opacity:0.8"/>
			<stop  offset="0.45" style="stop-color:#FDE1B5;stop-opacity:0.8"/>
			<stop  offset="0.58" style="stop-color:#FDD08C;stop-opacity:0.8"/>
			<stop  offset="0.71" style="stop-color:#FCBC5A;stop-opacity:0.8"/>
			<stop  offset="0.78" style="stop-color:#FBB03B;stop-opacity:0.8"/>
			<stop  offset="0.98" style="stop-color:#FBB03B;stop-opacity:0"/>
		</radialGradient>
		
			<radialGradient id="SVGID_2_" cx="1536.2" cy="930.7285" r="229.5" gradientTransform="matrix(1 0 0 -1 0 1388.5471)" gradientUnits="userSpaceOnUse">
			<stop  offset="0" style="stop-color:#FFFFFF;stop-opacity:0.8"/>
			<stop  offset="0.1" style="stop-color:#FFFAF3;stop-opacity:0.71"/>
			<stop  offset="0.27" style="stop-color:#FEEDD3;stop-opacity:0.56"/>
			<stop  offset="0.51" style="stop-color:#FDD89F;stop-opacity:0.35"/>
			<stop  offset="0.79" style="stop-color:#FCBC59;stop-opacity:0.1"/>
			<stop  offset="0.9" style="stop-color:#FBB03B;stop-opacity:0"/>
		</radialGradient>
		<circle class="st2" cx="1536.2" cy="457.8" r="229"/>
	</g>
	<g id="dot">
		<circle class="st3" cx="1014.5" cy="617.5" r="9.4"/>
	</g>
</g>
<g id="art_1_">
	<path id="art" class="st4" d="M203.1,247.5c-28.4,0-60.6,9.8-71.7,16.6c-10.4,6.3-27.1,17.2-38.2,44.5
		c-5.3,13.1-11.5,50.8,13.7,55.2c40.4,7.1,81.2-72.5,81.2-72.5s-23.6,43.7-11.7,62.5c5.7,8.9,23.4,14.8,44.6,0.3s51.9-48.8,76-77.5
		c24.1-28.7,20.2-57.6,14.6-63.2c-8-8-19.4,0.6-21.4,16.1c-2.6,20.2,10,28.6,29.4,31.5c17.5,2.6,28.6-11.4,33.4,2.8
		c4.6,13.5-39.3,63.1-34.9,85.7c2.1,10.4,16.4,22,33,15.9c23.4-8.5,45.5-38.6,62.3-59.6c15.6-19.4,39.2-66.6,59.3-99.8
		c10.7-17.7,40.8-74.7,21.9-83.6c-13.8-6.5-35.3,30.3-47.1,67.5c-15.7,49.3-29.2,125.3-34.8,150.7c-4.4,20,9.5,37.3,41.7,21.4
		c26.8-13.2,56.2-61.4,56.2-61.4"/>
	<line id="crossed_t" class="st4" x1="406.1" y1="171.7" x2="533.4" y2="171.7"/>
</g>
<g id="plus_sign">
	<line id="horizontal" class="st5" x1="518.4" y1="446.7" x2="632" y2="446.7"/>
	<line id="vertical" class="st5" x1="574.6" y1="390.9" x2="574.6" y2="500.2"/>
</g>
</svg>
