<?xml version="1.0" encoding="utf-8"?>
<!-- Generator: Adobe Illustrator 24.1.3, SVG Export Plug-In . SVG Version: 6.00 Build 0)  -->
<svg version="1.1" id="Layer_1" xmlns="http://www.w3.org/2000/svg" xmlns:xlink="http://www.w3.org/1999/xlink" x="0px" y="0px"
	 viewBox="0 0 568 168" style="enable-background:new 0 0 568 168;" xml:space="preserve">
<style type="text/css">
	.st0{enable-background:new    ;}
	.st1{fill:#3E0C27;}
</style>
<g class="st0">
	<path class="st1" d="M51,103.6c-6.6,3.4-14.2,3.6-21.2,6c-3.2,1.1-6.4,2.7-9.4,4.4c-1.8,0.9-3.2,1.6-4.5,3.2
		c-0.2,0.3-2.5,2.8-2.4,2.5c-0.7,0.7-1.6,1.5-2.4,2c0.6-0.2,2.2-1.3,2.4-1.1c0.2,1.5-3.2,2.6-4.4,2.8c-2.5,0.3-5.5-0.3-6.3-3
		c-1.1-3.7,1.9-7.8,4.3-10.2c1.1-1.1,2.4-2,3.8-2.6c1.7-0.8,3.8-0.8,4.5-2.6c0,0.1,0.1-2.6,0.7-2.9c0.1,0-0.4,2.4-0.4,2.4
		c0.3-0.9,0.4-1.8,0.8-2.8c-0.1,0.1-0.2,0.1-0.3,0c-0.6-1.5,1.2-5.5,1.6-6.9c0.6-2.1,1.2-4.1,1.7-6.3c1-3.8,1.6-7.4,2-11.3
		c0.4-4.3,1.7-8.4,2.8-12.4c0.2-0.6,2.1-7.7,2.7-7.7c0.1,0-0.3,1.6-0.2,1.7c0.7-2.2,1.2-4.5,1.9-6.6c-0.1,0.1-0.9,1.8-0.9,1.6
		c-0.2-1.2,1-3.2,1.5-4.5l1.6-4.7c1.1-3.1,2.4-6.3,4.3-9.2c2.5-3.6,5.9-6.5,10.4-6.7c3.1-0.2,6.4,0.9,9,2.4c4.7,2.6,6.5,6,6.8,10.9
		c0.3,5.9-3.7,14.3-8.4,17.9c-1.8,1.3-4.3,2.5-6.5,2.2c-1.5-0.1-3.2-0.9-2.4-2.6c0,0,0.2-0.1,0.3-0.3h-0.1c0-0.1,3.9-8.3,4.4-8.2
		c0.1,0-1.3,3.6-1.3,3.8c1.7-3.5,3.1-7.2,4.3-10.9c0.6-1.9,2.2-6.5,0.9-8.5c-1.5-2.1-4.7,0.3-6,1.6c-3.1,3.1-5,7.6-6.7,11.6
		c1.9-4.4,4.8-11.5,9.7-13.3c4.6-1.7,2.7,4.7,2.2,6.3c0.3-1.2,1.2-5.8-0.6-6.4c-2.1-0.6-4.6,2.5-5.6,3.8c-4.6,5.9-7.2,13.8-9.5,20.8
		c-4.8,14.6-7.6,29.7-13.2,43.9c7.4-2.2,15.1-4.1,22.8-4.6c2.6-0.1,5.3,0,7.7,0.2C57.1,99.7,52.6,102.8,51,103.6z M11.2,121.7
		c-0.1,0-0.1,0.1-0.1,0.1L11.2,121.7z M26.1,62.1c0.9-2.9,1.9-5.6,3-8.3c3.5-7.6,6.6-19.9,15.6-22.2c-3.6,0.8-6.3,2.8-8.6,6
		c-2.9,3.9-4.9,8.2-6.5,12.8C28.3,54.4,27.1,58.2,26.1,62.1z M35.5,59.1c-0.9,2.7-1.8,5.3-2.6,8l2.6-7.7V59.1v0.1V59.1z"/>
	<path class="st1" d="M82.5,92.5c-1.9,2.8-3.7,5.5-5.8,8.2c-2.2,3-5,7.8-9,8.7c-0.9,0.1-5.2-1-5-1.7h0.2c-0.9-0.4,0,0.6-1.3-0.4
		c-1-0.7-1.7-1.7-2.4-2.7c-1.2-1.7-2.8-3.1-3.2-5.2c-0.1-0.6-0.3-4.6,0.6-4.6c0.2,0,0,0.6,0.1,0.6l0.3-2c-0.1,0.2-0.1,0.3-0.3,0.4
		c-0.4-0.1,1.7-8.1,1.9-8.7c0.9-2.4,1.3-5,3.6-6.4c1.7-1.1,3.8-0.9,5.9,0c0.9,0.3,3.5,1.5,3.5,2.6c0,0.7-0.6,0.8-0.9,1.1
		c0.1-0.1,0.3-0.1,0.4-0.1c0.3,0.2-1.3,2.6-1.6,2.5c-0.2,0,0.1-0.6,0.2-0.9c-2.1,3.5-3.9,7.4-5.3,11.3c0.6-1.5,3.4-7.7,3.7-7.6
		c0.3,0.1-7.4,13.6-3.6,15.5c1.8,0.9,4.8-1.9,6-2.9c2.1-1.7,5-3.8,6.6-5.7c-0.2,0.2-0.4,0.2-0.8,0.2c-0.4-0.6,5.2-8,6.2-8.6
		c0.8-0.6,2.4-1,2.6,0.4C85.7,88.6,83.7,91,82.5,92.5z M63.5,98.9l-0.2,0.9l0.2-0.7V99C63.6,98.8,63.6,98.8,63.5,98.9z M65,71.2
		c-0.1-0.3-0.4-3.8,0.8-3.2c0-0.3,1.3-2,0.7-0.6c1-1.3,1.9-2.9,2.7-4.6l-1.3,2c1-2,2.6-6.2,2.7-6.9c0-0.1-0.2-1.1,0-1.3
		c-2.4-0.9-0.7-2.2,0.3-3c-0.2,0-0.3,0-0.4-0.2c-0.4-0.4,0.9-0.8,1.2-0.9c1.6-0.7,3.6-0.3,5,0.4c1.2,0.8,2.4,2.5,2.8,3.8
		c0.4,1.5-0.7,3.1-1.7,4c-0.4,0.4-1.2,0.8-1.8,1.2c-0.7,0.8-0.6,1.8-1.1,2.6c-0.3,0.6-1,0.8-1.3,1.3c-0.4,0.3-0.4,0.7-0.1,1
		c-0.4,0.2-0.8,0.4-1.1,0.8c-1.1,1.8-1.8,2.8-3.1,3.8c1.2-0.8,2-1.5,3.1-2.9c0.9-1.1,1.9-1.9,3.2-2.5c-1.1,1.2-1.3,2.7-2.7,3.6
		c-1.3,0.8-0.1-0.8-1.6,0.6c0,0,0.7-0.1,0.3,0.1c-1,0.9-2,2.4-3.4,2.9c-0.7,0.2-1.1,0.7-1.9,0.3c-0.8-0.4-0.4-0.9-0.7-1.2
		C65.6,72.3,65,71.3,65,71.2z M65.9,68c0.1,0,0.1,0.1,0.1,0.1c0.1-0.1,0.1-0.1,0.1-0.2C66,68,66,68,65.9,68z M67.6,65.1
		c-0.2,0.4-0.4,0.7-0.4,0.7L67.6,65.1z"/>
	<path class="st1" d="M121.5,87.8c0.4,3.6-5.2,6.5-7.5,8.2c-3.2,2.4-6.5,4.6-10.1,6.5c-0.9,0.4-2.2,0.9-3.1,1.6
		c-1.2,1-1,0.9-0.8,2.7c0.3,2,0.6,4,0.6,6.2c0.1,3.1-0.2,6.3-1.3,9.3c-2.7,6.9-8.1,11.4-15.8,11.2c-6.8-0.1-14.1-3.7-12.7-11.1
		c-0.1,0.2-0.4,2.1-0.6,2c-0.8-0.4,0-2.9,0.2-3.5c1.3-4.1,4.9-7.4,8.3-10c1.9-1.5,3.8-2.9,5.7-4.1c1.5-0.9,4.8-2.2,5-3.8
		c0.3-1.6-1.1-4.9-1.6-6.6c-0.4-2.1-1.2-4.4-1.5-6.6c-0.1-1.5,0.3-2.4,0-3.7c-0.6-1.8-1.1-3.5-1.2-5.4c-0.1-1.9-0.1-3.8,0.6-5.6
		c0.9-2.7,6.8-8.8,9.9-6c0-0.6,1.5,1.6,1.6,2.2c0,0.4-0.4,4.6-1.1,4.5c0,0,0.2-1,0.3-1.8c-0.6,1.6-1.5,3-1.6,4.7
		c-0.2,1.5,0.1,3.1,0.3,4.5c0-0.2,0-0.4,0.2-0.6c-0.1,0,1.1,5.8,2.1,10.5c-0.8-3-1.8-6.6-2.2-8.7c0.9,4.9,2,9.7,3.1,14.6
		c0.1-0.1,0.2-0.3,0.1-0.9c0.1,0.3,0.2,0.6,0.2,0.7c4.9-2.5,9.5-4.8,14.1-7.7c2-1.3,4.1-3.6,6.3-4.6c1.1-0.4,2-0.2,2.4,1.3V87.8z
		 M81.2,126.1l3.1-1.2c0.1,0.1-0.9,0.8-0.9,0.9c1.3-0.8,2.5-1.8,3.5-3l-0.6,0.4c0.9-0.9,3-5.4,3.1-5.8c0.8-2.7,0.8-5.4,0.7-8.1
		c-0.2,0.2-0.6,0.3-0.8,0.4l0.8-0.7l-1.3,0.8c0.7-0.2-1.5,1.5-1.8,1.7l-3.4,2.2c-2.2,1.6-4.7,3.2-6.4,5.5c-1,1.5-3.9,6-1,6.9
		C77.8,126.8,79.6,126.4,81.2,126.1z M96.1,123.7c-3.2,4.6-9,7.3-14.4,7.6c3-0.1,5.8-0.7,8.7-1.9C93.3,128.1,94.9,126.2,96.1,123.7z
		 M97.9,94.5c0.3,1.2,0.6,2.4,0.7,3.1C98.3,97,98.1,95.7,97.9,94.5z M99.9,108.7c0,0.2,0,0.4,0.1,0.6C100,109.2,99.9,109,99.9,108.7
		z"/>
	<path class="st1" d="M158.8,55.9c0.1,1.6-1.8,2.8-3.1,3.1c-1.5,0.4-3.1-0.4-4.5-0.2c-0.8,0.2-0.6,0.6-1.2,0.8
		c-1,0.3-2.2,0.2-3.2,0.2c-1.5,0-4.6-0.8-5.8,0c-0.2,0.1-0.4,0.3-0.7,0.7l0.3-0.7c-0.7,0.1-1.8,3.1-2.6,5.2l1.2-2.5l-1.6,4.3
		c-1.1,2.4-2.1,4.8-3.1,7.2c-2,4.7-3.8,9.3-5.6,14.1c-3,8.7-6,17.9-8.1,27c-0.3,1.6-2.2,8.1-0.1,9c0.3,0.2,2.7-1.1,2.6-1
		c0.6-0.6,1.2-1.1,1.8-1.8c-0.4,0.3-1.7,1.3-1.7,1.1c-0.1-0.7,2.7-2.9,3.1-3.5c1.1-1.1,2.1-2.4,3.1-3.5l6.5-8
		c4-5,7.8-10.2,11.9-15.2c0.9-1.1,2.9-5,4.4-5.4c1.8-0.3,2.1,1.5,1.6,2.9c-1,3-4,5.5-5.6,8.2c-2.8,4.7-6.2,9.1-9.4,13.6
		c-3.6,4.8-7.2,9.6-11.1,14.2c-1.8,2.2-4.1,5.4-6.9,6.7c-2.1,1-4.9-0.2-6.7-1.6c-2-1.3-3.1-3.4-3.6-5.6c-0.1-0.7-0.8-4.3-0.1-5v1.7
		l0.2-2.2c-0.2,0.4-0.2-1-0.2-1.2c0-0.9,0.2-1.9,0.4-2.8c0.2-1.8,0.7-3.5,1.1-5.3c0.8-3.5,1.7-6.9,2.4-10.5
		c0.6-3.6,1.8-6.9,2.9-10.3c0.2-0.6,2.5-7.4,3-7.4c0.1,0-0.2,1.3-0.2,1.5c0.4-1.7,1.1-3.4,1.7-5c-0.2,0.6-0.6,1.1-0.6,0.9
		c0-1.3,1.5-3.7,1.9-4.9l1.3-3.9c1.2-3.6,2.5-7.2,4-10.5c-3.1,0.2-6.2,0-9.1,0.6c-4.3,0.8-9.6,0.3-13.9-0.2
		c-0.6-0.1-3.2-0.2-2.6-1.5c0.2-0.3,2.7-0.9,3.1-1c2.1-0.8,4.4-0.8,6.6-0.9c4.4-0.4,8.6-0.2,13-0.8c1.1-0.1,3,0.2,4-0.2
		c1-0.3,1-1.1,1.5-2.1c0.8-2,1.7-4,2.6-5.9c1-2.1,1.9-4.4,3.2-6.3c0.9-1.2,1.8-1.6,2.5-2.9c1.3-3,2.9-6,5-8.6
		c2.2-2.9,6.2-3.4,9.6-2.7c1.7,0.3,4,1.3,3.2,3.6c-0.3,0.9-1.5,1.5-2.1,2.1c0,0.1,1-1,1-0.6c-0.1,0.8-4.3,6.5-4.6,6.4
		c-0.1,0,1.6-2.8,1.7-3c-4.3,6.3-7.8,13.1-11.2,19.9c0.3,0,0.7-0.4,1.1-1.2c-0.3,0.7-0.6,1.1-0.6,1.2c4.4-0.2,8.8-0.2,13.3-0.4
		c0.9,0,2.6-1.2,2.7,0.3V55.9z M118.7,124.8c0.1,0.1,0.2,0.2,0.3,0.2L118.7,124.8z M152.1,34.3c-9,12.7-14.6,27.7-20.8,41.7
		c-3.7,8.2-6.8,16.7-9.3,25.3c-1.1,3.9-2,7.8-2.8,11.9l0.6-2.1c1.2-5.3,3-10.5,4.9-15.6c4-11.1,7.8-22.5,12.9-33.2
		C142,52.7,146,42.9,152.1,34.3z M133.5,75.1c-1,2.2-1.8,4.5-2.7,6.6c0.9-2,1.8-4,2.6-6.2C133.4,75.5,133.4,75.4,133.5,75.1z
		 M144.6,52l-1.1,2.5C143.8,53.7,144.3,52.8,144.6,52z M147.6,46l-2.7,5.2C146,48.6,147.1,46.1,147.6,46z"/>
	<path class="st1" d="M190.2,88.5l-3.5,4.6l-6,7.8c-1.6,2-3.5,3.9-5,5.9c-1.7,2.2-3.1,4.6-5,6.7c-2,2.1-4.4,4.4-7.1,5.8
		c-1.9,1-3.7,1.1-5.7,0.6c-2.9-0.8-5.5-2.6-7.4-4.8c-0.6-0.7-1.1-1.2-1.2-2.1c-0.1-0.7-0.2-1.5-0.2-2.2c-0.1-1.3,0.3-2.4,0.6-3.7
		c0.2-1.5,0.9-2.8,1.1-4.3c0.2-1.6,0.7-3,0.9-4.5c0.1-1.3-0.1-2.8,0.2-4.1c0.2-0.9,0.9-1.8,1.2-2.8c-0.3,0.7-0.9,1.3-1,1.9
		c-0.3,0.9-0.6,1.8-0.9,2.6c-0.3,0.9-0.4,1.7-0.8,2.6c-0.4,1-0.9,1.9-1,3c-0.1,1,0,2-0.1,3c-0.2,1-0.4,1.8-0.4,2.8
		c0,0.3,0.2,1,0.2,1.2c0,0.4-0.2,1-0.2,1.6c0,1,0.2,2,0.3,3.1c-1.8-3.1-1.5-6.3-0.9-9.6c0.6-3.4,1-6.6,1.8-9.9
		c1.5-6.6,4.5-13.1,8.7-18.4c3.5-4.6,8.1-8.1,14.1-6.9c2.2,0.4,4.7,1.5,6.2,3.4c1.6,2.1,1.5,4.8,0.7,7.3c-1.5,4.4-5.2,7.8-8.6,10.8
		c-1.5,1.2-3,2.5-4.7,3.5c-1.1,0.7-2.4,1.1-3.6,1.6l-1.9,0.7c-0.8,0.2-0.9,0.1-1.2,0.8c-0.6,1.1-0.2,2.2-0.4,3.4
		c-0.2,1.5-0.6,2.8-0.9,4.3c-0.6,2.7-1.5,6.2-0.8,9c1.2,5.7,10.6-3.1,12.3-4.7c1.1-1,2.1-2.1,3.1-3.1c0.6-0.7,1.2-1.2,1.7-1.9
		c0,0,0.2-0.6,0.2-0.8c1.3-2.1,3.1-4.1,4.8-6.2c2-2.4,3.8-4.8,5.7-7.4c1-1.5,3.4-5.6,5.2-2.6v0.1c0.1,0.1,0.1,0.1,0.1,0
		C191.1,87.2,190.7,87.8,190.2,88.5z M161.4,91.2c3.6-1.9,6.8-4.5,9.4-7.5l1.9-2.5c0.3-0.6,0.9-0.9,1.1-1.6c0.1-0.6-0.1-1,0-1.7
		l0.4-2.4c0.1-1.1-0.3-4-2-3.7c-0.8,0.2-1.6,1.2-2,1.8l-2,2.7c-2.4,3.5-3.6,7.3-5.3,10.9c0,0,0,0.1-0.1,0.3
		C162.3,88.7,161.9,89.9,161.4,91.2z"/>
	<path class="st1" d="M223.8,95.6c-2.5,3.1-4.7,6.5-7.4,9.4c-2,2.1-5.4,5.7-8.5,4.7c-0.7-0.2-4.8-2.5-4.7-3l0.3,0.2l-0.7-0.7
		c0.6,0.9-0.7-0.2-0.8-0.2c-0.6-0.6-1-1.5-1.3-2.1c-0.6-1.2-0.7-2.5-0.7-3.7c0-1.2,0.2-2.5,0.3-3.7c0.2-2.6,0.3-4.8,1.1-7.3
		c0.2-0.6,2.6-6.8,3.4-6.6c0.2,0-0.3,0.8-0.2,0.9l1.6-3.1c-0.2,0.2-0.3,0.4-0.6,0.6c-0.1-0.1,1.3-2.7,1.7-3.2c-2.2,2.6-4,5.3-6,8
		c-1.5,1.9-3.2,3.1-4.3,4.9c-2.4,4-5.3,7.7-7.2,11.9l-0.4-0.9c-2,2.5-5-0.4-6.2-2.4c-1-1.8-0.7-3.1-0.4-5.2c0.2-1.8,0.1-3.6,0.7-5.5
		c0.7-2.4,1.6-4.6,2.5-6.9c0.8-2.4,1.6-4.7,2.5-7.1c0.6-1.5,1.7-3.2,2-4.8c0.3-1.2,0-2,1.5-2.9c1.3-0.8,2.8-0.7,4.3-0.4
		c1.8,0.3,5,2.2,3.1,5c-0.8,1-2.1,2.1-3,3.2c-1,1.2-0.9,1.8-1.3,3.2c-0.2,0.9-1.1,1.7-1.6,2.6c-0.7,1.2-1.1,2.8-1.6,4.3
		c-0.2,0.9-0.1,1.6-0.2,2.5c-0.2,2.4-1,4.7-1.2,7.1c0.1-0.4,0.9-1.2,1-1.1c0.1,0.1-1.1,2-1,2l6.6-9.6c-1.5,1.9-2.6,3.2-2.6,3.2
		c-0.3-0.2,13-17.2,14.6-18.7c3.2-3,7.4-2.9,9,2.4c1.8,5.6-4,9.3-6.7,13.3c-1.5,2.2-2.7,4.9-3.8,7.3c-0.8,1.5-2.5,4.7-2.7,7.2
		c0.2-1.7,1.5-3.7,1.9-4.8c0.9-2.4,2.1-4.3,3.9-5.9c-0.8,1.5-1.7,2.8-2.4,4.1l0.6-0.7c0.2,0-1,3.8-1.1,4c-0.4,1.3-0.9,2.8-1,4.3
		c-0.1,0.1,0,1.9,0,1.9l0.1,0.1c0-0.1,0.8-0.2,1-0.3c1.7-0.6,3.4-2.1,4.7-3.2c2.7-2.1,5.3-4.5,7.8-6.7c1.9-1.8,4.4-3.6,5.9-5.5
		c0.7-1,2.2-2.8,2.8-0.1C229.4,90,225.1,93.8,223.8,95.6z"/>
	<path class="st1" d="M262.5,105.3v0.1c-0.6,3.5-0.7,6.6-0.6,10l0.3,0.7c0.1,0.3,0.2,0.9,0.2,1.5c0.7,0.3,1.2,2.2,1.8,2.8
		c1,1,2.2,1.3,3.6,1.5c1,0,2-0.1,2.9-0.3c6.8-1.6,12.4-6.8,16.9-11.8c4.4-4.7,8.3-9.9,11.6-15.3c0.4-0.7,1.3-3.4,2.6-3.2
		c1.3,0.1,0.8,4,0.7,4.8c-1.5,11.4-9.2,21.5-17.7,28.7c-2.9,2.4-6.7,5.6-10.6,5.8c-3.4,0.2-6.9-1.7-9.6-3.4
		c-5.2-3-9.9-7.7-11.8-13.4c-1.5-4.1-0.6-8.6,0-12.9c0.1-0.2-0.2-2.4,0.2-2.9c-0.1,0.2-0.1,2.1-0.1,2.1c0.1-0.8,0.1-1.8,0.3-2.6
		c-0.2,0.2,0-1.6,0-1.7c0.1-1,0.3-1.9,0.6-2.9c0.4-2.1,1.1-4.1,1.8-6.3c1.3-4.3,3.1-8.4,4.5-12.8c1.2-3.9,3-7.6,5-11.3
		c0.6-1,5.2-10.2,6.2-10c0,0-0.8,1.6-0.7,1.7c1.1-1.9,2.2-3.9,3.5-5.8c-0.4,0.4-1,1.1-1,1.1c0.4-1.5,2.2-3.4,3.1-4.6
		c0.8-1.3,1.7-2.6,2.6-3.9c2-2.9,4.3-5.8,6.6-8.5c3.2-3.4,8-8.3,13-8.5c9.1-0.6,14.3,9.1,14.4,16.7v0.1c0,4-1,8.6-3.7,11.6
		c-2.5,2.8-7.4,6-11.2,6.5c-0.9,0.1-2.5,0.4-2.2-0.9c0-0.1,0.3-0.4,0.8-0.8h-0.1c0.7-0.2,4.3-8.5,5-8.4c0,0-1.3,3-1.7,3.8
		c1.9-3.6,3.7-7.2,5.2-11c0.8-2.2,2.4-6.2,1.3-8.5c-1.3-2.9-5.4-0.7-7.2,0.3l-1.6,0.9l0.6-0.2c-0.6,0.3-1,0.7-1.3,1
		c0.6-0.4,1.2-0.9,1.9-1.1c1.5-1,4.9-3.1,6.7-1.8c1.3,1.1,1,2.8,0.4,4.4c0.4-2,0.4-4.1-1.6-4.5c-2-0.3-3.6,1.3-5.2,1.8
		c-5.2,3.4-9.2,8.8-12.5,13.9c-3.8,5.5-7.2,11.4-10.1,17.5c-3.1,6.4-5.5,13-8,19.7c-2.4,6.4-4.7,12.9-5.9,19.5v0.6
		c0,0.1,0,0.1-0.1,0.2l0.1-0.1C262.6,105.2,262.5,105.2,262.5,105.3z M289,40.5c-6.4,6.9-11.8,15.3-15.8,24
		c-3.4,7.2-6.2,14.3-8.5,21.8c1.7-4.8,3.8-9.4,5.9-13.9c3.7-7.6,7.4-15,11.8-22.2C284.1,47.2,286.4,43.7,289,40.5z M296.7,35.2
		c-2.8,2.2-5,5-7.2,7.8c1.3-1.7,2.8-3.5,4.4-5C294.7,37.2,295.7,36,296.7,35.2z M305.2,39.3c0-0.8,0.4-1.8,0.7-2.8
		c-0.1,0.9-0.3,1.7-0.6,2.4C305.3,39,305.3,39.1,305.2,39.3z"/>
	<path class="st1" d="M355.1,88.7c-0.7,2.5-2.1,4.7-3.5,6.9c-3.4,5.4-6.3,11.1-10,16.5c-4,5.8-8.4,11.8-13.6,16.8
		c-4.4,4.1-10.4,7.4-15.7,2.6c-4.7-4.4-4.7-12.2-4.4-18.1c0.4-6.3,2.1-12.3,3.6-18.4c0.1-0.2,0-2.9,0.6-3.7c-0.1,0.2-0.1,1-0.2,1.7
		c0.2-0.8,0.4-1.6,0.8-2.4h-0.3c-0.3-2.2,1.2-5.7,1.9-7.8c0.8-2.6,1.7-5.3,2.6-7.8c1.7-4.8,3.5-9.5,5-14.3c1.5-4.8,3.7-9.4,5.9-13.9
		c1-2.1,2.1-4.3,3.4-6.4c0.3-0.6,2.8-5.4,3.4-5.3l-0.9,1.9l3.6-6.2l-0.1,0.1c0.6-0.9,1.3-2.6,1.9-3.2l2.6-3.5c1.6-1.9,3.5-4.6,6-5.4
		c4.9-1.6,9,3.6,9.6,8l0.1,0.1v0.6c0.7,6.8-3.4,14.9-6.4,20.7c-1.8,3.6-3.7,8-6.5,10.9c-1.9,2.1-2.9,4.4-4.5,6.9
		c-4.3,6.8-8.8,13.7-13.9,19.9c-1.2,1.6-2,2.6-2.6,4.6c-0.7,2.1-1.2,4.3-1.8,6.5c-0.7,2.2-1.2,4.5-1.8,6.7c-0.2,1-1.2,4.1-1.1,4.4
		c-0.3,1.3-0.6,2.8-0.7,4.1l0.9-3.4c0.6,0.9-0.3,4.3-0.4,5.3c-0.2,1.7-0.3,3.5-0.3,5.3c0,2.1,0,6.9,2.8,7.4c3.8,0.4,7.8-5.3,9.7-7.6
		c4.6-5.5,8.4-11.6,12.2-17.7c2-3.1,3.9-6.3,5.8-9.5c1.2-2,2.2-4.8,3.8-6.5C355.4,82.8,355.6,86.9,355.1,88.7z M313.9,95.1
		c-0.4,0-1,2.4-1.3,4.9v-0.1c-0.8,3.9-1.2,8.1-1.5,12.1l0.3-3.6v0.3c0-0.8,0.2-1.5,0.3-2.2c0.7-3.4,0.8-7.6,2.1-10.8
		c0,0,0-0.1,0.1-0.3C314.2,95.3,314.2,95,313.9,95.1z M328.2,75.9c8.3-13.3,17.7-27.3,22.7-42.3c-1.9,5.4-4.7,10.5-7.3,15.5
		c-1.6,2.8-3,5.6-4.7,8.4c-1,1.7-3,4.3-3.7,6c0.9-2.9,3.6-6.3,5.2-9l4.7-8.7c2.7-5.4,6.7-12,6.9-18.3v-0.1c0.2-5.9-4.8,0.8-5.6,2
		c-3.1,5-5.4,10.5-7.6,15.9C334.6,55.3,331.4,66.1,328.2,75.9z M331.8,44.6c-0.1,0.1-0.1,0.3-0.1,0.4c2.5-4.5,5.4-8.7,7.7-13.4
		c-1.1,2-3.1,3.8-4.3,5.9C334,39.9,332.9,42.1,331.8,44.6z"/>
	<path class="st1" d="M388.1,91.4c-0.2,0-1.7,0.4-1.6,0.3c-1.1,0.4-0.9,0.3-1.7,1.3c-0.9,1.3-1.7,2.8-2.5,4.1
		c-0.4,0.4-4.5,6.4-5.3,6c0,0,0.9-1.1,0.8-1.2l-3.2,3.8c0.3-0.3,0.6-0.4,0.6-0.3c-0.7,1.9-4.4,4.1-6,5.4c-1.8,1.3-4,2.6-6.4,2.9
		c-2.2,0.2-4.7-0.2-6.8-1.2c-6.6-3.2-10.5-12.2-6.9-19c1.9-3.6,3.2-7.6,5.9-11.2c1.6-1.9,3.2-3.8,5.4-5.2c0.9-0.7,1.9-1.2,3-1.7
		c0.8-0.4,2.5-0.6,3-1c0.7-0.4,1.3-3.4,1.8-4.3c0.4-0.9,1-1.8,1.6-2.6c1.6-2.2,3.5-4.5,5.8-5.8c3.8-2.1,7.6,0,10.4,2.8
		c0,0,1.9,1.2,1.8,1.9l-0.4-0.4l0.4,0.9l0.1,0.1c-0.3-0.9,1,0.8,1,0.8c0.6,0.9,0.9,1.9,1.1,2.9c0.3,1.6,0.2,3.2,0,4.8
		c-0.4,4.1-1.7,8.4-2.9,12.4c3.4-0.6,6.7-1.3,10-2c0.8-0.2,1.6-0.8,2.1,0c0.1,0.2,0,0.1,0,0.1C402.4,90.3,389.3,91.2,388.1,91.4z
		 M377.5,91.7c-4.9-0.7-11-2.8-12.2-8.4c-0.8,0.9-2.4,3.6-4,6.9l0.7-1c-0.2,1.1-11,20.8-1.7,19.5h0.1
		C368.2,107.3,374.3,98.2,377.5,91.7z M382.9,66.5c-2.2-3.5-6.4,1.6-8.1,3.8c-0.1,0-0.1,0.1-0.1,0.1l-0.1,0.2v-0.1
		c-0.1,0.2-0.2,0.3-0.1,0.3c-0.6,0.8-1.2,1.5-1.9,2.7c0.1-0.1,1.3-2.1,1.5-1.8c0.3,0.7-1.8,4.3-2.1,4.9c-0.7,1.8-1.2,3.6-1.5,5.5
		c-0.2,1.9-0.4,4,1.1,5.4c0.9,0.8,2.4,1,3.6,1.1c0.7,0.1,2.1,0.3,2.8,0.1c1.1-0.2,0.8,0.1,1.3-1c1.7-2.8,2.4-6.9,3.1-10.1
		C383,74.9,384.6,69.4,382.9,66.5z M374.9,70.3l-0.1,0.1C374.7,70.4,374.9,70.4,374.9,70.3z"/>
	<path class="st1" d="M435.9,87.8c0.4,3.6-5.2,6.5-7.5,8.2c-3.2,2.4-6.5,4.6-10.1,6.5c-0.9,0.4-2.2,0.9-3.1,1.6
		c-1.2,1-1,0.9-0.8,2.7c0.3,2,0.6,4,0.6,6.2c0.1,3.1-0.2,6.3-1.3,9.3c-2.7,6.9-8.1,11.4-15.8,11.2c-6.8-0.1-14.1-3.7-12.7-11.1
		c-0.1,0.2-0.4,2.1-0.6,2c-0.8-0.4,0-2.9,0.2-3.5c1.3-4.1,4.9-7.4,8.3-10c1.9-1.5,3.8-2.9,5.7-4.1c1.5-0.9,4.8-2.2,5-3.8
		c0.3-1.6-1.1-4.9-1.6-6.6c-0.4-2.1-1.2-4.4-1.5-6.6c-0.1-1.5,0.3-2.4,0-3.7c-0.6-1.8-1.1-3.5-1.2-5.4s-0.1-3.8,0.6-5.6
		c0.9-2.7,6.8-8.8,9.9-6c0-0.6,1.5,1.6,1.6,2.2c0,0.4-0.4,4.6-1.1,4.5c0,0,0.2-1,0.3-1.8c-0.6,1.6-1.5,3-1.6,4.7
		c-0.2,1.5,0.1,3.1,0.3,4.5c0-0.2,0-0.4,0.2-0.6c-0.1,0,1.1,5.8,2.1,10.5c-0.8-3-1.8-6.6-2.2-8.7c0.9,4.9,2,9.7,3.1,14.6
		c0.1-0.1,0.2-0.3,0.1-0.9c0.1,0.3,0.2,0.6,0.2,0.7c4.9-2.5,9.5-4.8,14.1-7.7c2-1.3,4.1-3.6,6.3-4.6c1.1-0.4,2-0.2,2.4,1.3V87.8z
		 M395.6,126.1l3.1-1.2c0.1,0.1-0.9,0.8-0.9,0.9c1.3-0.8,2.5-1.8,3.5-3l-0.6,0.4c0.9-0.9,3-5.4,3.1-5.8c0.8-2.7,0.8-5.4,0.7-8.1
		c-0.2,0.2-0.6,0.3-0.8,0.4l0.8-0.7l-1.3,0.8c0.7-0.2-1.5,1.5-1.8,1.7l-3.4,2.2c-2.2,1.6-4.7,3.2-6.4,5.5c-1,1.5-3.9,6-1,6.9
		C392.2,126.8,394,126.4,395.6,126.1z M410.5,123.7c-3.2,4.6-9,7.3-14.4,7.6c3-0.1,5.8-0.7,8.7-1.9
		C407.7,128.1,409.2,126.2,410.5,123.7z M412.3,94.5c0.3,1.2,0.6,2.4,0.7,3.1C412.7,97,412.5,95.7,412.3,94.5z M414.3,108.7
		c0,0.2,0,0.4,0.1,0.6C414.4,109.2,414.3,109,414.3,108.7z"/>
	<path class="st1" d="M470.2,88.5l-3.5,4.6l-6,7.8c-1.6,2-3.5,3.9-5,5.9c-1.7,2.2-3.1,4.6-5,6.7c-2,2.1-4.4,4.4-7.1,5.8
		c-1.9,1-3.7,1.1-5.7,0.6c-2.9-0.8-5.5-2.6-7.4-4.8c-0.6-0.7-1.1-1.2-1.2-2.1c-0.1-0.7-0.2-1.5-0.2-2.2c-0.1-1.3,0.3-2.4,0.6-3.7
		c0.2-1.5,0.9-2.8,1.1-4.3c0.2-1.6,0.7-3,0.9-4.5c0.1-1.3-0.1-2.8,0.2-4.1c0.2-0.9,0.9-1.8,1.2-2.8c-0.3,0.7-0.9,1.3-1,1.9
		c-0.3,0.9-0.6,1.8-0.9,2.6c-0.3,0.9-0.4,1.7-0.8,2.6c-0.4,1-0.9,1.9-1,3c-0.1,1,0,2-0.1,3c-0.2,1-0.4,1.8-0.4,2.8
		c0,0.3,0.2,1,0.2,1.2c0,0.4-0.2,1-0.2,1.6c0,1,0.2,2,0.3,3.1c-1.8-3.1-1.5-6.3-0.9-9.6c0.6-3.4,1-6.6,1.8-9.9
		c1.5-6.6,4.5-13.1,8.7-18.4c3.5-4.6,8.1-8.1,14.1-6.9c2.2,0.4,4.7,1.5,6.2,3.4c1.6,2.1,1.5,4.8,0.7,7.3c-1.5,4.4-5.2,7.8-8.6,10.8
		c-1.5,1.2-3,2.5-4.7,3.5c-1.1,0.7-2.4,1.1-3.6,1.6l-1.9,0.7c-0.8,0.2-0.9,0.1-1.2,0.8c-0.6,1.1-0.2,2.2-0.4,3.4
		c-0.2,1.5-0.6,2.8-0.9,4.3c-0.6,2.7-1.5,6.2-0.8,9c1.2,5.7,10.6-3.1,12.3-4.7c1.1-1,2.1-2.1,3.1-3.1c0.6-0.7,1.2-1.2,1.7-1.9
		c0,0,0.2-0.6,0.2-0.8c1.3-2.1,3.1-4.1,4.8-6.2c2-2.4,3.8-4.8,5.7-7.4c1-1.5,3.4-5.6,5.2-2.6v0.1c0.1,0.1,0.1,0.1,0.1,0
		C471.1,87.2,470.7,87.8,470.2,88.5z M441.4,91.2c3.6-1.9,6.8-4.5,9.4-7.5l1.9-2.5c0.3-0.6,0.9-0.9,1.1-1.6c0.1-0.6-0.1-1,0-1.7
		l0.4-2.4c0.1-1.1-0.3-4-2-3.7c-0.8,0.2-1.6,1.2-2,1.8l-2,2.7c-2.4,3.5-3.6,7.3-5.3,10.9c0,0,0,0.1-0.1,0.3
		C442.3,88.7,441.9,89.9,441.4,91.2z"/>
	<path class="st1" d="M509.7,88.7c-0.7,2.5-2.1,4.7-3.5,6.9c-3.4,5.4-6.3,11.1-10,16.5c-4,5.8-8.4,11.8-13.6,16.8
		c-4.4,4.1-10.4,7.4-15.7,2.6c-4.7-4.4-4.7-12.2-4.4-18.1c0.4-6.3,2.1-12.3,3.6-18.4c0.1-0.2,0-2.9,0.6-3.7c-0.1,0.2-0.1,1-0.2,1.7
		c0.2-0.8,0.4-1.6,0.8-2.4H467c-0.3-2.2,1.2-5.7,1.9-7.8c0.8-2.6,1.7-5.3,2.6-7.8c1.7-4.8,3.5-9.5,5-14.3c1.5-4.8,3.7-9.4,5.9-13.9
		c1-2.1,2.1-4.3,3.4-6.4c0.3-0.6,2.8-5.4,3.4-5.3l-0.9,1.9l3.6-6.2l-0.1,0.1c0.6-0.9,1.3-2.6,1.9-3.2l2.6-3.5c1.6-1.9,3.5-4.6,6-5.4
		c4.9-1.6,9,3.6,9.6,8l0.1,0.1v0.6c0.7,6.8-3.4,14.9-6.4,20.7c-1.8,3.6-3.7,8-6.5,10.9c-1.9,2.1-2.9,4.4-4.5,6.9
		c-4.3,6.8-8.8,13.7-13.9,19.9c-1.2,1.6-2,2.6-2.6,4.6c-0.7,2.1-1.2,4.3-1.8,6.5c-0.7,2.2-1.2,4.5-1.8,6.7c-0.2,1-1.2,4.1-1.1,4.4
		c-0.3,1.3-0.6,2.8-0.7,4.1l0.9-3.4c0.6,0.9-0.3,4.3-0.4,5.3c-0.2,1.7-0.3,3.5-0.3,5.3c0,2.1,0,6.9,2.8,7.4c3.8,0.4,7.8-5.3,9.7-7.6
		c4.6-5.5,8.4-11.6,12.2-17.7c2-3.1,3.9-6.3,5.8-9.5c1.2-2,2.2-4.8,3.8-6.5C509.9,82.8,510.1,86.9,509.7,88.7z M468.5,95.1
		c-0.4,0-1,2.4-1.3,4.9v-0.1c-0.8,3.9-1.2,8.1-1.5,12.1l0.3-3.6v0.3c0-0.8,0.2-1.5,0.3-2.2c0.7-3.4,0.8-7.6,2.1-10.8
		c0,0,0-0.1,0.1-0.3C468.7,95.3,468.7,95,468.5,95.1z M482.7,75.9c8.3-13.3,17.7-27.3,22.7-42.3c-1.9,5.4-4.7,10.5-7.3,15.5
		c-1.6,2.8-3,5.6-4.7,8.4c-1,1.7-3,4.3-3.7,6c0.9-2.9,3.6-6.3,5.2-9l4.7-8.7c2.7-5.4,6.7-12,6.9-18.3v-0.1c0.2-5.9-4.8,0.8-5.6,2
		c-3.1,5-5.4,10.5-7.6,15.9C489.2,55.3,486,66.1,482.7,75.9z M486.4,44.6c-0.1,0.1-0.1,0.3-0.1,0.4c2.5-4.5,5.4-8.7,7.7-13.4
		c-1.1,2-3.1,3.8-4.3,5.9C488.5,39.9,487.4,42.1,486.4,44.6z"/>
	<path class="st1" d="M564.2,91.5l-9.7,7.7c-3.5,2.8-6.9,5.7-10.3,8.7c-1.3,1.2-3.6,2.6-4.7,4.1c-1.1,1.6-1.6,4.9-2.2,6.8
		c-4.1,13.1-8.1,26.9-15.2,38.8c-2.2,3.6-4,7.4-8.6,8.5c-5,1.3-10.6-1.2-13.7-5.4c-4.5-5.8,0.4-12.7,4-17.5
		c3.5-4.6,6.9-9.3,10.9-13.4c2.8-2.9,5.8-5.7,8.8-8.5c2.1-2.1,5.8-4.6,7.3-7.3c1.8-3.4,2.5-8,3.7-11.6c0.9-3.1,1.9-6.3,2.9-9.4
		c-1.8,1.3-3.2,3.9-4.9,5.6L525,106c-2.4,2.5-5.2,5-8.4,6.4c-0.7,0.2-4.7,2-4.8,1.9l0.2-0.2l-0.7,0.2c0.8,0-1.3,0.9-1.8,0.9
		c-1.2,0.2-2.6,0-3.6-0.6c-2.1-1.1-3.6-3.9-3.8-6.2c-0.1-0.8,0.3-8,1.5-7.8c0.2,0-0.1,0.7,0.1,0.8c0.1-0.8,0.2-1.7,0.4-2.5l-0.2,0.2
		c-0.6-0.1,3.4-11.3,3.7-12.3c0.9-2.2,1.6-4.7,2.8-6.8c0.4-0.7,1-0.9,1.3-1.6c0.2-0.2,0.6-1,0.9-1.5c1.2-2.6,4.4-4.1,7.1-3
		c1.2,0.4,2.9,2,2.6,3.5c-0.2,0.7-0.8,0.9-1.1,1.3c0.1,0,0.2-0.1,0.3-0.1c0.3,0.1-1.3,3.8-1.7,3.7c-0.2,0,0.1-0.9,0.2-1.3
		c-2.5,5.2-4.8,10.5-6.6,16c0.8-2,4.4-10.9,4.7-10.8c0.3,0.1-10.8,21.6-5.4,23.3c1.9,0.7,5.5-2.9,6.7-3.9c3-2.4,6.8-5,9.3-7.6
		c-0.2,0.1-0.4,0.3-0.8,0.3c0.1,0,5.4-6.4,6.2-7.3c1.9-2.1,5.2-4.6,6-7.4c0.4-1.6,0.7-2.7,3-3.1c2.7-0.4,6.7,0.8,7.3,3.8
		c0.2,1.3-0.3,2.4-1,3.5c-3.4,5.5-6.5,11.5-8.6,17.6c5.2-4.4,10.3-8.7,15.8-12.9c1.9-1.6,3.9-2.9,5.8-4.5c1.1-1,4.6-4.5,4.9-0.9
		C567.7,89.4,565.7,90.4,564.2,91.5z M528.1,122.2c-4.7,4.4-8.8,9-12.8,14c-3.8,4.8-8.3,10.1-10,16.1c-0.7,2.5-0.3,9.9,4.1,8.3
		c2.4-0.8,4-4,5.3-6c1.5-2.5,2.8-5,3.9-7.6c0,0,0.1-0.2,0.1-0.3c0,0,0-0.1,0.1-0.1v-0.1l0.4-0.9v-0.1
		C522.7,137.7,525.4,129.9,528.1,122.2z M524.4,147.5l1-1.8c1.2-2,1.8-4,2.5-6c-0.8,1.3-1.6,2.8-2,4.1
		C525.3,144.9,524.8,146.3,524.4,147.5z M526.5,140.4l-0.4,0.7C526.3,140.9,526.4,140.7,526.5,140.4z M529.6,129.7
		c0.2,1.2-0.7,3-1.1,4c-0.4,0.7-0.7,1.8-0.9,2.8l2-4.9C529.9,131,529.7,130.2,529.6,129.7z"/>
</g>
</svg>
