<svg xmlns="http://www.w3.org/2000/svg" width="893.461" height="189.879" viewBox="0 0 893.461 189.879">
  <defs>
    <style>
      .cls-1 {
        opacity: 0.71;
      }

      .cls-2 {
        fill: #001843;
      }
    </style>
  </defs>
  <g id="Logo" class="cls-1">
    <path id="Path_4" data-name="Path 4" class="cls-2" d="M15.044,92.861H3.033A2.68,2.68,0,0,1,0,89.828V3.033A2.68,2.68,0,0,1,3.033,0H13.864c2.019,0,3.373.673,4.046,2.019L47.08,56.755h.578V3.033Q47.658,0,50.674,0h12q3.04,0,3.04,3.033v86.8c0,2.019-1.006,3.033-3.033,3.033H52.139a4.814,4.814,0,0,1-4.632-2.89L18.631,36.248h-.578v53.58Q18.053,92.861,15.044,92.861Z" transform="translate(0 0.017)"/>
    <path id="Path_5" data-name="Path 5" class="cls-2" d="M114.762,92.856H100.9q-2.6,0-1.734-3.033l22.788-86.8A4.141,4.141,0,0,1,126.314,0h19.209q3.611,0,4.331,3.033l22.819,86.8q.863,3.033-1.734,3.033H157.075a2.819,2.819,0,0,1-2.162-.649,4.885,4.885,0,0,1-.863-2.375L150,73.948H121.84l-4.046,15.883a4.474,4.474,0,0,1-.934,2.375A2.874,2.874,0,0,1,114.762,92.856ZM135.7,17.47l-10.4,41.735h21.378l-10.4-41.735Z" transform="translate(-20.602 0.021)"/>
    <path id="Path_6" data-name="Path 6" class="cls-2" d="M235.02,92.861H222.89q-3.167,0-3.167-3.033V17.475a1.409,1.409,0,0,0-1.584-1.584H201.663c-2.019,0-3.033-1.006-3.033-3.033V3.033q0-3.025,3.033-3.033h54.586q3.04,0,3.04,3.033v9.818c0,2.027-1.013,3.033-3.04,3.033H239.787q-1.734,0-1.734,1.584V89.82C238.053,91.847,237.047,92.861,235.02,92.861Z" transform="translate(-41.358 0.017)"/>
    <path id="Path_7" data-name="Path 7" class="cls-2" d="M297.161,92.857H283.3q-2.6,0-1.734-3.033l22.819-86.8A4.141,4.141,0,0,1,308.713,0h19.209q3.611,0,4.331,3.033l22.819,86.8q.871,3.033-1.734,3.033H339.474a2.811,2.811,0,0,1-2.162-.649,4.878,4.878,0,0,1-.871-2.375L332.4,73.949H304.239l-4.046,15.883a4.474,4.474,0,0,1-.942,2.375A2.85,2.85,0,0,1,297.161,92.857ZM318.1,17.471,307.7,59.206h21.378l-10.4-41.735Z" transform="translate(-58.58 0.02)"/>
    <path id="Path_8" data-name="Path 8" class="cls-2" d="M387.733,69.178v-2.89q0-3.025,3.033-3.033h12.281a2.68,2.68,0,0,1,3.033,3.033v1.156q0,5.487,2.162,7.506t7.918,2.027h6.793q5.63,0,7.87-2.169t2.241-8.084V64.99a7.245,7.245,0,0,0-3.373-6.4,17.91,17.91,0,0,0-8.448-2.668,92.537,92.537,0,0,1-10.9-1.663,70.047,70.047,0,0,1-10.9-3.167,17.068,17.068,0,0,1-8.448-7.657q-3.389-5.709-3.4-14.7v-5.06q0-11.259,6.334-17.475T411.565,0h14.442q11.4,0,17.76,6.208T450.1,23.682V26.43q0,3.025-3.033,3.033H434.812q-3.033,0-3.025-3.033v-.871q0-5.63-2.169-7.649T421.7,15.883h-5.638q-5.915,0-8.013,2.241t-2.09,8.71v2.747q0,6.794,11.837,7.8A73.3,73.3,0,0,1,439.6,42.289a18.52,18.52,0,0,1,8.448,7.728q3.4,5.542,3.4,14.252v4.909q0,11.259-6.334,17.475T427.5,92.861H411.708q-11.259,0-17.617-6.208T387.733,69.178Z" transform="translate(-80.702 0.017)"/>
    <path id="Path_9" data-name="Path 9" class="cls-2" d="M504.313,92.861H492.033q-3.025,0-3.033-3.033V3.033A2.68,2.68,0,0,1,492.033,0h12.281q3.025,0,3.033,3.033V36.968q0,1.584,1.734,1.584h24.4a1.409,1.409,0,0,0,1.584-1.584V3.033Q535.078,0,538.091,0h12.273c2.027,0,3.033,1.013,3.033,3.033v86.8c0,2.019-1.006,3.033-3.033,3.033H538.091c-2.027,0-3.033-1.013-3.033-3.033V56.035a1.409,1.409,0,0,0-1.584-1.584H509.08q-1.734,0-1.734,1.584V89.828A2.68,2.68,0,0,1,504.313,92.861Z" transform="translate(-101.817 0.017)"/>
    <path id="Path_10" data-name="Path 10" class="cls-2" d="M599.522,92.857H585.657q-2.6,0-1.734-3.033l22.819-86.8A4.141,4.141,0,0,1,611.074,0h19.209q3.611,0,4.331,3.033l22.819,86.8q.863,3.033-1.734,3.033H641.835a2.843,2.843,0,0,1-2.169-.649,4.972,4.972,0,0,1-.863-2.375l-4.046-15.883H606.592l-4.038,15.883a4.473,4.473,0,0,1-.942,2.375,2.866,2.866,0,0,1-2.09.649Zm20.935-75.386L610.068,59.206h21.378L621.034,17.471Z" transform="translate(-121.537 0.02)"/>
    <path id="Path_11" data-name="Path 11" class="cls-2" d="M470.508,215.327H450.294a3.238,3.238,0,0,1-3.611-3.033l-15.456-86.8c-.285-2.027.728-3.033,3.033-3.033H449.3c2.217,0,3.373,1.006,3.468,3.033l8.353,71.2h1.013L476,125.064a2.779,2.779,0,0,1,3.033-2.6h16.137q2.747,0,3.167,2.455L512.489,196.7h1.156l8.235-71.055q.143-3.167,3.468-3.167h15.044q3.468,0,3.04,3.167l-15.6,86.653q-.443,3.033-3.326,3.033H504.159a3.167,3.167,0,0,1-3.46-3.033l-13-67.737h-.578l-13.144,67.737C473.588,214.314,472.44,215.327,470.508,215.327Z" transform="translate(-89.778 -25.48)"/>
    <path id="Path_12" data-name="Path 12" class="cls-2" d="M630.949,215.331H614.741q-11.41,0-17.617-6.065t-6.184-17.491V146.01q0-11.41,6.215-17.475t17.586-6.065h16.176q11.4,0,17.617,6.065t6.208,17.475v45.765q0,11.41-6.208,17.475T630.949,215.331Zm-13.286-15.891h10.254c3.08,0,5.273-.641,6.572-1.948s1.948-3.484,1.948-6.572V146.873q0-4.616-1.948-6.572t-6.572-1.948H617.663c-3.088,0-5.25.649-6.5,1.948s-1.877,3.492-1.877,6.572V190.92c0,3.088.625,5.273,1.877,6.572S614.575,199.439,617.663,199.439Z" transform="translate(-123.043 -25.484)"/>
    <path id="Path_13" data-name="Path 13" class="cls-2" d="M687.74,212.3v-8.646q0-4.751,1.877-7.071l38.275-56.47v-.594H693.37a2.68,2.68,0,0,1-3.033-3.033V125.5c0-2.027,1.013-3.033,3.033-3.033h51.276c1.924,0,2.882,1.006,2.882,3.033v12.431a13.048,13.048,0,0,1-2.162,7.514L709.4,197.705v.578h36.683q2.89,0,2.89,2.74V212q0,3.326-2.89,3.326H690.773Q687.74,215.331,687.74,212.3Z" transform="translate(-143.198 -25.484)"/>
    <path id="Path_14" data-name="Path 14" class="cls-2" d="M798.28,215.331H786.293a2.68,2.68,0,0,1-3.033-3.033V125.5c0-2.027,1.013-3.033,3.033-3.033h10.832q3.04,0,4.046,2.019l29.177,54.736h.578V125.5c0-2.027,1.006-3.033,3.033-3.033h11.988c2.019,0,3.033,1.006,3.033,3.033v86.8a2.68,2.68,0,0,1-3.033,3.033H835.4a4.822,4.822,0,0,1-4.624-2.89l-28.884-53.723h-.578V212.3C801.313,214.317,800.307,215.331,798.28,215.331Z" transform="translate(-163.086 -25.484)"/>
    <path id="Path_15" data-name="Path 15" class="cls-2" d="M909.178,125.5v86.8c0,2.019-1.006,3.033-3.033,3.033H893.873c-2.027,0-3.033-1.013-3.033-3.033V125.5c0-2.027,1.006-3.033,3.033-3.033h12.273C908.2,122.47,909.178,123.476,909.178,125.5Z" transform="translate(-185.486 -25.484)"/>
    <path id="Path_16" data-name="Path 16" class="cls-2" d="M946.731,215.327H932.859q-2.589,0-1.726-3.033l22.811-86.8a4.133,4.133,0,0,1,4.331-3.033h19.209c2.375,0,3.848,1.006,4.331,3.033l22.8,86.8q.871,3.033-1.734,3.033H989.021a2.874,2.874,0,0,1-2.169-.649,4.886,4.886,0,0,1-.863-2.375l-4.046-15.891H953.8L949.764,212.3a4.474,4.474,0,0,1-.942,2.375A2.9,2.9,0,0,1,946.731,215.327Zm20.935-75.386-10.4,41.735h21.378l-10.4-41.735Z" transform="translate(-193.831 -25.48)"/>
    <path id="Path_17" data-name="Path 17" class="cls-2" d="M1055.565,215.331h-12.273a2.68,2.68,0,0,1-3.032-3.033V125.5c0-2.027,1.014-3.033,3.032-3.033h12.273c2.027,0,3.032,1.006,3.032,3.033v41.173h.293a47.3,47.3,0,0,1,4.474-8.955l21.956-32.2a6.176,6.176,0,0,1,5.63-3.033h14.157c1.053,0,1.7.309,1.948.934s0,1.425-.792,2.375L1078.828,163.8l30.618,47.951c.673,1.156.792,2.043.356,2.668a3.077,3.077,0,0,1-2.668.942h-10.547q-5.044,0-6.786-3.033l-22.1-35.385-9.1,10.689v24.7C1058.6,214.317,1057.592,215.331,1055.565,215.331Z" transform="translate(-216.598 -25.484)"/>
  </g>
</svg>
