<?xml version="1.0" encoding="utf-8"?>
<!-- Generator: Adobe Illustrator 24.1.3, SVG Export Plug-In . SVG Version: 6.00 Build 0)  -->
<svg version="1.1" id="Layer_1" xmlns="http://www.w3.org/2000/svg" xmlns:xlink="http://www.w3.org/1999/xlink" x="0px" y="0px"
	 viewBox="0 0 316.3 77.6" style="enable-background:new 0 0 316.3 77.6;" xml:space="preserve">
<style type="text/css">
	.st0{opacity:0.71;}
	.st1{fill:none;stroke:#FFFFFF;stroke-miterlimit:10;}
</style>
<g id="Mini-Logo_in_white" class="st0">
	<path id="Path_4" class="st1" d="M17.7,37.1H14c-0.5,0.1-0.9-0.3-1-0.7c0-0.1,0-0.2,0-0.2V9c-0.1-0.5,0.3-0.9,0.7-1
		c0.1,0,0.2,0,0.2,0h3.4c0.5-0.1,1,0.2,1.3,0.6l9.2,17.2H28V9c-0.1-0.5,0.3-0.9,0.7-1c0.1,0,0.2,0,0.2,0h3.8c0.5-0.1,0.9,0.3,1,0.7
		c0,0.1,0,0.2,0,0.2v27.2c0.1,0.5-0.3,0.9-0.7,1c-0.1,0-0.2,0-0.2,0h-3.3c-0.6,0-1.2-0.3-1.5-0.9l-9.1-16.9h-0.2v16.8
		c0.1,0.5-0.2,0.9-0.7,1C17.9,37.2,17.8,37.2,17.7,37.1z"/>
	<path id="Path_5" class="st1" d="M42.5,37.1h-4.4c-0.5,0-0.7-0.3-0.5-1L44.8,9c0.2-0.6,0.7-1,1.4-1h6c0.6-0.1,1.2,0.3,1.4,1
		l7.2,27.2c0.2,0.6,0,1-0.5,1h-4.3c-0.2,0-0.5,0-0.7-0.2c-0.2-0.2-0.2-0.5-0.3-0.7l-1.3-5h-8.8l-1.3,5c0,0.3-0.1,0.5-0.3,0.7
		C43,37.1,42.8,37.2,42.5,37.1z M49.1,13.5l-3.3,13.1h6.7l-3.3-13.1L49.1,13.5z"/>
	<path id="Path_6" class="st1" d="M73.8,37.1H70c-0.7,0-1-0.3-1-1V13.5c0-0.2-0.1-0.5-0.4-0.5c0,0-0.1,0-0.1,0h-5.2
		c-0.5,0.1-0.9-0.3-1-0.7c0-0.1,0-0.2,0-0.2V9c-0.1-0.5,0.3-0.9,0.7-1c0.1,0,0.2,0,0.2,0h17.1c0.5-0.1,0.9,0.3,1,0.7
		c0,0.1,0,0.2,0,0.2V12c0.1,0.5-0.3,0.9-0.7,1c-0.1,0-0.2,0-0.2,0h-5.2c-0.4,0-0.5,0.2-0.5,0.5v22.7c0.1,0.5-0.3,0.9-0.7,1
		C73.9,37.2,73.8,37.2,73.8,37.1z"/>
	<path id="Path_7" class="st1" d="M87.9,37.1h-4.4c-0.5,0-0.7-0.3-0.5-1L90.1,9c0.2-0.6,0.7-1,1.4-1h6c0.6-0.1,1.2,0.3,1.4,1
		l7.2,27.2c0.2,0.6,0,1-0.5,1h-4.4c-0.2,0-0.5,0-0.7-0.2c-0.2-0.2-0.2-0.5-0.3-0.7l-1.3-5h-8.8l-1.3,5c0,0.3-0.1,0.5-0.3,0.7
		C88.3,37.1,88.1,37.2,87.9,37.1z M94.4,13.5l-3.3,13.1h6.7l-3.3-13.1H94.4z"/>
	<path id="Path_8" class="st1" d="M109.3,29.7v-0.9c-0.1-0.5,0.3-0.9,0.7-1c0.1,0,0.2,0,0.2,0h3.9c0.5-0.1,0.9,0.3,1,0.7
		c0,0.1,0,0.2,0,0.2v0.4c-0.1,0.8,0.1,1.7,0.7,2.4c0.7,0.5,1.6,0.7,2.5,0.6h2.1c0.9,0.1,1.8-0.2,2.5-0.7c0.6-0.7,0.8-1.6,0.7-2.5
		v-0.5c0-0.8-0.4-1.6-1.1-2c-0.8-0.5-1.7-0.8-2.7-0.8c-1.1-0.1-2.3-0.3-3.4-0.5c-1.2-0.2-2.3-0.6-3.4-1c-1.1-0.5-2.1-1.3-2.7-2.4
		c-0.8-1.4-1.1-3-1.1-4.6v-1.6c-0.1-2,0.6-4,2-5.5c1.5-1.4,3.5-2.1,5.5-1.9h4.5c2-0.1,4.1,0.6,5.6,1.9c1.4,1.5,2.1,3.5,2,5.5v0.9
		c0.1,0.5-0.3,0.9-0.7,1c-0.1,0-0.2,0-0.2,0h-3.8c-0.5,0.1-0.9-0.3-0.9-0.7c0-0.1,0-0.2,0-0.2V16c0.1-0.9-0.1-1.7-0.7-2.4
		c-0.7-0.5-1.6-0.7-2.5-0.6h-1.8c-0.9-0.1-1.8,0.1-2.5,0.7c-0.5,0.8-0.8,1.8-0.7,2.7v0.9c0,1.4,1.2,2.2,3.7,2.4
		c2.3,0.2,4.7,0.7,6.8,1.5c1.1,0.5,2,1.4,2.7,2.4c0.8,1.4,1.1,2.9,1.1,4.5v1.5c0.1,2-0.6,4-2,5.5c-1.5,1.4-3.5,2.1-5.5,1.9h-5
		c-2,0.1-4-0.6-5.5-1.9C109.9,33.7,109.2,31.7,109.3,29.7z"/>
	<path id="Path_9" class="st1" d="M139.3,37.1h-3.9c-0.5,0.1-0.9-0.3-1-0.7c0-0.1,0-0.2,0-0.2V9c-0.1-0.5,0.3-0.9,0.7-1
		c0.1,0,0.2,0,0.2,0h3.8c0.5-0.1,0.9,0.3,1,0.7c0,0.1,0,0.2,0,0.2v10.6c0,0.3,0.2,0.5,0.5,0.5h7.7c0.2,0,0.5-0.1,0.5-0.4
		c0,0,0-0.1,0-0.1V9c-0.1-0.5,0.3-0.9,0.7-1c0.1,0,0.2,0,0.2,0h3.9c0.5-0.1,0.9,0.3,1,0.7c0,0.1,0,0.2,0,0.2v27.2
		c0.1,0.5-0.3,0.9-0.7,1c-0.1,0-0.2,0-0.2,0h-3.9c-0.5,0.1-0.9-0.3-1-0.7c0-0.1,0-0.2,0-0.2V25.6c0-0.2-0.1-0.5-0.4-0.5
		c0,0-0.1,0-0.1,0h-7.6c-0.4,0-0.5,0.2-0.5,0.5v10.6c0.1,0.5-0.3,0.9-0.7,1C139.4,37.2,139.4,37.2,139.3,37.1z"/>
	<path id="Path_10" class="st1" d="M163,37.1h-4.3c-0.5,0-0.7-0.3-0.5-1L165.2,9c0.2-0.6,0.7-1,1.4-1h6c0.6-0.1,1.2,0.3,1.4,1
		l7.2,27.2c0.2,0.6,0,1-0.5,1h-4.3c-0.2,0-0.5,0-0.7-0.2c-0.2-0.2-0.2-0.5-0.3-0.7l-1.3-5h-8.8l-1.3,5c0,0.3-0.1,0.5-0.3,0.7
		C163.4,37.1,163.2,37.2,163,37.1L163,37.1z M169.5,13.5l-3.3,13.1h6.7l-3.3-13.1H169.5z"/>
	<path id="Path_11" class="st1" d="M132.5,67.6h-6.3c-0.6,0.1-1.1-0.3-1.1-0.9c0,0,0,0,0-0.1l-4.8-27.2c-0.1-0.6,0.2-1,1-1h4.7
		c0.7,0,1.1,0.3,1.1,1l2.6,22.3h0.3l4.4-22.5c0-0.5,0.4-0.8,0.9-0.8c0,0,0,0,0,0h5.1c0.5-0.1,0.9,0.3,1,0.7c0,0,0,0,0,0l4.4,22.5
		h0.4l2.6-22.3c0-0.5,0.4-1,0.9-1c0.1,0,0.1,0,0.2,0h4.7c0.7,0,1,0.3,1,1l-4.9,27.2c0,0.5-0.5,1-1,1c0,0,0,0-0.1,0H143
		c-0.5,0.1-1-0.4-1.1-0.9c0,0,0,0,0-0.1l-4.1-21.3h-0.2l-4.1,21.3C133.5,67.2,133,67.6,132.5,67.6z"/>
	<path id="Path_12" class="st1" d="M172.4,67.6h-5.1c-2,0.1-4-0.6-5.5-1.9c-1.4-1.5-2.1-3.5-1.9-5.5V45.8c-0.1-2,0.6-4,2-5.5
		c1.5-1.3,3.5-2,5.5-1.9h5.1c2-0.1,4,0.6,5.5,1.9c1.4,1.5,2.1,3.5,1.9,5.5v14.4c0.1,2-0.6,4-1.9,5.5C176.4,67,174.4,67.7,172.4,67.6
		z M168.2,62.6h3.2c1.2,0.3,2.4-0.5,2.7-1.7c0.1-0.3,0.1-0.6,0-0.9V46.1c0.3-1.2-0.5-2.4-1.7-2.7c-0.3-0.1-0.6-0.1-0.9,0h-3.2
		c-0.7-0.1-1.5,0.1-2,0.6c-0.5,0.6-0.7,1.3-0.6,2.1v13.8c-0.1,0.7,0.1,1.5,0.6,2.1C166.7,62.4,167.5,62.7,168.2,62.6z"/>
	<path id="Path_13" class="st1" d="M183.9,66.6v-2.7c-0.1-0.8,0.1-1.6,0.6-2.2l12-17.7v-0.2h-10.8c-0.5,0.1-0.9-0.3-1-0.7
		c0-0.1,0-0.2,0-0.2v-3.4c-0.1-0.5,0.3-0.9,0.7-1c0.1,0,0.2,0,0.2,0h16.1c0.6,0,0.9,0.3,0.9,1v3.9c0,0.8-0.2,1.7-0.7,2.4L190.6,62
		v0.2h11.5c0.6,0,0.9,0.3,0.9,0.9v3.4c0,0.7-0.3,1-0.9,1h-17.4c-0.5,0.1-0.9-0.3-1-0.7C183.8,66.8,183.8,66.7,183.9,66.6z"/>
	<path id="Path_14" class="st1" d="M212.3,67.6h-3.8c-0.5,0.1-0.9-0.3-1-0.7c0-0.1,0-0.2,0-0.2V39.4c-0.1-0.5,0.3-0.9,0.7-1
		c0.1,0,0.2,0,0.2,0h3.4c0.5-0.1,1,0.2,1.3,0.6l9.2,17.2h0.2V39.4c-0.1-0.5,0.3-0.9,0.7-1c0.1,0,0.2,0,0.2,0h3.8
		c0.5-0.1,0.9,0.3,1,0.7c0,0.1,0,0.2,0,0.2v27.2c0.1,0.5-0.3,0.9-0.7,1c-0.1,0-0.2,0-0.2,0h-3.3c-0.6,0-1.2-0.3-1.5-0.9l-9.1-16.9
		h-0.2v16.8c0.1,0.5-0.3,0.9-0.7,1C212.5,67.6,212.4,67.6,212.3,67.6z"/>
	<path id="Path_15" class="st1" d="M240.1,39.4v27.2c0.1,0.5-0.3,0.9-0.7,1c-0.1,0-0.2,0-0.2,0h-3.9c-0.5,0.1-0.9-0.3-1-0.7
		c0-0.1,0-0.2,0-0.2V39.4c-0.1-0.5,0.3-0.9,0.7-1c0.1,0,0.2,0,0.2,0h3.9c0.5-0.1,0.9,0.2,1,0.7C240.1,39.2,240.1,39.3,240.1,39.4z"
		/>
	<path id="Path_16" class="st1" d="M249.2,67.6h-4.4c-0.5,0-0.7-0.3-0.5-1l7.2-27.2c0.2-0.6,0.7-1,1.4-1h6c0.6-0.1,1.2,0.3,1.4,1
		l7.2,27.2c0.2,0.6,0,1-0.5,1h-4.3c-0.2,0-0.5,0-0.7-0.2c-0.2-0.2-0.2-0.5-0.3-0.7l-1.3-5h-8.8l-1.3,5c0,0.3-0.1,0.5-0.3,0.7
		C249.7,67.5,249.5,67.6,249.2,67.6z M255.8,43.9L252.5,57h6.7L256,43.9H255.8z"/>
	<path id="Path_17" class="st1" d="M276.2,67.6h-3.9c-0.5,0.1-0.9-0.3-1-0.7c0-0.1,0-0.2,0-0.2V39.4c-0.1-0.5,0.3-0.9,0.7-1
		c0.1,0,0.2,0,0.2,0h3.9c0.5-0.1,0.9,0.3,1,0.7c0,0.1,0,0.2,0,0.2v12.9h0.1c0.4-1,0.8-1.9,1.4-2.8l6.9-10.1c0.4-0.6,1-1,1.8-1h4.4
		c0.3,0,0.5,0.1,0.6,0.3s0,0.4-0.2,0.7l-8.6,11.9l9.6,15c0.2,0.4,0.2,0.6,0.1,0.8c-0.2,0.2-0.5,0.3-0.8,0.3h-3.3
		c-0.8,0.1-1.7-0.3-2.1-1L280,55.5l-2.9,3.4v7.7c0.1,0.5-0.3,0.9-0.7,0.9C276.4,67.6,276.3,67.6,276.2,67.6z"/>
</g>
</svg>
