<svg xmlns="http://www.w3.org/2000/svg" viewBox="0 0 1922.22 593.14">
  <defs>
    <style>
      .cls-1 {
        fill: none;
        stroke: #f5baad;
        stroke-miterlimit: 10;
      }
    </style>
  </defs>
  <g id="Layer_2" data-name="Layer 2">
    <g id="Layer_5" data-name="Layer 5">
      <path class="cls-1" d="M9.93,160.19c.05-2.47.22-4.57-1.49-6.36,3.53,3.5,2.82,5.18,7.63,2.22a40.1,40.1,0,0,0,8-6.34c2.27-2.48,3.14-4.08,7-4.45.39,0,1.06-1.06,1.73-1,.93,0,1.72,1.56,2.15,1.59,2.42.18,3.32-.7,5.75-1.26,4.25-1,5.42.45,8.33,2.91,3.6,3,4.65-.41,9.06.58,2.46.56,5.44,2.85,8,3.81,3.62,1.35,8,2.18,11,4.35,5.34,3.78,5.19,11.18,7.81,16.36.68,1.34,1.69,2,2.28,3.37s-.49,3.82,1.69,4.57c1.38.48,5.45-2.53,7.09-3.6,2.18-1.43,4-2.93,6.3-4.22,3.21-1.77,4.45-3.69,7-6.35,3.93-4.18,8.72-8.29,13-12.28,2.27-2.11,4.35-3,7-4.39.88-.47,2.43-1.89,3.42-1.94,1.91-.08,5.06,1.57,7.15,1.94a63.08,63.08,0,0,1,8.34,2.14c3.53,1.13,4.84,4.24,9.2,2.76,3.25-1.1,3.91-4.24,6.11-6.65a17.62,17.62,0,0,1,7.18-5.1c5.53-1.75,10.94-5,16.5-6.3,1.09-.27,3.35-.46,4.45-.82,2.67-.89,1.9-.7,3-3.53,1.33-3.47,1.63-6.46,5.64-7.14,8.11-1.37,13.47,7,20.23,8.94,3.78,1.08,4.74.66,7.47-1.42a54.92,54.92,0,0,1,8.24-5.68c4-2,14.64-14.43,17.63-16.67,3.61-2.7,20.21,4.4,21.44-.5.14-.56,1-.63,1.22-1.41.32-1.45,0-2.82.1-4.28.18-2,0-3.1,1.73-4.42,3.8-3,7.25,1.85,11,1.92,5.66.1,5.09-3.67,10.2,1.48a22.56,22.56,0,0,1,5,7.36c1.44,3.49,3.39,7.68,3.77,11.21.21,1.93-1,5.15.27,6.75.42.54,3.83,1.47,4.47,1.76.63-1.12,5.06-2.53,6.14-2.82a24.75,24.75,0,0,1,6.62-.39c3.45,0,4.67.56,7.41,1.37,2.25.65,5.74,1,8,0,2.9-1.27,6.53-6.24,8.68-8.76,3.84-4.5,6.09-8.12,11-11,2.1-1.24,5.16-2.48,7.12-4s2.68-3.71,4.3-5.81a112.21,112.21,0,0,1,9.22-10.89,58.06,58.06,0,0,0,7.45-8.34c3-4.37,4.1-9.73,10.57-8.8,3.89.55,7.61,2.7,11,4.81,2.28,1.43,1.67,3,4.83,1.45,2.63-1.3,2.66-4.41,6.62-2.36,1.42.73,2.32,2.39,3.81,3.19s4.52,1,6.18,1.71c2.05.93,4,1,6.14,1.76,1.18.39,2-.28,3.16.35s1.46,2.1,2.46,2.77c1.9,1.26,5.81,1.89,8,2.57,1.14.34.3,1.52,2.15,1.51,1.19,0,1.56-1.59,2.2-1.59,4.56,0,7.46,2.94,10.08,6.67,2.78,4,6.43,5,10.48,7.46,1.91,1.17,4.27,2,6,3.26s3.22,3.8,4.94,4.72c3.84,2.05,12.81.35,17.19.35,6.47,0,12.22-.46,18.27,2A38.53,38.53,0,0,0,538,114.57c2.78,0,5.75-.38,8.39.39,3.65,1.08,3.12,1.41,6.92-.09,1.22,2.13,8.12,2.63,10.61,3.65,3.44,1.4,5.06,3.4,7,6.63,3.47,5.86,5,12.14,11.4,15.3,2.29,1.12,5.29,3.17,7.61,3.79,4.52,1.22,8.47.16,13.14,2a21.71,21.71,0,0,0,7.76,1.73,46.19,46.19,0,0,1,11.4,1.73c6.84,1.69,11.79,5.31,19.3,5.26,4,0,4.6-8,8.41-7.12,5.64,1.23,6.62-.69,11.35-2.68,1.63-.68,2.54.21,4.08-1.18,1-.95,1.59-2.78,2.11-4,1.7-4,5.89,1.49,4.75-2.54-1.82-6.48,2.09-15.6,5.22-22,2.78-5.67,9.4-10.91,15-12.21,3.05-.71,6.23-3.08,9.48-2.5,1.06.19,2.43,1.33,3.63,1.67,1,.3,2.3-.15,3.41.1s1.05,1.34,2.07,1.47c3.44.45,5.26-1.54,8.16-2.94,2.31-1.11,2.67-.64,4-3a46.43,46.43,0,0,0,2.35-5.47c1.56-4.13,2.1-5.49,5.91-7.32,3.24-1.55,6.25-2.69,9.21-4.82,5.8-4.18,9.4-8.7,9.67-15.77.13-3.15,1.19-4.84,4.37-7s10.12,4.35,13.56,5.71c3.89,1.53,8.36,3.18,12.6,2,6.81-1.84,8.16-8.53,12-13.54,4.49-5.87,11.37-7.33,18.47-5.21,5.46,1.63,10.47,7.19,16.1,8.46,3.7.84,8.56-.31,12.37-.13s6.73,2.32,10.09,4c2,1,5.75,4.18,7.89,4.47,3.72.51,5.46-2.68,7.89-5.39a31.13,31.13,0,0,1,7-5.27,68.5,68.5,0,0,1,7.91-4.34c3.35-1.41,6.82-2.56,10-4,3.73-1.61,5.32-3.06,8.39-5.69,10.4-8.9,24.31-12.75,36-18.38,3.85-1.86,5-1.62,9.1-.31,3.22,1,7.13,3.18,10.24,4.65,5.45,2.58,9.52,7.1,15.31,9.26,7.69,2.87,15,1.59,22.9-1.37a83.26,83.26,0,0,0,8.07-3.72c3.59-1.79,6.16-2,10.31-2,3.28,0,7.19-.2,9.72-2.56,1.29-1.22,1-3.06,2-4.11.65-.65,3.11-1.46,4-2.08,3.73-2.47,5.12-4.43,9.67-2.66,1.09.42,2.43,1.22,3.49,1.77,2.33,1.21,2.63,2,4.53,3.5,6.59,5.22,14.14,4.73,22.68,4.41,5.46-.21,4.45-1.38,6.08-5.33,1.54-3.74,4.88-6.72,7.74-8.94,6.45-5,10.43-9.92,19.49-10.33a35.43,35.43,0,0,1,11.5,1.72c3.37,1,7.08,3.36,11.18,1.67,3.78-1.55,2.77-4.71,6.67-1.7,1.95,1.51,3.63,3.07,5.81,4.48a16.51,16.51,0,0,1,4.34,3.48c3.86,4.79,6.69,11,10.48,15.83,3.63,4.61,8.88,7.34,13.57,10.11,2.15,1.27,5.15,4.17,7.42,4.87,2,.61,3.4-.34,5.42.72,1.11.58,2.32,2,3.45,2.69a66.18,66.18,0,0,0,8.33,4c3.65,1.59,6.87.81,11,1.28,3.86.44,6.09,1.83,10.48,1.79a25.26,25.26,0,0,1,10.48,1.81c1.9.71,2.73.28,4.45,1.69,1.37,1.13,1.69,2.2,2.62,3.52,2.07,3,5.28,4,7.5,6.76,5.51-2.51,10.17-6.74,17.06-4.65,2.72.82,6.67,4.4,9.16,4.6,1.58.13,1.75-.87,3.08-1a56.71,56.71,0,0,1,7.06-.43c3.19,0,7.55-.83,10.61-.1,1.59.39,1.74,1.56,3.33,1.94s3.72-.59,5.45-.18c2.67.63,3.74,1.88,6.93,1.84,4.08-.06,8.19-.06,12.27,0,3.7,0,5.36-1.35,8.74-1.79s7.16,0,10.56,0c2.7,0,6.29-.71,8.86-.09,1.59.38,1.74,1.55,3.33,1.93,2.25.55,4.95-.72,7.2-.18,1.59.39,1.74,1.55,3.33,1.94s3.73-.18,5.35-.13c4.33.15,3.73,1.94,6.53,4.07,2.14,1.63,4.08,2.41,6.19,4.3,3.65,3.27,4.88,1.63,8.73.83,1.62-.34,3.4.07,5-.29,1.35-.32,1.48-1.48,2.68-1.7,3-.55,6.12.1,9.11-.54,1.19-.26,2.18-1.19,3.86-1.41a40.8,40.8,0,0,1,5.3,0c1.75,0,3.51,0,5.26,0,2.7,0,3.65.85,5.65,1.36,5,1.28,10,4.91,15.41,4.87,6.21-.06,11-3,16.18-5.76,5.84-3.13,9-7.4,15.4-4,2.89,1.56,6,1.32,8.85,3,2.24,1.33,3.49,3.75,5.52,5.3,2.45,1.87,4.78,3.22,7.12,5.26,1.74,1.52,4.2,3.52,6.49,4,6.18,1.4,14.79-.09,21.14-.09,1.73,0,3.53.13,5.26,0,2.73-.15,22.81,17.5,23.69,6.1.31-4.08,18.25-.46,20.17-.88,7.13-1.55,9.21-5.66,15.83-3.46,1.94.65,2.32-.37,4,1.18,1.3,1.21,1.48,3.1,2.51,4.52,1.54,2.11,4.65-7.43,7.5-8.22,2.6.74,4-5.58,5.65-5.91s3.39.05,5-.29c2.28-.5,4.74-2.56,6.48-4,4.57-3.91,7.16-9.26,11.41-13.15,2.55-2.34,5.41-2.37,8.33-4.3,2-1.33,3.32-3.25,5.3-4.62s2.19,0,3.94-2,3.28-5,4.79-7.11,2.86-5.69,4.74-7.54c1.08-1.08,2.77-.66,3.69-1.58s.77-2.64,1.58-3.64c1.74-2.14,5.27-3.47,7.54-4.78s4.72-.95,6.67-2.1c1-.6,1.47-2.09,2.45-2.78,1.71-1.2,4.83-1.26,6.76-2.14,3.37-1.55,4.93-2.68,8.77-.47,3,1.71,4.83,3.3,8.29,4.41,2.74.88,6,2.5,9.16,3.17,1.67.35,3.61-.34,5.31-.13,2.43.3,3,1.39,5.12,1.89,1.56.36,3.35,0,5,.29,1.18.24,2.17,1.21,3.85,1.41,3.42.42,5.56,1.33,8.78,1.75,3.42.45,7.19-.73,10.57-.13,2,.34,3.31,1.59,5.26,1.94,2.26.39,4.78-.4,7.06-.14,2.82.33,4.11,1.55,6.93,1.85,4.41.46,4.13.51,7.45,3.07,2.32,1.77,5.38,1.67,8,2.53,2.92,1,4.5,3.54,6.92,5.36,11.36,8.5,27.16,1.08,39,6.59,2.56,1.18,1.91-.75,4,1.61,1.42,1.57,1.21,2.68,3,4.07,2.7,2.12,6,4.17,8.92,6.15,6.1,4.17,11.88,3.9,19.2,3.9h12.28c1.73,0,3.53-.13,5.26,0,2.72.15,4.41,1.46,7,1.89,6.58,1.1,13.27,2.83,19.4,6.44,5.63,3.33,9.66,9,15.66,11.44"/>
      <path class="cls-1" d="M.73,231.69c3-1.36,5.6-1.34,9.2-1.33a58.07,58.07,0,0,0,19.69-3.08c6.55-2.29,13.24-.88,19.85,1.33a40.22,40.22,0,0,0,19.09,1.6c2.55-.49,4.7-2.79,8.13-1.69,2.21.72,4.26,2.95,6.49,4,5,2.46,9.92,4.09,14.9,6.15,2.64,1.09,4.12,2.62,6.51,3.94,3.4,1.88,6.85,1.76,10.61,1.76s5-.27,7.89-1.76c2-1,6.43-5,8.37-2.09,2-1.57,3.13.32,4.75-.6,1.3,1.36,2.16.2,3.6.9s1.72,1.52,3,2.28c2.49,1.52,4.55,2.72,7.46,3.07,3.43.4,5.54,1.32,8.78,1.75,4,.53,8.32-.6,12.36-.08,2.92.37,5,1.53,7.46,3.06a73,73,0,0,0,8.38,4c6.14,2.79,12.06,3.51,19.21,3.51,3.4,0,7.2.48,10.56,0s5-1.85,8.74-1.79c1.52,0,3.88.44,5.35.09s1.73-1.58,3.32-1.94,3.37,0,5-.3c1.27-.24,4-1.24,5.66-1.7,7.63-2.15,9.61-7.49,12.71-13.7A32.82,32.82,0,0,1,263,230.8c2.88-3.1,4-3.32,7.95-4.33,1.39-.36,1.94-1.19,3.86-1.42s3.36.15,5.3-.34a57.7,57.7,0,0,0,8.72-3.17c2.46-1,4.93-1.59,7.47-3,3.21-1.76,6.46-2.82,9.69-4.43,2.69-1.36,4.34-2.76,7.41-3.12,3.41-.41,5.55-1.38,8.77-1.76,4.2-.49,5.73-.51,9.3-3,2.78-2,5.26-2.81,8.29-4.34,5.65-2.86,9.7-5.51,15.79-7,3.61-.89,6.59-1.89,10.57-1.41,4.29.52,3.95,3.06,7.32,5,1.31.74,3.08.36,4.53.73s2,1.16,3.85,1.41c3.4.45,6.83-.32,10.18.35,6.5,1.3,8.69,6.8,13.94,10.61,1.11.81,2.58.91,3.6,1.67S411,215.43,412,216c2.47,1.35,7.39.35,10.17.35,7.22,0,15.43,1,22.42-.39,2.23-.45,5.08-2.21,7.36-3.17,1.25-.53,2.67-.62,3.95-1.23,1.61-.77,3.31-1.82,4.92-2.67,2.77-1.45,4.37-3.55,6.88-5.26a47.5,47.5,0,0,1,5.39-2.69,25.1,25.1,0,0,0,3.12-.68,11.2,11.2,0,0,0,1.62-3.31c3.39-4,10.84-4.52,15.88-3a41.79,41.79,0,0,1,7,3.5c4.71,2.85,5.71,3.88,11,.92a77.08,77.08,0,0,0,7.46-4.34c2.6-1.88,3.54-6,6.49-7.24,2.46-1,8-.65,10.61-.3,1.63.22,2.72,1.17,3.86,1.41,2.09.43,4.14.35,6.24.78,2.91.59,5.1,2.07,8.76,1,.76-.22,2.54-1.38,3.48-1.78,1.4-.61,2.4-.78,3.89-1.28,3.3-1.12,5.58-3,8.86-4.08,1.68-.55,1.65.55,3,.18s3.17-2.09,4.43-2.73c4.28-2.15,9.58-5.74,14-7.06,6.49-1.94,15.56-.37,22.41-.39a40.78,40.78,0,0,1,5.3,0c1.68.22,2.68,1.15,3.86,1.4,2.73.59,7.41,1.14,10.23.48a28.32,28.32,0,0,0,7.4-3.08c3-1.93,4.46-4.56,7.86-6.22,10.38-5.06,21.85-13.68,33.77-13.6,4,0,8.38-.55,12.32,0,1.49.2,2.85,1.23,3.85,1.4,2.86.5,3.11-.51,5.27-1,3.73-.79,6.22-.86,9.71-2.58a30.08,30.08,0,0,1,11-3c3.28-.39,6.19-2.61,9.13-3.17,4-.75,8-1.34,11.93-2.14,1.25-.26,2.95-1.18,3.86-1.37,2.25-.47,4.37-.06,6.66-.35,1.66-.21,2.7-1.16,3.86-1.4,2.11-.43,4.15-.2,6.23-.79,6.28-1.76,9.26-10.28,13.12-15,4.35-5.36,12.22-6.68,17.58-10.43,2.72-1.89,4.65-3.06,6.54-5.7,1.72-2.39,3.06-5.12,4.78-7.5a34.31,34.31,0,0,1,6.14-6.14c2.45-1.82,7.26-1.14,8.86-3.6,3.21,1.2,7,.94,9.6,3.65,1.43,1.47,1.47,3,2.6,4.43,1.65,2.12,4.6,4,6.66,5.7,6.32,5.09,12.68,10.91,21,12.32,4.35.74,9.6-.12,14-.09,5.1,0,8.16-1.78,13.16-1.75,4.77,0,7.93.92,12.25,1.71s7.77,3.48,10.55,7c5.11,6.45,6.78,14.75,10.92,21.61s11,12.25,15.92,18.9c2.39,3.22,3.48,7.34,5.18,10.87.84,1.75,1.82,3.06,2.67,4.74,1.49,2.94.84,5.48,1.67,8.47,1.82,6.51,10,10.45,14.53,14.41,2.86,2.48,3.52,5.79,6.57,8.35a31,31,0,0,0,9.38,5.53c1.07.33,4.36,1.68,5.26,1.79,3.22.41,2.78-1,5.24-1.47,5.13-1,8.16,1.67,13,1.6,9-.13,20.89,2.1,29.42-.39,7.58-2.21,13.74-10.52,20.17-15,5.54-3.82,13.43-5.71,17.94-11,2.52-2.93,3.47-6.22,5.66-9.25s7-5.47,10.28-6.37c9-2.47,17.78-1.89,25.72-6.8,7-4.33,15.29-4.84,22.28-9.55,3.46-2.34,7.17-4.49,10.19-7.07s5.49-5.22,9.12-7.05c2.65-1.35,4.37-.95,7.15-1.23,2.34-.24,3.07-1.35,5.12-1.89,2.69-.69,3.9,1,5.75,1.45a18.61,18.61,0,0,0,7.51.24c5.13-1,9.52-3.42,14.91-3.35,5.71.07,9.55-1,14.93-2.64,3.08-.94,3.51-.91,5.26-3.42,1.36-2,1.64-4.64,3.48-6.31,2.66-2.4,7.8-3.47,11.42-3.42,4.86.07,9-1.27,12.08,2.83,1.19,1.6,1.43,3.26,3,4.86,1.81,1.81,3.74,1.88,5.55,3.22,1.54,1.14,2,2.45,3.81,3.16,2.13.82,4.9.65,7.2,1.71,4.51,2.09,8.71,1.79,13.94,1.76,4.71,0,7.18.62,11,3,2.33,1.45,1.7,1.91,4.74,2.28,2.83.35,6,0,8.81,0,4.68,0,9.36,0,14,0,5.15,0,8.49-1.3,13.16-1.75a78.11,78.11,0,0,0,12.28-2.63c5-1.33,9.81-1.52,14.9-3.07a46.85,46.85,0,0,0,11.21-5c1.38-.91,2.32-2.34,3.69-3.33,2.6-1.86,3.22-.93,6.26-1.64,2-.47,2.81-1.64,5.12-1.89s4.39.32,6.66-.35c3.65-1.09,7.09-4.08,10.84-5,9.91-2.32,19.12,2.19,28.15,3.7,1.16.19,2.46-.46,3.61-.2.8.18,1.6,1.36,2.05,1.46a28.1,28.1,0,0,0,6.63.39c2.32,0,4.7.17,7,0,2.87-.15,5.1-1.45,7.89-1.84a122.06,122.06,0,0,0,13.16-2.58c4.36-1.13,9.63.3,14.12-.79,2.44-.59,3.07-1.74,6-1.86,2.32-.1,4.7,0,7,0h14.91c2.33,0,4.71.16,7,0,2.71-.15,4.42-1.44,7-1.89,2.23-.38,4.39.2,6.63-.3s4.32-1.78,7.44-1.4c2.29.27,3.12,1.39,5.14,1.88s5-.1,7.1-.09a63.87,63.87,0,0,0,15.79-2.14c4.74-1.21,9.82-1.52,14.12-4.44,1.49-1,2.4-2.42,3.78-3.51,2.21-1.75,5.13-2.32,7.41-3.94,3.14-2.24,5.2-4,8.84-5.49,2-.79,4.52-1.24,6.27-2.36s2.86-3.14,4.52-4.24c7.24-4.78,14.77-5.46,23.49-5.46,4.49,0,9.71-.74,14,.39,2.46.65,4.66.75,7.11,1.27,1.87.4,3.84,3,5.56,3.25s3.48-.59,5.26-.57c2.1,0,4.35.93,6.63.92s4.68,0,7,0a19.79,19.79,0,0,1,3.55-.14c3,.75,1.69,2,3.85,3.35a34.53,34.53,0,0,0,5.27,1.66c2.25.52,4.42,1.23,6.62,1.76,4.75,1.13,8,2.15,13.17,2.14,4.53,0,9.07-.22,13.15.87,5.14,1.38,7.47-.63,12.28-1.75,4.15-1,6.81-2.46,11.43-2.61,4.88-.16,3.34-3.81,8-1.66,1.48-2.29,4.08-4.35,6.91-3.62,1.53.39,2.11,8.77.53,8.77,4.13,0,6.26-1.27,10-1.79,3-.42,4.43.73,7,1.4,1.75.44,3.76-.18,5.35.3,2.45.73,5,3.66,7.32,4.87,2.91,1.52,5.82,4.47,8.78,5.35,6.44,1.89,15.63.39,22.41.39,4.37,0,8.3-.72,11.93,2.2a36.26,36.26,0,0,0,7.37,4.82,65,65,0,0,0,8.73,3.47,36.68,36.68,0,0,1,4.92,2.28c1.51.73,3.1.72,4.62,1.42s1.82,2.29,3.13,3,3,.3,4.53.74,3.76,2.29,5.27,3.11c.09,1,.56,1.57,1.41,1.66a3.36,3.36,0,0,0,2.44,0c7.11,2.72,14.31,2.95,21.09,5.32,3.54,1.24,6.63,1.22,10.57,1.72s6.22,1.72,10.48,1.79"/>
      <path class="cls-1" d="M2.19,414.72c1.71-.38,3.38.11,5.12-.08a31,31,0,0,0,11-4c5.64-3.41,10.44-7.24,16.22-10.13,6.13-3.08,12.73-5.08,20-3.36,1.71.4,2.46,1.37,4.5,1.64a49,49,0,0,0,6.18,0c4,0,7.1-.21,10.52-1.75,6.47-2.92,13.49-3.51,21.06-3.51,3.58,0,7.6-.58,11,.39,1.66.48,2.61,1.27,4.76,1.38a20.51,20.51,0,0,0,7-.89c3.66-1,8,.27,11.49-.8,2.56-.78,4.64-4,6.94-5.34a51.15,51.15,0,0,1,21.09-7c3.28-.34,6.16-2.33,9.11-3.18,1.51-.43,3-.12,4.5-.72,1.68-.7,3.43-2.8,5.26-3.64a101.61,101.61,0,0,1,19.68-6.5c3.87-.91,7.45-3.19,11.4-3.62,2.06-.23,3.73.24,5.76-.33,1.73-.48,2.45-1.28,4.76-1.38,3.93-.16,8.47.71,12.29-.13,1.9-.42,3.22-1.74,5.27-1.73,2.65,0,4.42,1.95,7,1.8,2-.12,3.89-1.59,6.14-1.71,1.74-.1,3.53.06,5.27,0,4.71,0,8.45.49,13.17,0,3.58-.37,5.2-1.51,8.32-3.07,1.43-.71,2.81-1.21,4.16-2,1.55-.87,2.64-2,4.11-2.9a42.85,42.85,0,0,1,10.58-3.94c3.79-.9,6.58-2.21,10.54-2.14,7.9.14,14.75-3.62,22.8-3.51,15.27.21,29.86,5,43.43,11,3.34,1.45,6.36.75,10.08,1.47,2.2.43,3.77,1.52,6.14,1.65s4.7-.06,7,0c4.3,0,7.34-1.35,11.4-1.82,4.46-.52,7.81-.22,12.13-1.91,3.08-1.2,6.12-1.66,9.14-3.07,2.82-1.33,5.49-2.68,8.34-3.94,7-3.1,15.46-2.83,23-4.88,1.4-.38,3.13-.74,4.37-1.05,1.6-.39,3.64-.38,5.36-.78,2.95-.68,6.26-2.46,9.07-3.21,3.74-1,8.11-1.48,11.93-2.15s6.29-1.84,10.48-1.76c4.46.08,7.83-1.8,12.28-1.74,4.09.05,8.2.08,12.28,0,2.18-.05,4.25-.82,6.21-.94s1.84.57,3.59.77a54,54,0,0,0,6,.17c2.58,0,3.63-.78,5.66-1.36,7-2,16.76-.39,24.17-.39H595a132.66,132.66,0,0,0,24.56-1.9c3.41-.63,7.08-2.16,10-3,2-.55,3.82,0,5.82-.32s3.23-1.33,5.15-1.87,2.94-.39,4.86-1.27c1.23-.57,2.39-1.2,3.52-1.75,1.45-.71,2.64-1.47,3.95-2.19a27,27,0,0,1,4.43-1.71,101.92,101.92,0,0,1,10.48-3.17,19.72,19.72,0,0,1,5.26-.39c2.86,0,3.51-.76,5.66-1.36,2-.56,3.85,0,5.81-.32s2.51-1.52,4.22-1.92,3.28.17,5-.3c.83-.22.82-1.17,2.06-1.46s2.46.39,3.6.2c3.74-.63,7.75-1.76,11.4-2.73a38.52,38.52,0,0,1,6.18-.83c2.38-.29,3-1.2,5.13-1.85,7.15-2.21,14-4.82,21.24-6.92,5.34-1.56,10.32-5.83,14.82-8.8C763.87,281,769,274.9,775.66,275c3.54.07,7.62.94,11.47,1,4.38,0,8.77,0,13.15,0,2.09,0,4.12-.27,6.15.35,1.67.5,3.64,2.83,5.35,2.9,1.52,0,2.62-1.21,4.23-1.57,2-.45,5,.08,7.08.07,3.87,0,6.35,0,9.65,1.75,3.54,1.91,6.4,1.77,10.53,1.76,4.62,0,19.81-2.33,22.8,1,1.58-1.78,4.07-.6,6.17-1.1,2.84-.68,3.54-2.44,5.63-3.86,3.56-2.42,7.32-2.86,11-4.78,2.22-1.16,3.65-1.18,6-1.93,1.66-.53,3.34-2.23,4.95-2.9a25.38,25.38,0,0,1,8.37-2.24c2.9-.12,3.93-1,6.3-1.56,5.06-1.13,10.37-1.09,15.49-2,2.22-.41,3.35-1.64,6.3-1.6A39.81,39.81,0,0,0,944,260c2.24-.43,3.35-1.64,6.3-1.6,2.63,0,5.26,0,7.89,0,3.51,0,13.31,1.67,15.39-1.45,3.13,1.24,6.25.84,9.65,1.85,2.61.77,5.25,3.61,7.81,4.47,7.26,2.45,14.64,2.15,22.41,2.15,3.91,0,8.14.4,11.89-.39,1.38-.29,2-1.16,3.86-1.41a49.05,49.05,0,0,1,6.18,0c4,0,6-1.36,9.61-1.8a51.26,51.26,0,0,0,10.18-2.09,72.18,72.18,0,0,0,9.07-3.12,45.47,45.47,0,0,1,5.39-1.81c.75-.23,3.24-1.19,3.86-1.31,4.64-.92,7.43-.67,11.89-2.63a53.87,53.87,0,0,1,10.53-3.41c6.07-1.4,12.53-5.21,18-8,3-1.5,6.71-3.46,10.09-4s8.91,1.93,11-1.37c.45.41,2.11.77,2.56,1.17,2-3.55,16-1.46,19.77-1.46,3.29,0,7-.5,10.14.39,2.13.61,5,3.27,7.41.39,2,2.24,8.48,1,11.4,1h14c2,0,4.1,0,6.14,0,3,0,3.4.72,5.66,1.36,5.14,1.46,8.82-.6,13.64-1.46,3.73-.65,8.47,0,12.28.09,4.33.06,6.83-1.61,10.53-3.5,7-3.58,14.62-3.13,22-5.22,6.27-1.78,12.26-4.86,18.37-7.94,3.59-1.81,6.77-2.5,10.57-4s7.39-2.51,10.87-3.55,5.92-1.25,8.87-3.41c2.6-1.91,4.34-5.08,6.88-7.06,6.23-4.85,16.08-5.58,23.17-7.63,1.47-.42,3-1.13,4.55-1.58s3.55-1.48,5.18-1.86c2-.46,4.16-.27,6.23-.78a29.22,29.22,0,0,1,7.89-.87c3.93,0,8.12.42,11.89-.39.41-.09,1.29-1.28,2.06-1.46,1.09-.26,2.56.27,3.64.14,2.17-.26,3.29-1.7,5.17-1.93,2.9-.37,2.89,1.42,5.22,2,1.93.46,4.12-.39,6.08.06,1.66.38,2.52,1.35,4.49,1.64,3.34.5,3.78-.89,6.36-1.62,4-1.14,5-2,8.16-5s6.73-4.63,10.13-7c5.75-4,12.37-9,19.17-11,4.38-1.31,8.91-.71,13.31-1.64,1.77-.38,2.55-1.51,4.23-1.91,2.26-.55,5.64.08,8,.09,1.92,0,4.4.53,6.23.09,1.67-.41,2.46-1.54,4.23-1.91,4.18-.9,9.79.06,14.1.06,2.33,0,4.7-.11,7,0,2.17.09,3.09.91,4.76,1.39,2,.56,3.74.28,5.77.37,3.12.13,3.47.81,6.07,1.82,4.16,1.62,8.38,1.71,13.21,1.71,2.27,0,5.78.62,8,.09,2-.49,2.82-1.64,5.13-1.89a152.71,152.71,0,0,0,26.35-5.22c4-1.15,8.07-3.12,12.24-3.56a80.06,80.06,0,0,0,12.33-2.58c5.47-1.44,7.61.75,12.66,2.24a44.78,44.78,0,0,0,13.65,2.14c2.17,0,13.16,4.18,14.52,2.06,4.68,1.86,9.82,1.46,15.31,1.45a53.53,53.53,0,0,0,7,0c3.26-.43,5.4-2.39,8.74-3.16A80.23,80.23,0,0,0,1692,151c1.9-.81,3.68-2.32,5.61-3.12,2.12-.89,5-.75,7.12-1.66a37.49,37.49,0,0,1,7-2.19,67.55,67.55,0,0,1,8.81-1.33c2.44-.3,3.74-1.3,6-1.86,2.7-.66,6.88.07,9.71.07s6,.41,8.81,0c2.22-.29,3.14-1.44,5.13-1.89,3-.69,4.37-.55,7.06-1.71,2.33-1,4.82-.74,7.12-2.54,1.31-1,2.33-3.35,3.8-4.07,3.46-1.7,3.87.83,6.59,1.49,2.5.61,5.54-.77,8-.16s4.93,1.37,7.44,2.21c1.82.62,3.74,2.4,5.6,3.17s4,.74,6,1.9c4.71,2.7,9.85,5.34,14.25,8.58a45,45,0,0,0,5.76,4c2.32,1.19,5,1.92,7.49,3a35.39,35.39,0,0,0,6.55,2.14c.77.2.85,1.2,2,1.47,1.72.38,3.21-.19,5,.29,4.08,1.13,8.42,2.94,12.67,4a25.59,25.59,0,0,0,7,.89c3.84-.07,5.25,1.36,8.73,1.8,3,.37,4.44.29,7.07,1.7,3.31,1.79,5.38.6,8.85,1.67,1.72.53,3.74,2.54,5.18,3.6,1.94,1.42,4.09,2.9,6.14,4.38a46.4,46.4,0,0,0,15.79,7"/>
      <path class="cls-1" d="M.5,593c1.77-8,14.83-10.24,21.15-12.24,7.47-2.35,13.92-7.09,21.11-8.89,3.86-1,8-1.18,11.66-2.79,4.08-1.81,5.91-2.83,10.58-2.76,4,0,9.09-.91,12.84.43,3,1.06,6.93,4.24,9.94,5.68a85.62,85.62,0,0,1,9,4.38c1.91,1.2,1.3,2.19,3.72,2.95,1.53.48,5.14-.11,6.78-.11,8.31,0,14.45-3.72,22.24-6.12,8-2.48,14.66-6.94,22.19-10,8.39-3.41,18.28-4.81,26.13-8,1.81,3.53,3.73.85,6.14.68a30.59,30.59,0,0,1,4.49,0c1.06.08,2.21,1.45,3.43,1.41,1.07,0,4.83-2.48,6-3,2.67-1.2,3.8-1.73,7.23-1.67a31.93,31.93,0,0,0,13.4-2.17c2-.87,4.87-1.38,6.66-2.23,2.12-1,2.9-3,4.83-4.07,1.74-1,4.43-.88,6.26-1.52a28.29,28.29,0,0,0,5-2.74c4.31-2.58,7.74-4.85,12.79-6.74s7.76-2.73,13.27-2.77c6,0,7.65,2.71,12.81,5,8.9,3.93,18.84,4.91,29.51,4,1.94-.17,3.72-1.07,5.53-1.19,2.36-.16,2,.37,3.76.58,5.44.65,10.87.1,15.67,2.23s7.52,2.14,12.85,2.72c3.3.36,3.64,1.69,6.5,2.39s6.27-.9,9.13-.23c3.7.86,7.2,3.55,10.89,4.62,3.39,1,5.18,1.11,8.51,2.77,2.66,1.33,4.29.8,7.29,1.5,2.08.48,3.18,1.92,5.36,2.43,2.52.59,5.22-.26,7.86.41,5.68,1.44,9.68,3.93,15.57,3.93a27.9,27.9,0,0,0,6.67-1.11c2.91-.61,3.39-.23,6.68.64,5.75,1.53,12.23-1,17.9.38,4.72,1.14,7.07,3.47,12.73,1.84,2.1-.61,3.19-2.39,6.12-1.83s4.41,2.92,7.79,2.49c2.34-.3,2.66-2.32,5.22-2.28,1.48,0,3.73,1.93,5.78,2.17,5,.57,12.58.82,17.34-.56,8.51-2.46,11.92-14.94,20.53-16.89,3.52-.8,4.35.83,7.77,1.64,2.55.6,5.18,0,7.79.14,3,.14,5,1.37,7.8,2.06,1.43.35,2.94-.23,4.26.4.83.39,2.32,2.62,2.89,2.75,2.74.64,2.45-.76,5-1.89,2.34-1,4.09-.71,6.75-1s3.63-1.61,5.69-2.09c3.12-.74,6.6.06,9.82-.14a87.66,87.66,0,0,0,15.07-2.77c1.55-.4,3.94-1.41,5.85-1.94a72.77,72.77,0,0,0,7.5-2.46c8.18-3.63,9.42-14.78,19.37-15.14,5.55-.21,11.16,0,16.71,0,2.4,0,5.57.57,7.86.08,2.56-.55,3.92-1.94,6.5-2.39s4.84.31,7.38-.41c2.82-.8,3.55-1.51,7.18-1.67,5.29-.23,11.51-2.77,16.48-4.78s6.67-1.82,11.86.83c3.3,1.67,7.22,5,10.76,5.92,2.36.62,4.69,0,7.1.69,2.84.79,3.42,1.76,7.17,1.72,6.27-.07,10.75-.35,16.67-2.49,5.76-2.09,10.59-3.87,16.68-4.12,3.12-.12,4.81-1.41,7.78-2.09s5.95.27,8.9-.11a37.51,37.51,0,0,0,13.9-5c3.81-2.54,5.76-6.89,9.39-9.56,6.66-4.89,21.75-4.91,29.89-3.09,4.42,1,7.5,3.19,10.7,6.48,4.46,4.6,7.7,4.53,14,4.45,2.55,0,4.86-.2,7.3.49,2.1.61,3.18,2.37,6.11,1.84a15.52,15.52,0,0,0,5.49-2.34c1.35-.82,1.84-.45,2.9-1.55s.9-3.1,1.73-3.83c4.65-4.12,8.33,1.39,12.06,4.3s7,6,11.06,8c9.07,4.43,17.45,9.56,26.75,14.21s18.86,10.19,28.91,10c5.19-.1,8.57,2.72,13.32,2.32,2.94-.24,5-2,7.81-2.44,3.19-.55,5.94-.23,8.89-1,9.47-2.46,19.68-4.44,28.91-6.67,1.81-.44,4.17-1,6.19-1.6,1.13-.34.88-1.47,2.59-1.86,1.09-.24,2.44.48,3.52.19,2.05-.57,3.37-1.91,5.38-2.4,2.78-.68,7.26.1,10.12.11,11.28.05,21.05-4.58,32.25-4.45,6.06.07,10.82-2.1,16.68-2.24,5.48-.14,11.3.69,16.73.07,3.28-.37,3.66-1.7,6.51-2.39,2.23-.54,5.63.11,7.89.12h16.68a92,92,0,0,0,30.64-4.95c3.73-1.24,9-4.13,12.73-6.09,4.46-2.37,8.19-5.95,11.68-9.53,7.58-7.77,16.85-6.12,27.24-6.12,11,0,22.65,1,33.41-.55,4.53-.66,2.47-1.36,6.62.56,1.81.83,3.47,1.59,5.28,2.49,4,2,8,4.87,12.51,5.9,9,2.07,17.91,3.29,26.13,6.84,6.87-7.73,17.78-5.6,27.25-8.07,5.65-1.48,12-.13,17.79-.45,3.47-.19,5.59-1.68,8.9-2.39,2.63-.56,6.19.12,8.89.12,5.75,0,12.16.8,17.84,0,5.15-.68,8.59-2.3,14.41-2.28,11.08.05,22-.25,31.63-4.07,2.4,3.74,12.17,1.91,16.17,1.86,5.29-.08,8.09,2.28,13.36,2.2,5.92-.08,11.86-.08,17.78,0,4.88.07,8.24-1.55,12.86-2.7,8-2,17-6.91,24.34-11.25,3.49-2.07,8.5-6.52,12.23-7.83,3.88-1.37,12-1.21,16-.25,4.17,1,8.13,5,12.42,6.47a44.32,44.32,0,0,1,12.26,6.65c3.24,2.51,6.48,4.6,9.43,7.26,3.58,3.26,4.76,7.89,7.48,11.42,6.7,8.7,17.88,10.3,27.35,14.71,4.13,1.92,7.66,5.23,11.94,7.27,4.1,2,9,1.8,13.22,3.47,2.5-3.76,12.09-1.85,16.18-1.85,6.09,0,12.28-.34,17.79,1.11,4.79,1.27,8.35,1.05,13.26-.27,5.84-1.57,12.18.6,18-.72,4-.91,7.71-5.08,11.5-6.3a47.91,47.91,0,0,1,16.18-2.71c5.63,0,12.36-1,17.88-.09a17.62,17.62,0,0,1,5.48,2.31c2.94,1.57,5.26,1.66,8.4,2.72,4,1.36,8.09,4.72,12.1,5.69,2.23.54,4.94,1.85,6.68,2.21,3.15.67,6.36,0,9.51.69,7,1.5,9.47,2.54,16.68-.19,6-2.29,12-4,17.91-6.67a74.45,74.45,0,0,1,15.45-4.57c2.5-.51,5.37.73,7.87.2,3-.62,4.48-2,7.64-2.36,10.71-1.12,20.46-7.53,31.14-8.89,6.57-.84,12.69-.79,18.45-3.79"/>
      <path class="cls-1" d="M1909,451.91c-3.86-1-8-1.18-11.67-2.79-4.08-1.81-5.9-2.83-10.58-2.76-4,.05-9.08-.91-12.84.43-3,1.06-6.92,4.24-9.94,5.68a85.46,85.46,0,0,0-9,4.38c-1.91,1.2-1.31,2.19-3.73,2.95-1.53.48-5.14-.11-6.77-.11-8.31,0-14.46-3.72-22.24-6.12-8-2.48-14.67-6.94-22.19-10-8.4-3.41-18.29-4.81-26.13-8-1.82,3.53-3.73.85-6.15.68a30.59,30.59,0,0,0-4.49,0c-1.06.08-2.21,1.45-3.43,1.41-1.07,0-4.83-2.48-6-3-2.67-1.2-3.79-1.73-7.23-1.67a32,32,0,0,1-13.4-2.17c-2-.87-4.87-1.38-6.66-2.23-2.11-1-2.9-3-4.83-4.07-1.73-1-4.43-.88-6.26-1.52a28.64,28.64,0,0,1-5-2.74c-4.3-2.58-7.74-4.85-12.78-6.74s-7.76-2.73-13.28-2.77c-6,0-7.65,2.71-12.81,5-8.9,3.93-18.84,4.91-29.5,4-1.94-.17-3.72-1.07-5.53-1.19-2.36-.16-2,.37-3.76.58-5.44.65-10.88.1-15.67,2.23s-7.52,2.14-12.85,2.72c-3.31.36-3.64,1.69-6.51,2.39s-6.26-.9-9.12-.23c-3.7.86-7.21,3.55-10.89,4.62-3.4,1-5.18,1.11-8.52,2.77-2.65,1.33-4.28.8-7.29,1.5-2.08.48-3.17,1.92-5.35,2.43-2.53.59-5.22-.26-7.87.41-5.68,1.44-9.68,3.93-15.57,3.93a28,28,0,0,1-6.67-1.11c-2.9-.61-3.38-.23-6.68.64-5.75,1.53-12.23-1-17.9.38-4.71,1.14-7.07,3.47-12.73,1.84-2.1-.61-3.19-2.39-6.12-1.83s-4.41,2.92-7.78,2.49c-2.35-.3-2.67-2.32-5.23-2.28-1.47,0-3.73,1.93-5.78,2.17-5,.57-12.58.82-17.34-.56-8.51-2.46-11.91-14.94-20.52-16.89-3.53-.8-4.35.83-7.78,1.64-2.54.6-5.18,0-7.78.14-3,.14-5,1.37-7.81,2.06-1.43.35-2.94-.23-4.26.4-.82.39-2.32,2.62-2.88,2.75-2.75.64-2.46-.76-5.05-1.89-2.34-1-4.09-.71-6.75-1s-3.62-1.61-5.69-2.09c-3.11-.74-6.6.06-9.82-.14a87.84,87.84,0,0,1-15.07-2.77c-1.54-.4-3.93-1.41-5.84-1.94a71.22,71.22,0,0,1-7.5-2.46c-8.18-3.63-9.42-14.78-19.38-15.14-5.54-.21-11.15,0-16.7,0-2.41,0-5.58.57-7.87.08-2.56-.55-3.92-1.94-6.5-2.39s-4.84.31-7.38-.41c-2.82-.8-3.54-1.51-7.17-1.67-5.3-.23-11.52-2.77-16.48-4.78s-6.67-1.82-11.87.83c-3.29,1.67-7.21,5-10.75,5.92-2.37.62-4.7,0-7.1.69-2.85.79-3.42,1.76-7.18,1.72-6.27-.07-10.74-.35-16.67-2.49-5.75-2.09-10.59-3.87-16.68-4.12-3.11-.12-4.8-1.41-7.78-2.09s-6,.27-8.9-.11a37.58,37.58,0,0,1-13.9-5c-3.81-2.54-5.76-6.89-9.39-9.56-6.65-4.89-21.74-4.91-29.89-3.09-4.42,1-7.5,3.19-10.69,6.48-4.47,4.6-7.71,4.53-14,4.45a24.65,24.65,0,0,0-7.29.49c-2.1.61-3.19,2.37-6.12,1.84a15.52,15.52,0,0,1-5.49-2.34c-1.35-.82-1.84-.45-2.9-1.55s-.9-3.1-1.72-3.83c-4.66-4.12-8.33,1.39-12.06,4.3s-7,6-11.07,8c-9.06,4.43-17.44,9.56-26.74,14.21s-18.87,10.19-28.92,10c-5.18-.1-8.56,2.72-13.32,2.32-2.94-.24-5-2-7.8-2.44-3.2-.55-6-.23-8.9-1-9.47-2.46-19.68-4.44-28.91-6.67-1.8-.44-4.16-1-6.18-1.6-1.14-.34-.88-1.47-2.59-1.86-1.09-.24-2.45.48-3.52.19-2.06-.57-3.37-1.91-5.39-2.4-2.77-.68-7.25.1-10.12.11-11.28,0-21-4.58-32.25-4.45-6.06.07-10.82-2.1-16.68-2.24-5.47-.14-11.29.69-16.73.07-3.28-.37-3.65-1.7-6.5-2.39-2.23-.54-5.63.11-7.9.12-5.56,0-11.12,0-16.68,0a91.94,91.94,0,0,1-30.63-4.95c-3.74-1.24-9.06-4.13-12.74-6.09-4.46-2.37-8.18-5.95-11.68-9.53-7.57-7.77-16.84-6.12-27.24-6.12-11,0-22.65,1-33.41-.55-4.52-.66-2.47-1.36-6.62.56-1.81.83-3.47,1.59-5.28,2.49-3.95,2-8,4.87-12.51,5.9-9,2.07-17.91,3.29-26.13,6.84-6.86-7.73-17.77-5.6-27.24-8.07-5.66-1.48-12-.13-17.79-.45-3.47-.19-5.6-1.68-8.91-2.39-2.62-.56-6.18.12-8.89.12-5.74,0-12.15.8-17.84,0-5.14-.68-8.58-2.3-14.4-2.28-11.08.05-22-.25-31.64-4.07C512.79,374.85,503,373,499,373c-5.29-.08-8.09,2.28-13.36,2.2-5.91-.08-11.86-.08-17.77,0-4.89.07-8.25-1.55-12.87-2.7-8-2-17,5.09-24.33.75-3.5-2.07-8.51-6.52-12.23-7.83-3.89-1.37-12-1.21-16-.25-4.18,1-8.13-7-12.43-5.53a44.46,44.46,0,0,0-12.26,6.65c-3.24,2.51-6.48,4.6-9.42,7.26-3.59,3.26-4.76,7.89-7.48,11.42-6.71,8.7-17.89,10.3-27.36,14.71-4.12,1.92-7.65,5.23-11.94,7.27-4.1,1.95-9,1.8-13.22,3.47-2.5-3.76-12.09-1.85-16.17-1.85-6.09,0-12.29-.34-17.8,1.11-4.78,1.27-8.34,1.05-13.26-.27-5.84-1.57-12.18.6-18-.72-4-.91-7.7-5.08-11.49-6.3a48,48,0,0,0-16.19-2.71c-5.63,0-12.36-1-17.87-.09a17.52,17.52,0,0,0-5.48,2.31c-3,1.57-5.26,1.66-8.4,2.72-4,1.36-8.09,4.72-12.1,5.69-2.23.54-4.94,1.85-6.68,2.21-3.15.67-6.37,0-9.52.69-7,1.5-9.46,2.54-16.68-.19-6-2.29-12-4-17.9-6.67a74.64,74.64,0,0,0-15.45-4.57c-2.5-.51-5.37.73-7.87.2-3-.62-4.49-2-7.64-2.36-10.72-1.12-20.47,42.47-31.15,41.11-6.57-.84-12.69-.79-18.45-3.79s-7.57-5.11-15-5.06c-6.85,0-11.26-1.19-16.11,3.9C7.93,437.08,5.05,441.24,3,441c-4.39-.5-2.16-7.44,0-9.17"/>
      <path class="cls-1" d="M849.21,281.18c-1,3.74,33.09,13,33.71,15.5.38,1.52,0,4.44.93,5.74,1.27,1.87,5.6,4.19,7.53,4.7,5.72,1.52,19.08-3,23.16,1.43,1.79-2,10.47-3.37,13.34-3.51,5.08-.25,8.82-.5,13.29-2.11,5.17-1.86,9-2.18,14.51-2.27,7.2-.11,9-3.79,14.52-6.74,8.39-4.49,16.64-4.4,26.62-4.4,4.82,0,9.64.05,14.46,0,5.3-.06,8.29,2,13.32,2.24,4.73.19,11,.79,15.59-.21,5.11-1.12,10-3.31,15.65-2.12,2.26.48,3.25,1.94,5.36,2.43,2.64.61,4.23-.43,6.81.88,4.18,2.12,6.39,7.73,11.13,9.1.68.2,1.23,1.16,2.19,1.25,1.88.15,1.75-2.1,2.73-2.09,2.31,0,3.9,1.52,6.18,2,5.28,1.06,11.51-1.48,16.75-.21,2.15.53,3.31,1.94,5.36,2.42s4.73-.74,6.91-.23,3.12,1.95,5.36,2.43c2.61.55,6.32-.09,9-.09,5.27,0,11.52-1,16.68-.11,6.06,1.07,11.18,3.62,17.79,2.45,3.29-.58,5.43-2.2,8.89-2.39,2.57-.14,5.21.05,7.79.05,6,0,10.94-.13,16.07,1.86,1.88-3.33,6-1.23,9-.76,3.71.59,3.6.52,7.06-1.1,1.65-.77,4.94-2.33,6.79-2.4,1.46-.05,3,1.41,4.44,1.42,4.21.05,9-2.43,13.46-1.36,3.64.88,4.51,2.45,8.78,2.34s5.29,1.47,8.78,2.34c4.1,1,6.59-1.23,9.51-1.84,4.12-.87,8.92.6,13-.38,3.73-.9,4.27-2.08,8.79-2.28,3.74-.17,7.07-1.6,10.62-2.83s5-1.77,9.38-1.69a19.79,19.79,0,0,0,11.08-2.64c1.16-.72,3.1-3.14,4.5-3.65,2.2-.8,4.39-.31,6.67-.86a90.41,90.41,0,0,1,11.17-1.68,23.38,23.38,0,0,0,8.79-2.71c1.46-.89,3-3.08,4.5-3.64,2.51-.94,5.07-.15,7.6-.56,2.7-.45,5.48-2.84,8.89-3,1.06,0,2.57,1.27,3.53,1.1,1.92-.34,1.9-1.84,3.55-2.2a69,69,0,0,0,17-6.32c5.74-2.85,11.67-6.26,17.23-9.44,6.72-3.85,14.56-4.77,21.74-7.18,2.07-.69,5.1-2.76,7.17-4,4.58-2.66,2.56-2.76,4.4-6.73a32,32,0,0,1,13.89-15c6.1-3.13,13.47-4.09,19.52-7.16,5.79-2.94,11.39-6.55,17.24-9.45,2.26-1.13,4.62-3.45,7.11-4,3.41-.78,7.27.36,10.74-.38.49-.1,1.66-1.62,2.6-1.84,1.89-.46,4.83.09,6.79.11,4.43,0,8,.33,11.73-1.61A21.62,21.62,0,0,0,1544,203c1.93-2.63,1.76-6.18,4.89-8.56,6.71-5.13,12.71-3.69,20.44-5.14,1.51-.29,1.7-1.74,3.41-2.15s3.93.21,5.7.14c3.64-.16,4.67-1,7.69-2.32,6.36-2.81,15-2.9,22.36-1.6a55.47,55.47,0,0,1,16.07,5.56,65.11,65.11,0,0,1,8.4,4.45c3.51,2.43,3.76,4.67,6,7.83,3.09,4.36,11.31,7,16.07,8.35,4.37,1.28,5.63,1.45,9.55,3.89a43.58,43.58,0,0,0,10.58,4.44c3.63.89,7.37.56,11.12.51,4.4-.05,6.92,1.6,11.11,2.34,3.49.61,7.59-.36,11.12-.17,4.36.23,8.64,1.76,12.85,2.76,5.46,1.3,12.64,4.28,18.29,6.8,6.41,2.86,12.39,5.63,18.63,8.56,5.91,2.78,8.58,7.17,13.78,10.86,6,4.21,16.09,4.42,23.19,4.43a139.45,139.45,0,0,0,26.74-2.23c2.52-.48,2.46-.24,4.39-1.27,2.34-1.25,3.52-4.06,6.68-4.95,1.94-.53,2.66-.26,4.44-.45,3-.31,5-1.47,7.79-2,16.4-3.27,34.4,1,49.54,4.74.65.17,1.55,1.61,2.6,1.86,2.83.67,6.17-.84,9-.23,4.19.89,7.83,1.83,12,2.52"/>
    </g>
  </g>
</svg>
