<?xml version="1.0" encoding="utf-8"?>
<!-- Generator: Adobe Illustrator 24.1.3, SVG Export Plug-In . SVG Version: 6.00 Build 0)  -->
<svg version="1.1" id="Layer_1" xmlns="http://www.w3.org/2000/svg" xmlns:xlink="http://www.w3.org/1999/xlink" x="0px" y="0px"
	 viewBox="0 0 465.3 1051.5" style="enable-background:new 0 0 465.3 1051.5;" xml:space="preserve">
<style type="text/css">
	.st0{fill:none;stroke:#D9D7D9;stroke-miterlimit:10;}
	.st1{fill:none;stroke:#D9D7D9;stroke-linecap:square;stroke-linejoin:round;stroke-miterlimit:10;}
</style>
<g id="Nodes_and_Edges" transform="translate(0.25 0.25)">
	<g id="Layer_1_1_" transform="translate(0.25 0.25)">
		<circle id="Ellipse_25" class="st0" cx="184" cy="194.1" r="32.6"/>
		<circle id="Ellipse_26" class="st0" cx="156.8" cy="628.2" r="32.6"/>
		<circle id="Ellipse_27" class="st0" cx="249.7" cy="377.8" r="21.7"/>
		<circle id="Ellipse_28" class="st0" cx="340.5" cy="543.7" r="21.7"/>
		<circle id="Ellipse_29" class="st0" cx="155.8" cy="363.1" r="16.3"/>
		<circle id="Ellipse_30" class="st0" cx="340.5" cy="194.9" r="16.3"/>
		<circle id="Ellipse_31" class="st0" cx="294.9" cy="1034.2" r="16.3"/>
		<circle id="Ellipse_32" class="st0" cx="448" cy="966.3" r="16.3"/>
		<circle id="Ellipse_33" class="st0" cx="104.7" cy="768" r="16.3"/>
		<circle id="Ellipse_33_1_" class="st0" cx="22" cy="630.1" r="16.3"/>
		<circle id="Ellipse_34" class="st0" cx="408.3" cy="736.7" r="21.7"/>
		<circle id="Ellipse_35" class="st0" cx="218.4" cy="908.9" r="21.7"/>
		<circle id="Ellipse_35_1_" class="st0" cx="79.3" cy="474.4" r="21.7"/>
		<circle id="Ellipse_36" class="st0" cx="400" cy="371.5" r="27.1"/>
		<circle id="Ellipse_37" class="st0" cx="405.2" cy="27.1" r="27.1"/>
		<line id="Line_55" class="st0" x1="209" y1="215" x2="380.8" y2="352.3"/>
		<line id="Line_56" class="st0" x1="271.4" y1="377.8" x2="372.7" y2="375.7"/>
		<line id="Line_57" class="st0" x1="190.2" y1="226" x2="239" y2="358.9"/>
		<line id="Line_58" class="st0" x1="239" y1="396.6" x2="171.4" y2="599.1"/>
		<line id="Line_59" class="st0" x1="188.5" y1="635.6" x2="388.4" y2="727.2"/>
		<line id="Line_60" class="st0" x1="393.7" y1="752.8" x2="236.1" y2="895.3"/>
		<line id="Line_61" class="st0" x1="165.2" y1="376.4" x2="322.7" y2="531.2"/>
		<path id="Path_143" class="st1" d="M349.4,523.6l43.1-125.7L184.8,611.5"/>
		<line id="Line_62" class="st0" x1="399.5" y1="344.2" x2="347.9" y2="209.4"/>
		<line id="Line_63" class="st0" x1="260.4" y1="358.9" x2="332.5" y2="209.5"/>
		<line id="Line_64" class="st0" x1="179.3" y1="652" x2="434.4" y2="956.4"/>
		<line id="Line_65" class="st0" x1="408.3" y1="758.4" x2="444.4" y2="950"/>
		<line id="Line_66" class="st0" x1="113.7" y1="781.9" x2="201.5" y2="895.3"/>
		<line id="Line_67" class="st0" x1="311.1" y1="1029.8" x2="434.8" y2="976.7"/>
		<line id="Line_68" class="st0" x1="431.7" y1="966.3" x2="239.1" y2="916.1"/>
		<line id="Line_69" class="st0" x1="351.7" y1="562.3" x2="401.2" y2="715.8"/>
		<line id="Line_70" class="st0" x1="164.6" y1="660.4" x2="287.9" y2="1019.5"/>
		<line id="Line_71" class="st0" x1="329.3" y1="562.3" x2="224.4" y2="887.8"/>
		<line id="Line_72" class="st0" x1="154.3" y1="346.6" x2="167.9" y2="222"/>
		<line id="Line_73" class="st0" x1="113" y1="753.4" x2="142.9" y2="658.1"/>
		<line id="Line_74" class="st0" x1="211.4" y1="175.8" x2="384.1" y2="44.2"/>
		<line id="Line_75" class="st0" x1="392.8" y1="51.3" x2="346.4" y2="179.4"/>
		<line id="Line_61_1_" class="st0" x1="147.6" y1="378.7" x2="92" y2="456.5"/>
		<line id="Line_58_1_" class="st0" x1="85.1" y1="495.4" x2="136.8" y2="602.2"/>
		<line id="Line_61_2_" class="st0" x1="100.7" y1="478.6" x2="318.5" y2="544.4"/>
		<line id="Line_58_2_" class="st0" x1="71.8" y1="494.9" x2="27.1" y2="614.6"/>
		<line id="Line_73_1_" class="st0" x1="93.8" y1="755.4" x2="28" y2="645.4"/>
	</g>
</g>
</svg>
