<svg xmlns="http://www.w3.org/2000/svg" viewBox="0 0 449.82 83.94"><defs><style>.cls-1{fill:#fff;}.cls-2{fill:#86a3d4;}.cls-2,.cls-3,.cls-4,.cls-5{stroke:#173b45;}.cls-18,.cls-2,.cls-3,.cls-4,.cls-5{stroke-miterlimit:10;}.cls-2,.cls-3,.cls-4{stroke-width:0.28px;}.cls-3{fill:#acaab0;}.cls-4{fill:none;}.cls-5{fill:#173b45;stroke-width:1.47px;}.cls-6{fill:#c52034;}.cls-10,.cls-11,.cls-12,.cls-13,.cls-14,.cls-15,.cls-17,.cls-18,.cls-7,.cls-8,.cls-9{isolation:isolate;}.cls-10,.cls-12,.cls-13,.cls-14,.cls-15,.cls-17,.cls-8,.cls-9{font-size:29.01px;}.cls-10,.cls-11,.cls-12,.cls-13,.cls-14,.cls-15,.cls-17,.cls-8,.cls-9{fill:#020202;font-family:AvenirNextLTPro-Regular, Avenir Next LT Pro;}.cls-8{letter-spacing:0.07em;}.cls-9{letter-spacing:0.05em;}.cls-10{letter-spacing:0.06em;}.cls-11{font-size:19.73px;letter-spacing:0.07em;}.cls-12{letter-spacing:0.07em;}.cls-13{letter-spacing:0.01em;}.cls-14{letter-spacing:0.07em;}.cls-15{letter-spacing:0.05em;}.cls-16{letter-spacing:0.05em;}.cls-17{letter-spacing:0.02em;}.cls-18{fill:#c82539;stroke:#010101;stroke-width:0.88px;}</style></defs><g id="Layer_2" data-name="Layer 2"><g id="Layer_2-2" data-name="Layer 2"><circle class="cls-1" cx="37.74" cy="81.27" r="2.67"/><circle class="cls-1" cx="2.67" cy="42.01" r="2.67"/><circle class="cls-1" cx="11.34" cy="21.95" r="2.67"/><circle class="cls-1" cx="37.8" cy="2.69" r="2.69"/><circle class="cls-1" cx="64.15" cy="22.11" r="2.69"/><circle class="cls-1" cx="72.91" cy="42.11" r="2.69"/><circle class="cls-1" cx="64.13" cy="61.45" r="2.69"/><polyline class="cls-1" points="37.73 1.82 64.62 21.56 73.63 42.03 64.62 61.77 37.73 82.21 10.81 61.77 1.85 42.03 10.81 21.56 37.73 1.82"/><polygon class="cls-1" points="37.73 2.74 11.42 22.04 2.67 42.03 11.42 61.32 37.73 81.28 64.01 61.32 72.8 42.03 64.01 22.04 37.73 2.74"/><polygon class="cls-2" points="37.73 2.74 11.42 22.04 2.67 42.03 28.95 22.04 37.73 2.74"/><polygon class="cls-2" points="64.04 22.39 37.73 42.03 28.95 61.42 55.24 41.68 64.04 22.39"/><polygon class="cls-3" points="37.73 2.74 28.95 22.04 37.73 42.03 46.48 22.04 37.73 2.74"/><polygon class="cls-3" points="64.04 22.39 55.24 41.68 64.04 61.67 72.79 41.68 64.04 22.39"/><line class="cls-4" x1="37.73" y1="2.74" x2="64.01" y2="22.04"/><line class="cls-4" x1="46.48" y1="22.04" x2="72.8" y2="42.03"/><line class="cls-4" x1="28.95" y1="22.04" x2="55.26" y2="42.03"/><line class="cls-4" x1="11.42" y1="22.04" x2="64.01" y2="61.32"/><line class="cls-4" x1="2.67" y1="42.03" x2="29.09" y2="61.32"/><line class="cls-4" x1="11.42" y1="61.32" x2="37.73" y2="81.28"/><line class="cls-4" x1="20.2" y1="42.03" x2="46.48" y2="61.32"/><line class="cls-4" x1="11.42" y1="22.04" x2="20.2" y2="42.03"/><line class="cls-4" x1="2.67" y1="42.03" x2="11.42" y2="61.32"/><line class="cls-4" x1="72.8" y1="42.03" x2="46.48" y2="61.32"/><line class="cls-4" x1="37.73" y1="42.03" x2="46.48" y2="61.32"/><line class="cls-4" x1="37.73" y1="81.28" x2="64.01" y2="61.32"/><line class="cls-4" x1="37.73" y1="81.28" x2="46.48" y2="61.32"/><line class="cls-4" x1="37.73" y1="81.28" x2="29.09" y2="61.32"/><line class="cls-4" x1="20.2" y1="42.03" x2="46.48" y2="22.04"/><line class="cls-4" x1="11.42" y1="61.32" x2="20.2" y2="42.03"/><line class="cls-4" x1="11.42" y1="61.32" x2="37.73" y2="42.03"/><path class="cls-5" d="M74.2,42a1.46,1.46,0,0,1-2.9.27h0a1.22,1.22,0,0,1,0-.27,1.45,1.45,0,0,1,2.9,0Z"/><path class="cls-6" d="M74.06,42.13a1.28,1.28,0,1,1,0-.26A1.13,1.13,0,0,1,74.06,42.13Z"/><path class="cls-5" d="M56.73,42a1.46,1.46,0,0,1-2.91.27.61.61,0,0,1,0-.27,1.4,1.4,0,0,1,1.45-1.34h.13A1.49,1.49,0,0,1,56.73,42Z"/><path class="cls-6" d="M56.53,42a1.28,1.28,0,1,1-1.27-1.27h0A1.26,1.26,0,0,1,56.53,42Z"/><path class="cls-5" d="M39.2,42a1.4,1.4,0,1,1-1.48-1.4A1.47,1.47,0,0,1,39.2,42Z"/><path class="cls-6" d="M39,42a1.27,1.27,0,1,1-1.27-1.27h0A1.25,1.25,0,0,1,39,42Z"/><path class="cls-5" d="M18.76,42.11A1.44,1.44,0,0,1,21.64,42a1.44,1.44,0,1,1-2.88.16Z"/><path class="cls-6" d="M19.08,42.23a1.27,1.27,0,0,1,1.17-1.39h0a1.2,1.2,0,1,1-.07,2.39,1.22,1.22,0,0,1-1.14-1Z"/><path class="cls-5" d="M1.22,42.11a1.44,1.44,0,1,1,1.52,1.41,1.45,1.45,0,0,1-1.52-1.41h0Z"/><path class="cls-6" d="M1.44,42.28a1.28,1.28,0,0,1,1.14-1.4h.07a1.22,1.22,0,0,1,1.2,1.23,1.2,1.2,0,0,1-1.29,1.13A1.22,1.22,0,0,1,1.44,42.28Z"/><path class="cls-5" d="M65.46,22a1.4,1.4,0,1,1-1.4-1.4,1.4,1.4,0,0,1,1.4,1.4Z"/><path class="cls-6" d="M65.28,22a1.22,1.22,0,1,1-1.22-1.22h0A1.21,1.21,0,0,1,65.28,22Z"/><path class="cls-5" d="M47.94,22a1.4,1.4,0,1,1-1.4-1.4A1.4,1.4,0,0,1,47.94,22Z"/><path class="cls-6" d="M47.74,22a1.26,1.26,0,1,1-1.26-1.26A1.26,1.26,0,0,1,47.74,22Z"/><path class="cls-5" d="M30.41,22a1.4,1.4,0,1,1,0-.27A1.22,1.22,0,0,1,30.41,22Z"/><path class="cls-6" d="M30.21,22A1.26,1.26,0,1,1,29,20.78h0A1.25,1.25,0,0,1,30.21,22Z"/><path class="cls-5" d="M10,22.11a1.35,1.35,0,1,1,0,.13Z"/><path class="cls-6" d="M10.16,22.09a1.16,1.16,0,1,1,0,.14Z"/><path class="cls-5" d="M65.46,61.32a1.4,1.4,0,1,1-1.4-1.4A1.4,1.4,0,0,1,65.46,61.32Z"/><path class="cls-5" d="M12.77,61.54a1.4,1.4,0,1,1-1.4-1.48h0a1.47,1.47,0,0,1,1.4,1.4Z"/><path class="cls-6" d="M65.28,61.32a1.22,1.22,0,1,1-1.22-1.22h0A1.22,1.22,0,0,1,65.28,61.32Z"/><path class="cls-5" d="M47.94,61.32a1.4,1.4,0,1,1-1.4-1.4A1.4,1.4,0,0,1,47.94,61.32Z"/><path class="cls-6" d="M47.74,61.32a1.26,1.26,0,1,1-1.26-1.27,1.25,1.25,0,0,1,1.26,1.26Z"/><path class="cls-5" d="M30.41,61.32a1.4,1.4,0,1,1-1.4-1.4h0A1.4,1.4,0,0,1,30.41,61.32Z"/><path class="cls-6" d="M30.21,61.32A1.26,1.26,0,1,1,29,60.05a1.25,1.25,0,0,1,1.26,1.26Z"/><path class="cls-6" d="M10.16,61.39a1.22,1.22,0,0,1,2.43,0,1.22,1.22,0,0,1-2.43.11S10.19,61.43,10.16,61.39Z"/><path class="cls-5" d="M39.2,2.8a1.36,1.36,0,1,1,0-.09Z"/><path class="cls-6" d="M39,2.8a1.27,1.27,0,1,1-1.28-1.26h0A1.25,1.25,0,0,1,39,2.79Z"/><path class="cls-5" d="M39.2,81.28a1.4,1.4,0,1,1-1.4-1.48h0a1.47,1.47,0,0,1,1.4,1.4Z"/><path class="cls-6" d="M39,81.28a1.22,1.22,0,1,1-1.21-1.21h0A1.21,1.21,0,0,1,39,81.28Z"/><g class="cls-7"><text class="cls-8" transform="translate(102.65 52.75)">Nume</text><text class="cls-9" transform="translate(191.53 52.75)">r</text><text class="cls-10" transform="translate(203.54 52.75)">a</text><text class="cls-8" transform="translate(220.66 52.75)">ti</text><text class="cls-11" transform="translate(240.93 46.81)">®</text><text class="cls-12" transform="translate(254.08 52.75)"> </text><text class="cls-13" transform="translate(263.24 52.75)">P</text><text class="cls-14" transform="translate(280.23 52.75)">a</text><text class="cls-15" transform="translate(297.64 52.75)">r</text><text class="cls-14" transform="translate(309.66 52.75)">tners <tspan class="cls-16" x="85.4" y="0">L</tspan></text><text class="cls-17" transform="translate(411.06 52.75)">L</text><text class="cls-14" transform="translate(426.9 52.75)">C</text></g><circle class="cls-18" cx="235.51" cy="33.92" r="1.74"/></g></g></svg>