<svg xmlns="http://www.w3.org/2000/svg" viewBox="0 0 255.28 63.67"><defs><style>.cls-1{fill:linear-gradient(to bottom #231f20, #231f20, 0.2);stroke:#231f20;stroke-miterlimit:10;stroke-width:0.5px;}</style></defs><g id="Layer_2" data-name="Layer 2"><g id="ouline_logo" data-name="ouline logo"><path class="cls-1" d="M2.94,20.22a.5.5,0,0,1-.15-.62"/><path class="cls-1" d="M202.32,23.24c.79,0,1.17.22,1.35.84a1,1,0,0,1,0,.54A4,4,0,0,1,200,27.1c-1.26-.1-1.59-.84-1.14-1.93A3.28,3.28,0,0,1,200,24,4.09,4.09,0,0,1,202.32,23.24Z"/><path class="cls-1" d="M203.23,29.08c-.09,1.07-.25,7.16-.3,9.24,0,1.37-.15,2.75-.24,4.12,0,.48-.24.65-.66.64s-.63-.18-.66-.64c0-.68-.39-6-.64-7.64A6.61,6.61,0,0,0,199,31.05c-.24-.25-.55-.41-.82-.64a2.06,2.06,0,0,1-.56-.58.58.58,0,0,1,.49-.88,4.57,4.57,0,0,1,.83,0c1.08,0,2.15,0,3.23,0A8.82,8.82,0,0,1,203.23,29.08Z"/><path class="cls-1" d="M191.09,28.44v.62a14.76,14.76,0,0,1,3.22-.47,1.51,1.51,0,0,1,1.2.87,3.48,3.48,0,0,1,.33,1.69c-.07,1.61-.19,7.3-.21,8.54,0,.86,0,1.72,0,2.58a.69.69,0,0,1-.64.79.78.78,0,0,1-.8-.78c0-.65-.09-1.3-.13-2,0-1-.37-5.08-.57-6.13a4.55,4.55,0,0,0-.56-1.26,1.52,1.52,0,0,0-2.6.13,16,16,0,0,0-1.31,4.41c-.25,1.57-.42,3.14-.62,4.72l0,.13c-.11.4-.51.7-.82.61a.82.82,0,0,1-.44-.86c.07-.67.12-1.34.23-2a19.88,19.88,0,0,0-1.12-8.52,5,5,0,0,0-1.33-2,1.1,1.1,0,0,1-.26-.79c0-.11.4-.28.62-.29C187.2,28.43,189.1,28.44,191.09,28.44Z"/><path class="cls-1" d="M163.22,39.32c-2.27-.73-4-4.36-2.59-7.12,1.16-2.3,2.42-3.38,5-3.76,1.88-.28,3.39-.14,4.46.73a6.42,6.42,0,0,1,2.74,5.14,5,5,0,0,1-1.94,4.28A8.43,8.43,0,0,1,163.22,39.32Zm2.21-2.47A4.51,4.51,0,0,0,170,35.19c.61-.9.15-2.79-2.33-3.61a4.37,4.37,0,0,0-4.76,1.93C162.11,35,163.67,36.6,165.43,36.85Z"/><path class="cls-1" d="M177,35.76c1.29.27,2.49.44,3.64.78a4.8,4.8,0,0,1,3.52,4.13,7,7,0,0,1-.91,5.22c-.34,0-.41-.14-.44-.41a7.26,7.26,0,0,0-2.5-4.64A5.45,5.45,0,0,0,176,39.63a16.09,16.09,0,0,0-2,.39.59.59,0,0,1-.67-.22c-.23-.26-.07-.48.06-.69,1.18-2,2.37-3.91,3.56-5.87.25-.42.51-.83.74-1.27a5.67,5.67,0,0,0,.27-.76,2.65,2.65,0,0,0-2.87,1,9.64,9.64,0,0,1-.73.83,2.93,2.93,0,0,1-.17-.52A18.84,18.84,0,0,1,174,29c.06-.7.12-.79.8-.8,1.75,0,3.5,0,5.25,0,.7,0,1.4,0,2.09.09s.76.51.41,1a4.89,4.89,0,0,1-.4.39C180.73,31.17,177.29,35.3,177,35.76Z"/><path class="cls-1" d="M75.38,30c-.2-.09-.47-.12-.61-.27a1.46,1.46,0,0,0-1.47-.4c-.19,1.12-.44,2.25-.57,3.4-.27,2.34-.38,4.7-.74,7a40.46,40.46,0,0,0-.5,4.66c0,.74,0,1.48,0,2.26H70.34c-.09-1.56-.22-3.09-.26-4.62C70,39,70,35.91,70,32.83c0-.9-.1-1.8-.18-2.7a2,2,0,0,0-.2-.81A1.54,1.54,0,0,0,69,28.9a.52.52,0,0,0-.28,0c-.82,0-2.07-1.84-2.25-2.22.63-.38,1.19-.11,1.71-.06,1.52.16,1.57.15,1.71-1.35a7.19,7.19,0,0,0-1.58-4.88c-.11-.15-.23-.3-.33-.45s0-.09,0-.13h7.58A33.76,33.76,0,0,0,74.49,23,36.19,36.19,0,0,0,74,26.77c0,.19.19.44.34.62A3.67,3.67,0,0,1,75.37,30Z"/><path class="cls-1" d="M99.63,27.87l-.17,4.2c-.25-.13-.41-.19-.55-.28a6.85,6.85,0,0,0-5-.47c-.46.1-1.31.28-1.09,1s2,.47,2.72.47c2.17,0,4.42.4,5.39,3.24a6,6,0,0,1,0,3.87,4.78,4.78,0,0,1-2,2.86c-1.47,1-4.62.7-5.5.58a3.89,3.89,0,0,0-2.52.25,4,4,0,0,0-.8.53,1,1,0,0,1-.73.36,5.43,5.43,0,0,1,.1-.72,4.45,4.45,0,0,1,4.65-2.53c.58.07,1.15.14,1.73.18a3,3,0,0,0,2.74-3.74,1.47,1.47,0,0,0-1-.84c-.83-.31-4.19-.75-5.06-1a3.51,3.51,0,0,1-1.4-.72c-.65-.5-1.28-2.61-1-4.15A2.47,2.47,0,0,1,91.6,29.1a7,7,0,0,1,3.32-.75c.74,0,1.49,0,2.24,0A6.28,6.28,0,0,0,99.63,27.87Z"/><path class="cls-1" d="M99.77,19.83c.09-.51.71-.39,1.13-.4,1.4,0,2.8,0,4.2,0a.88.88,0,0,1,1,1,2.81,2.81,0,0,1-.08.76c-.13.57-.27,1.14-.43,1.7a28.26,28.26,0,0,0-.88,5.16c0,.14-.08.51-.07.65s1.42-.09,2.06-.13a8.81,8.81,0,0,1,3.11.24A2.15,2.15,0,0,1,111.2,30a8,8,0,0,1,.55,2.64c0,1.68,0,3.36,0,5s0,3.64,0,5.46c0,.37-.18.92-.61.76s-.46-.78-.43-1.28a51,51,0,0,0-.83-7.55c-.12-.71-.23-2.91-1.81-3a19.63,19.63,0,0,0-2.42.24c-.68.11-1.66.33-1.79,1.39-.33,2.83-.62,9.07-.67,9.34a.43.43,0,0,1-.56.38c-.3,0-.38-.21-.37-.54.06-2,.07-3.92.11-5.87,0-1.06.1-2.11.07-3.15-.08-2-.22-4.05-.33-6.07,0-.42,0-.83-.07-1.25a12.08,12.08,0,0,0-1.31-5C100.36,20.91,99.66,20.49,99.77,19.83Z"/><path class="cls-1" d="M223.7,19.19c.37.35.07,12,.1,12.65s.19.66.7.69a3.43,3.43,0,0,0,3.24-1.8,5.63,5.63,0,0,0,.87-3c0-.32,0-.65,0-1,0-.5.12-.61.74-1.09.06.1,1.11,1.93,1.49,2.75.59,1.28.22,2.53-1,3.68a4.54,4.54,0,0,1-.42.35c.15.11.28.19.39.28a2.16,2.16,0,0,1,.86,1.69c0,.84,0,1.68,0,2.52,0,1.78-.06,3.55-.1,5.32a7.17,7.17,0,0,1-.08,1,.92.92,0,0,1-.86.76c-.5,0-.6-.38-.65-.77a4.58,4.58,0,0,1,0-.83,13.54,13.54,0,0,0-1.14-5.86,3.93,3.93,0,0,0-1.3-1.7,3.08,3.08,0,0,0-2.15-.35c-.43,0-.61.41-.63.81-.06,1-.1,2-.14,3-.06,1.51-.1,3-.17,4.53a1.1,1.1,0,0,1-.2.59.68.68,0,0,1-.46.29c-.25,0-.6.08-.7-.3a2.22,2.22,0,0,1-.12-.75c.23-2.35,0-9.11,0-10.13a19.84,19.84,0,0,0-1.46-8.27,11,11,0,0,0-1.5-3c-.17-.21-1-.93-1.1-1.15-.35-.6-.12-1,.57-1,1.21,0,2.42-.09,3.63-.1C222.62,19.09,223.13,19.16,223.7,19.19Z"/><path class="cls-1" d="M219.26,27.31c-.25,5.52-.49,11-.73,16.4,0,0-.6-.08-.76-.35a4.35,4.35,0,0,1-.45-2.58,2,2,0,0,0,0-.34c0-.71-.26-.85-.92-.55a11.54,11.54,0,0,1-5.57,1.1,4.68,4.68,0,0,1-4-2.6,9.84,9.84,0,0,1-1.17-4.68A6.22,6.22,0,0,1,211,27.52a27.44,27.44,0,0,1,3.63-.25c1.26,0,2.52,0,3.78,0C218.69,27.26,218.94,27.29,219.26,27.31Zm-7,3.87A7.88,7.88,0,0,0,208,33.25a1.76,1.76,0,0,0-.39,2.06,2.24,2.24,0,0,0,1.23,1.19,7.52,7.52,0,0,0,8.35-1.32,2.3,2.3,0,0,0,.68-1.2c.26-1.41-.23-2.75-1.9-2.89A26.09,26.09,0,0,0,212.27,31.18Z"/><path class="cls-1" d="M127.26,27.31c-.25,5.52-.49,11-.73,16.4,0,0-.6-.08-.76-.35a4.35,4.35,0,0,1-.45-2.58,2,2,0,0,0,0-.34c0-.71-.26-.85-.92-.55a11.54,11.54,0,0,1-5.57,1.1,4.68,4.68,0,0,1-4-2.6,9.84,9.84,0,0,1-1.17-4.68A6.22,6.22,0,0,1,119,27.52a27.44,27.44,0,0,1,3.63-.25c1.26,0,2.52,0,3.78,0C126.69,27.26,126.94,27.29,127.26,27.31Zm-5,3.64c-.55.06-1.3.09-2,.23A7.88,7.88,0,0,0,116,33.25a1.76,1.76,0,0,0-.39,2.06,2.24,2.24,0,0,0,1.23,1.19,7.52,7.52,0,0,0,8.35-1.32,2.3,2.3,0,0,0,.68-1.2c.26-1.41-.23-2.75-1.9-2.89Z"/><path class="cls-1" d="M88.26,27.31c-.25,5.52-.49,11-.73,16.4,0,0-.6-.08-.76-.35a4.35,4.35,0,0,1-.45-2.58,2,2,0,0,0,0-.34c0-.71-.26-.85-.92-.55A11.54,11.54,0,0,1,79.87,41a4.68,4.68,0,0,1-4-2.6,9.84,9.84,0,0,1-1.17-4.68A6.22,6.22,0,0,1,80,27.52a27.44,27.44,0,0,1,3.63-.25c1.26,0,2.52,0,3.78,0C87.69,27.26,87.94,27.29,88.26,27.31ZM83.3,31c-.55.06-1.3.09-2,.23A7.88,7.88,0,0,0,77,33.25a1.76,1.76,0,0,0-.39,2.06,2.24,2.24,0,0,0,1.23,1.19,7.52,7.52,0,0,0,8.35-1.32,2.3,2.3,0,0,0,.68-1.2c.26-1.41-.23-2.75-1.9-2.89Z"/><path class="cls-1" d="M66.26,27.31c-.25,5.52-.49,11-.73,16.4,0,0-.6-.08-.76-.35a4.35,4.35,0,0,1-.45-2.58,2,2,0,0,0,0-.34c0-.71-.26-.85-.92-.55A11.54,11.54,0,0,1,57.87,41a4.68,4.68,0,0,1-4-2.6,9.84,9.84,0,0,1-1.17-4.68A6.22,6.22,0,0,1,58,27.52a27.44,27.44,0,0,1,3.63-.25c1.26,0,2.52,0,3.78,0C65.69,27.26,65.94,27.29,66.26,27.31ZM61.3,31c-.55.06-1.3.09-2,.23A7.88,7.88,0,0,0,55,33.25a1.76,1.76,0,0,0-.39,2.06,2.24,2.24,0,0,0,1.23,1.19,7.52,7.52,0,0,0,8.35-1.32,2.3,2.3,0,0,0,.68-1.2c.26-1.41-.23-2.75-1.9-2.89Z"/><path class="cls-1" d="M26.1,19.68h7.27c.09.38.16.78.29,1.18.89,2.84,1.67,5.73,2.72,8.52a51.64,51.64,0,0,0,2.67,5.24,37.48,37.48,0,0,0,3.67,5.87c1.34,1.73,4.84,5.61,5.36,5.66a39.18,39.18,0,0,0,.2-4A32,32,0,0,0,48,37c-.28-2.1-.65-9-2.44-13.76-.32-1-1.41-3.26-1.46-3.38a48.84,48.84,0,0,1,7.35-.1c-.08.9-.18,1.79-.23,2.68-.09,1.44-.08,2.89-.23,4.33-.18,1.73,0,7,0,8,0,1.59.17,3.17.2,4.75,0,1.91.06,6.72.09,7.2a1.17,1.17,0,0,1-1.14,1.38,4,4,0,0,1-2.79-.65,31.89,31.89,0,0,1-5.48-4.34,67,67,0,0,1-6-6.22c-1.06-1.3-2-2.69-3-4.07-.77-1.11-1.47-2.26-2.18-3.35-.16,1.16-.31,2.34-.5,3.51a27.24,27.24,0,0,1-1.89,5.7,50.89,50.89,0,0,1-4.61,9.14l-1.14-1.2a92.25,92.25,0,0,0,5.25-10.74c1.32-3.24,1-9.26.3-11.23A16.8,16.8,0,0,0,26.1,19.68Z"/><path class="cls-1" d="M149,41.86a8.4,8.4,0,0,0,2.45-2.41,35.88,35.88,0,0,0,4.53-8.57,23.29,23.29,0,0,0,1.34-4.55,15.53,15.53,0,0,0-.1-5.09,2.46,2.46,0,0,0-.79-1.36,8.39,8.39,0,0,1-1-1.1,2.24,2.24,0,0,1-.23-.68h6.87a2.54,2.54,0,0,1,.37,1.62,35.83,35.83,0,0,1-1,5.43,25.52,25.52,0,0,1-2.82,7.57A67.32,67.32,0,0,1,154.36,39a29.3,29.3,0,0,1-5.63,5.44,6.41,6.41,0,0,1-1.55.77c-.43.17-.65,0-.7-.46,0-.07,0-.14,0-.21,0-1,0-1.91,0-2.86-.07-2.08-.15-4.15-.23-6.23,0-.32,0-.63,0-1.1-.5.59-.86,1.06-1.26,1.49-1.82,1.92-3.61,3.85-5.48,5.71a23.91,23.91,0,0,1-2.87,2.35,9,9,0,0,1-2,.95c-.45.18-.73,0-.75-.52,0-1,0-1.91,0-2.87,0-2,0-3.92,0-5.88,0-.77.05-1.54,0-2.31-.11-2.89-.21-5.78-.39-8.67a11.2,11.2,0,0,0-2-6.18c-.16-.22-.33-.44-.57-.74a4,4,0,0,1,.6-.12c1.68,0,3.35-.05,5-.05,1,0,1.44.58,1.18,1.5a47.34,47.34,0,0,0-.87,5.67c-.28,1.89-.45,3.79-.64,5.7-.23,2.23-.63,10-.63,11.77.35-.29.69-.53,1-.81a31.83,31.83,0,0,0,5.1-6.4,22.37,22.37,0,0,0,3-8.6,13.32,13.32,0,0,0-.45-5.61,6.44,6.44,0,0,0-.67-1.37c-.44-.73-.18-1.34.67-1.37,1.64,0,3.27,0,4.9-.06a.5.5,0,0,1,.54.52,12,12,0,0,1,0,1.47c-.16,2.31-.37,4.61-.52,6.92-.13,2.05-.23,4.1-.33,6.15C148.8,34.46,148.5,40.38,149,41.86Z"/><path class="cls-1" d="M16.64,16.57l-.92-.39c.5-.35,1-.64,1.38-.95a3.48,3.48,0,0,0,1.31-3,5.28,5.28,0,0,0-1.66-3.83,4.17,4.17,0,0,0-1.62-1.22c.2.92.46,1.84.58,2.77a3.21,3.21,0,0,1-3.23,3.51,2.89,2.89,0,0,1-2.83-2.33A5.15,5.15,0,0,1,10.14,7a6,6,0,0,1,3.08-2.84,4.8,4.8,0,0,1,5.49,1.22,10.62,10.62,0,0,1,2.21,4.7,6.33,6.33,0,0,1,.08,3,15.78,15.78,0,0,1,2.57.73c1.62.76,2.06,2.28,2.2,3.93a3.44,3.44,0,0,1-1.25,2.91,2.19,2.19,0,0,1-1.81.58,4.4,4.4,0,0,1-2.27-1c-.35-.29-.38-.47-.22-1a2,2,0,0,1,.42.19c.7.58,1.78-.08,2-1,.08-.4-.18-.6-.46-.78a2.1,2.1,0,0,0-2.6.71c-.84,1.37-1.72,2.73-2.47,4.15a17.79,17.79,0,0,0-1.92,6.11,22.27,22.27,0,0,0,.61,10.22c1,3,2.13,5.86,3.31,8.76a40.78,40.78,0,0,0,5.49,9.24,25.79,25.79,0,0,0,5.27,5.11c.41.3.86.56,1.27.86a2.86,2.86,0,0,1,.42.43c.11.11-.6.36-.69.35-.34,0-.63-.35-.87-.55-.73-.59-1.43-1.23-2.17-1.83-2.68-2.18-5.33-3.88-8.87-4.08-.53,0-1.05-.18-1.58-.23s-.79,0-1.23,0L16,59a1.89,1.89,0,0,0-2.36.23c-.12,0-.18,0-.2-.07-.65-.7-.64-.7-1.51-.24-.49.26-.58.22-.76-.28a2.26,2.26,0,0,1-.14-.47c0-.51-.2-.84-.8-.83-.3,0-.42-.27-.37-.56a.88.88,0,0,0-.52-1,12.34,12.34,0,0,1-1.11-.89,9.71,9.71,0,0,1,.92-1.1A.7.7,0,0,0,9.34,53a12.33,12.33,0,0,1-.29-1.6h1.13l.29-1.63,1.53.78,1.09-1,.79.75c.4-.13.79-.28,1.19-.37.6-.13.65-.08.67.51v.88l1.47.11-.31,1.88c.17.15.42.35.66.58a2.31,2.31,0,0,1,.41.47c.31.48.28.56-.18.9l-.33.22a2.37,2.37,0,0,0,1.27.64c1.12.21,2.25.4,3.37.59.36.06.73.09,1.27.16-.44-.54-.78-.94-1.1-1.35-.88-1.12-1.76-2.24-2.62-3.37S17.86,49.83,17,48.62s-1.6-2.35-2.34-3.57a20.86,20.86,0,0,0-3.35-4.56,14.2,14.2,0,0,0-2-1.5,1.53,1.53,0,0,0-1.6-.15,3.77,3.77,0,0,1-.78.18l.44.26c.93.63,1.9,1.19,2.77,1.89a2.91,2.91,0,0,1,1.11,2.39,4.55,4.55,0,0,1-.77,2.84c-1.05,1.41-2.58,1.52-4.22,1.34a8.5,8.5,0,0,1-1.87-.38A6.79,6.79,0,0,1,.79,43.18a5.79,5.79,0,0,1-.15-3.32c.57-2,3.16-3.21,3.85-3.61a7.17,7.17,0,0,1,3.62-.92h.64A67.19,67.19,0,0,1,8,27.7c0-1.19,0-2.38-.08-3.57a5.22,5.22,0,0,0-.74-2.2,7.82,7.82,0,0,0-.58.63,3.48,3.48,0,0,1-4.38,1c-2.35-1.33-2.83-5.18-.73-6.86a4.84,4.84,0,0,1,3.71-1.19,7.1,7.1,0,0,1,2.23.93A6.17,6.17,0,0,1,10,19.38a18.69,18.69,0,0,1,1.59,4.31,18.49,18.49,0,0,1-.22,4.92,12.56,12.56,0,0,0,.82,4.55c.06-.5.11-1,.17-1.49.28-2.27,1-6.47,1.32-7.9a30,30,0,0,1,2.81-6.87A2,2,0,0,0,16.64,16.57Zm-10,27.82A13.08,13.08,0,0,0,8,43.94c.72-.32.77-1,.14-1.46a4.93,4.93,0,0,0-2.79-1c-.74,0-1.1.43-1,1.17A2.2,2.2,0,0,0,6.65,44.39ZM13.07,6.86c-.43.3-.79.54-1.14.81a3.47,3.47,0,0,0-1.26,2.2,1.23,1.23,0,0,0,.53,1.22.84.84,0,0,0,1,0,3.21,3.21,0,0,0,1.37-1.54A3.27,3.27,0,0,0,13.07,6.86Zm-7.89,13a1.89,1.89,0,0,0-1.81-.8c-.35,0-.48.22-.58.51a.5.5,0,0,0,.15.62A1.42,1.42,0,0,0,5.18,19.89ZM15,54a4.48,4.48,0,0,0,1.42-1.81,4.13,4.13,0,0,0-2.08.79c-.41.31-.36.6.11.81C14.57,53.88,14.74,53.93,15,54Zm-5-2-.13.14a3.29,3.29,0,0,0,1.08,1.64c.28.28.53.22.77-.06a.5.5,0,0,0-.11-.77C11.06,52.63,10.5,52.34,10,52Zm3.35,5.76a1.31,1.31,0,0,0-.6-2.25A2.4,2.4,0,0,0,13.32,57.79Zm1.92-6.21v-1a1.22,1.22,0,0,0-1.29.51c-.17.36,0,.6.24.86Zm-1.86.85a2,2,0,0,0-.47-1.81,1.86,1.86,0,0,0-.31,1.94Zm3.9,2.2c-.53-.91-.86-.9-1.74,0C16.14,55.19,16.34,55.19,17.28,54.63Zm-7,2a1.36,1.36,0,0,0,1.4-.66.39.39,0,0,0-.15-.59.53.53,0,0,0-.47.08C10.81,55.76,10.59,56.14,10.29,56.6ZM11.61,52c.2-1.07.2-1.07-.69-1.39C10.47,51.17,10.7,51.65,11.61,52Zm2.66,3.93c.67.45.79.48,1.28.3-.23-.73-.37-.9-.91-1.13ZM8.84,55l.79.37c.22.09.47.18.6-.12,0-.13.07-.39,0-.43a1.2,1.2,0,0,0-.67-.21C9.36,54.57,9.17,54.76,8.84,55Zm5.72,2c-.1.81,0,.91.64,1C15.55,57.12,15.49,57,14.56,57Zm-3.16.3.27.93c.41-.16.5-.35.32-.68S11.81,57,11.4,57.27Z"/><path class="cls-1" d="M223.66,62.86a8.82,8.82,0,0,1,1-.8,22.8,22.8,0,0,0,5.18-4.57,37.8,37.8,0,0,0,5.38-8.16c.76-1.53,1.4-3.11,2.06-4.67a59.39,59.39,0,0,0,2.59-7.58,16.41,16.41,0,0,0,.38-7c-.16-1-.2-2-.39-3a20.69,20.69,0,0,0-3-7.27c-.38-.59-.74-1.19-1.14-1.77a2.16,2.16,0,0,0-1.86-.94c-.67,0-1.25.43-1.24.88a1.46,1.46,0,0,0,1.29,1.27,1.81,1.81,0,0,0,.6-.14,4.11,4.11,0,0,0,.49-.27.64.64,0,0,1-.13,1,4,4,0,0,1-2.64,1.12A2.64,2.64,0,0,1,230,19.44c-.83-1.26-.56-2.58-.13-3.9.12-.35.28-.69.46-1.13a3.38,3.38,0,0,1-3-1.55c.58,0,1.08-.09,1.58-.11a2.69,2.69,0,0,0,2.6-1.56,2.31,2.31,0,0,1,.28-.48,5.22,5.22,0,0,0,.5-4.5,11.61,11.61,0,0,0-.42-1.34,7,7,0,0,0-.47-.85,9.48,9.48,0,0,1-1.16,3.54,3.2,3.2,0,0,1-4.71.81,3.06,3.06,0,0,1-1.14-3.22,7.53,7.53,0,0,1,.4-1.48A5.63,5.63,0,0,1,227.66.79a6.22,6.22,0,0,1,3-.66A5.2,5.2,0,0,1,234.41,2a6.23,6.23,0,0,1,1.36,4.71,12.37,12.37,0,0,1-1.07,4.61c-.23.52-.56,1-.88,1.56a5.24,5.24,0,0,1,3.44,1.89c.54.57,1.14,1.09,1.77,1.69.05-.32.11-.61.13-.91a9.37,9.37,0,0,1,.67-3.48c.32-.66.74-1.28,1.13-1.95l-1.42.38c0-.36-.1-.64-.12-.93,0-.52.08-1-.3-1.52-.13-.16-.06-.49-.07-.72-.46-.18-.92-.31-1.33-.52a.58.58,0,0,1-.24-.85,4.43,4.43,0,0,1,.75-.81.72.72,0,0,0,.26-.86A12.34,12.34,0,0,1,238.24,3l1.44-.1.08-1.39c.67-.22,1.19.18,1.82.34l.8-.74,1.09,1,1.41-.74c.42.46.25,1,.38,1.62l1.07-.09A4.58,4.58,0,0,1,246,4.9l1.26,1.49c-.45.38-.82.72-1.23,1a.73.73,0,0,0-.4.74c.06.44-.11.73-.61.72-.35,0-.46.23-.53.53s-.25.82-.39,1.29l-1.1-.57a.46.46,0,0,0-.66.16,6.39,6.39,0,0,1-.54.5,1.09,1.09,0,0,0-.31.42c-.19.84-.39,1.68-.52,2.53a31.38,31.38,0,0,0-.21,6.5,4.38,4.38,0,0,0,.32,1.33,25.22,25.22,0,0,1,1.53,7.33c.08,1.14.19,2.28.3,3.42a3.8,3.8,0,0,0,.15.58l.16,0c.15-.61.33-1.21.43-1.82a10.78,10.78,0,0,0,0-3.54,11.26,11.26,0,0,1,1.06-7.61,11.32,11.32,0,0,1,2-3,7.79,7.79,0,0,1,3.1-1.69,3.43,3.43,0,0,1,1.87.12,5.37,5.37,0,0,1,2.77,1.8,3.66,3.66,0,0,1,.29,3.73,11.27,11.27,0,0,1-.74,1.42c-.65,1.21-2.57,1.57-3.74,1.17a3.23,3.23,0,0,1-1.7-1.28,5.55,5.55,0,0,0-.51-.58,5.38,5.38,0,0,0-.81,2.63c0,1.48,0,3,0,4.42a22.27,22.27,0,0,1-.79,6,1.19,1.19,0,0,0,0,.29l2,.16a10.16,10.16,0,0,1,3.34,1.37,6,6,0,0,1,2.36,2.08,4.2,4.2,0,0,1,.77,2.13,7,7,0,0,1-.16,3,7.3,7.3,0,0,1-.79,1.52,4,4,0,0,1-2,1.57,11.85,11.85,0,0,1-4.12.77,3.9,3.9,0,0,1-2.32-7c.87-.62,1.77-1.19,2.64-1.77a2.55,2.55,0,0,0-2.81.28,16.54,16.54,0,0,0-4.75,5.67,47.3,47.3,0,0,1-3.44,5.09c-.92,1.23-1.81,2.48-2.75,3.69A49.59,49.59,0,0,1,228.47,60c-1.15,1-2.4,2-3.6,3C224.49,63.3,224.14,63.37,223.66,62.86ZM229.81,2.7a4.32,4.32,0,0,0-3.59,1.14,1.65,1.65,0,0,0-.47,1.39,1,1,0,0,0,.78.89,2.74,2.74,0,0,0,2.81-1.42A15.86,15.86,0,0,0,229.81,2.7Zm18.81,41.4a2.19,2.19,0,0,0,2.2-1.93c0-.59-.21-.93-.79-1a4.52,4.52,0,0,0-3.11,1.07.72.72,0,0,0,.19,1.3A11.17,11.17,0,0,0,248.62,44.1ZM250,19.57a1.38,1.38,0,0,0,2.15.42.56.56,0,0,0,.24-.72.61.61,0,0,0-.59-.49A2.07,2.07,0,0,0,250,19.57Zm-9.58-14,.16-.07c.17-.07.35-.12.51-.2.4-.2.46-.46.12-.74a4,4,0,0,0-2.05-.83l-.12.16Zm5.17-1.86-.14-.16c-.55.33-1.12.62-1.64,1a.44.44,0,0,0-.08.72c.24.25.48.36.77.08A3.42,3.42,0,0,0,245.63,3.68Zm-3.47,5.58A2.25,2.25,0,0,0,242.72,7,1.33,1.33,0,0,0,242.16,9.26Zm-.87-5.86c.22-.27.43-.52.22-.88a1.18,1.18,0,0,0-1.31-.46l0,1Zm1.26-1.29a1.89,1.89,0,0,0-.42,1.81l.73.14A1.72,1.72,0,0,0,242.55,2.11Zm-2.63,4c-.87-.92-1.2-.93-1.73,0C239,6.68,239.32,6.69,239.92,6.14ZM245,8.05a1.75,1.75,0,0,0-.95-1.32c-.44.41-.44.42-.32.68A1.17,1.17,0,0,0,245,8.05Zm-1.21-4.56c.58-.15.91-.45.95-1a.53.53,0,0,0-.31-.42c-.34-.07-.75.43-.72.79C243.77,3.08,243.8,3.26,243.83,3.49Zm-3,3a1.87,1.87,0,0,0-.88,1.29c.54.17.9-.12,1.3-.34Zm5.69,0,0-.23a3.55,3.55,0,0,0-.82-.26.44.44,0,0,0-.46.54c.09.32.31.38.59.27S246.24,6.62,246.48,6.51ZM240.92,8.4l-.86.18.17.94C241,9.33,241,9.26,240.92,8.4Zm3.16.31c-.58-.14-.59.28-.66.52s.19.3.3.46l.14-.07Z"/></g></g></svg>