<?xml version="1.0" encoding="utf-8"?>
<!-- Generator: Adobe Illustrator 24.3.0, SVG Export Plug-In . SVG Version: 6.00 Build 0)  -->
<svg version="1.1" id="Layer_1" xmlns="http://www.w3.org/2000/svg" xmlns:xlink="http://www.w3.org/1999/xlink" x="0px" y="0px"
	 viewBox="0 0 255.3 63.7" style="enable-background:new 0 0 255.3 63.7;" xml:space="preserve">
<style type="text/css">
	.st0{fill:#001843;}
</style>
<g id="Layer_2_1_">
	<g id="ouline_logo">
		<path class="st0" d="M2.9,20.2c-0.2-0.1-0.3-0.4-0.2-0.6"/>
		<path class="st0" d="M202.3,23.2c0.8,0,1.2,0.2,1.4,0.8c0,0.2,0,0.4,0,0.5c-0.6,1.5-2.1,2.5-3.7,2.5c-1.3-0.1-1.6-0.8-1.1-1.9
			c0.3-0.5,0.7-0.9,1.1-1.2C200.7,23.5,201.5,23.3,202.3,23.2z"/>
		<path class="st0" d="M203.2,29.1c-0.1,1.1-0.3,7.2-0.3,9.2c0,1.4-0.1,2.8-0.2,4.1c0,0.5-0.2,0.7-0.7,0.6s-0.6-0.2-0.7-0.6
			c0-0.7-0.4-6-0.6-7.6c-0.2-1.4-0.8-2.7-1.7-3.8c-0.2-0.3-0.6-0.4-0.8-0.6c-0.2-0.2-0.4-0.4-0.6-0.6c-0.2-0.3-0.1-0.6,0.2-0.8
			c0.1-0.1,0.2-0.1,0.3-0.1c0.3,0,0.6,0,0.8,0c1.1,0,2.1,0,3.2,0C202.5,29,202.9,29,203.2,29.1z"/>
		<path class="st0" d="M191.1,28.4v0.6c1.1-0.3,2.1-0.4,3.2-0.5c0.5,0.1,1,0.4,1.2,0.9c0.2,0.5,0.4,1.1,0.3,1.7
			c-0.1,1.6-0.2,7.3-0.2,8.5c0,0.9,0,1.7,0,2.6c0.1,0.4-0.2,0.7-0.6,0.8c0,0,0,0-0.1,0c-0.4,0-0.8-0.3-0.8-0.8c0,0,0,0,0,0
			c0-0.7-0.1-1.3-0.1-2c0-1-0.4-5.1-0.6-6.1c-0.1-0.4-0.3-0.9-0.6-1.3c-0.5-0.7-1.4-0.9-2.1-0.4c-0.2,0.1-0.4,0.3-0.5,0.5
			c-0.6,1.4-1.1,2.9-1.3,4.4c-0.3,1.6-0.4,3.1-0.6,4.7v0.1c-0.1,0.4-0.5,0.7-0.8,0.6c-0.3-0.2-0.5-0.5-0.4-0.9
			c0.1-0.7,0.1-1.3,0.2-2c0.3-2.9-0.1-5.8-1.1-8.5c-0.3-0.8-0.7-1.5-1.3-2c-0.2-0.2-0.3-0.5-0.3-0.8c0-0.1,0.4-0.3,0.6-0.3
			C187.2,28.4,189.1,28.4,191.1,28.4z"/>
		<path class="st0" d="M163.2,39.3c-2.3-0.7-4-4.4-2.6-7.1c1.2-2.3,2.4-3.4,5-3.8c1.9-0.3,3.4-0.1,4.5,0.7c1.7,1.2,2.7,3.1,2.7,5.1
			c0.1,1.7-0.6,3.3-1.9,4.3C168.6,40.1,165.7,40.3,163.2,39.3z M165.4,36.8c1.7,0.4,3.5-0.3,4.6-1.7c0.6-0.9,0.1-2.8-2.3-3.6
			c-1.8-0.5-3.8,0.3-4.8,1.9C162.1,35,163.7,36.6,165.4,36.8L165.4,36.8z"/>
		<path class="st0" d="M177,35.8c1.3,0.3,2.5,0.4,3.6,0.8c1.9,0.5,3.3,2.2,3.5,4.1c0.4,1.8,0.1,3.7-0.9,5.2c-0.3,0-0.4-0.1-0.4-0.4
			c-0.2-1.8-1.1-3.5-2.5-4.6c-1.2-1-2.8-1.4-4.3-1.2c-0.7,0.1-1.3,0.2-2,0.4c-0.2,0.1-0.5,0-0.7-0.2c-0.2-0.3-0.1-0.5,0.1-0.7
			c1.2-2,2.4-3.9,3.6-5.9c0.3-0.4,0.5-0.8,0.7-1.3c0.1-0.2,0.2-0.5,0.3-0.8c-1.1-0.3-2.2,0.1-2.9,1c-0.2,0.3-0.5,0.6-0.7,0.8
			c-0.1-0.2-0.1-0.3-0.2-0.5c-0.2-1.2-0.2-2.3-0.2-3.5c0.1-0.7,0.1-0.8,0.8-0.8c1.8,0,3.5,0,5.3,0c0.7,0,1.4,0,2.1,0.1
			s0.8,0.5,0.4,1c-0.1,0.1-0.3,0.3-0.4,0.4C180.7,31.2,177.3,35.3,177,35.8z"/>
		<path class="st0" d="M75.4,30c-0.2-0.1-0.5-0.1-0.6-0.3c-0.4-0.4-0.9-0.6-1.5-0.4c-0.2,1.1-0.4,2.3-0.6,3.4
			c-0.3,2.3-0.4,4.7-0.7,7c-0.3,1.5-0.4,3.1-0.5,4.7c0,0.7,0,1.5,0,2.3h-1.2c-0.1-1.6-0.2-3.1-0.3-4.6C70,39,70,35.9,70,32.8
			c0-0.9-0.1-1.8-0.2-2.7c0-0.3-0.1-0.6-0.2-0.8c-0.2-0.2-0.4-0.3-0.6-0.4c-0.1,0-0.2,0-0.3,0c-0.8,0-2.1-1.8-2.3-2.2
			c0.6-0.4,1.2-0.1,1.7-0.1c1.5,0.2,1.6,0.1,1.7-1.4c0.1-1.8-0.5-3.5-1.6-4.9c-0.1-0.1-0.2-0.3-0.3-0.5s0-0.1,0-0.1h7.6
			c-0.4,1-0.8,2.1-1.1,3.2c-0.2,1.2-0.4,2.5-0.5,3.8c0,0.2,0.2,0.4,0.3,0.6C75,28.1,75.4,29,75.4,30L75.4,30z"/>
		<path class="st0" d="M99.6,27.9l-0.2,4.2c-0.3-0.1-0.4-0.2-0.6-0.3c-1.5-0.8-3.3-1-5-0.5c-0.5,0.1-1.3,0.3-1.1,1
			c0.2,0.7,2,0.5,2.7,0.5c2.2,0,4.4,0.4,5.4,3.2c0.4,1.3,0.4,2.6,0,3.9c-0.3,1.2-1,2.2-2,2.9c-1.5,1-4.6,0.7-5.5,0.6
			c-0.8-0.2-1.7-0.1-2.5,0.3c-0.3,0.1-0.6,0.3-0.8,0.5c-0.2,0.2-0.4,0.3-0.7,0.4c0-0.2,0.1-0.5,0.1-0.7c0.8-1.8,2.7-2.8,4.7-2.5
			c0.6,0.1,1.2,0.1,1.7,0.2c1.7-0.1,2.9-1.5,2.8-3.2c0-0.2,0-0.4-0.1-0.6c-0.2-0.4-0.6-0.7-1-0.8c-0.8-0.3-4.2-0.8-5.1-1
			c-0.5-0.1-1-0.4-1.4-0.7c-0.7-0.5-1.3-2.6-1-4.1c0.1-0.8,0.7-1.5,1.5-1.9c1-0.5,2.2-0.8,3.3-0.8c0.7,0,1.5,0,2.2,0
			C98,28.4,98.8,28.2,99.6,27.9z"/>
		<path class="st0" d="M99.8,19.8c0.1-0.5,0.7-0.4,1.1-0.4c1.4,0,2.8,0,4.2,0c0.5-0.1,0.9,0.3,1,0.7c0,0.1,0,0.2,0,0.3
			c0,0.3,0,0.5-0.1,0.8c-0.1,0.6-0.3,1.1-0.4,1.7c-0.5,1.7-0.7,3.4-0.9,5.2c0,0.1-0.1,0.5-0.1,0.6s1.4-0.1,2.1-0.1
			c1-0.1,2.1,0,3.1,0.2c0.6,0.2,1.1,0.6,1.4,1.2c0.3,0.8,0.5,1.7,0.6,2.6c0,1.7,0,3.4,0,5s0,3.6,0,5.5c0,0.4-0.2,0.9-0.6,0.8
			s-0.5-0.8-0.4-1.3c-0.1-2.5-0.4-5.1-0.8-7.5c-0.1-0.7-0.2-2.9-1.8-3c-0.8,0-1.6,0.1-2.4,0.2c-0.7,0.1-1.7,0.3-1.8,1.4
			c-0.3,2.8-0.6,9.1-0.7,9.3c0,0.2-0.2,0.4-0.5,0.4c0,0-0.1,0-0.1,0c-0.3,0-0.4-0.2-0.4-0.5c0.1-2,0.1-3.9,0.1-5.9
			c0-1.1,0.1-2.1,0.1-3.2c-0.1-2-0.2-4-0.3-6.1c0-0.4,0-0.8-0.1-1.3c-0.1-1.7-0.5-3.4-1.3-5C100.4,20.9,99.7,20.5,99.8,19.8z"/>
		<path class="st0" d="M223.7,19.2c0.4,0.4,0.1,12,0.1,12.6c0,0.6,0.2,0.7,0.7,0.7c1.3,0.1,2.6-0.6,3.2-1.8c0.6-0.9,0.9-1.9,0.9-3
			c0-0.3,0-0.6,0-1c0-0.5,0.1-0.6,0.7-1.1c0.1,0.1,1.1,1.9,1.5,2.8c0.6,1.3,0.2,2.5-1,3.7c-0.1,0.1-0.3,0.2-0.4,0.3
			c0.1,0.1,0.3,0.2,0.4,0.3c0.5,0.4,0.8,1,0.9,1.7c0,0.8,0,1.7,0,2.5c0,1.8-0.1,3.5-0.1,5.3c0,0.3,0,0.7-0.1,1
			c-0.1,0.4-0.4,0.7-0.9,0.8c-0.5,0-0.6-0.4-0.6-0.8c0-0.3,0-0.6,0-0.8c0.1-2-0.3-4-1.1-5.9c-0.3-0.7-0.7-1.3-1.3-1.7
			c-0.7-0.4-1.4-0.5-2.1-0.3c-0.4,0-0.6,0.4-0.6,0.8c-0.1,1-0.1,2-0.1,3c-0.1,1.5-0.1,3-0.2,4.5c0,0.2-0.1,0.4-0.2,0.6
			c-0.1,0.2-0.3,0.3-0.5,0.3c-0.3,0-0.6,0.1-0.7-0.3c-0.1-0.2-0.1-0.5-0.1-0.8c0.2-2.3,0-9.1,0-10.1c0.1-2.8-0.4-5.6-1.5-8.3
			c-0.3-1.1-0.8-2.1-1.5-3c-0.2-0.2-1-0.9-1.1-1.1c-0.4-0.6-0.1-1,0.6-1c1.2,0,2.4-0.1,3.6-0.1C222.6,19.1,223.1,19.2,223.7,19.2z"
			/>
		<path class="st0" d="M219.3,27.3c-0.3,5.5-0.5,11-0.7,16.4c0,0-0.6-0.1-0.8-0.3c-0.4-0.8-0.6-1.7-0.4-2.6c0-0.1,0-0.2,0-0.3
			c0-0.7-0.3-0.8-0.9-0.5c-1.7,0.8-3.7,1.2-5.6,1.1c-1.7-0.1-3.2-1.1-4-2.6c-0.8-1.4-1.2-3-1.2-4.7c0-3.1,2.3-5.8,5.3-6.2
			c1.2-0.2,2.4-0.2,3.6-0.3c1.3,0,2.5,0,3.8,0C218.7,27.3,218.9,27.3,219.3,27.3z M212.3,31.2c-1.6,0.2-3.1,1-4.3,2.1
			c-0.6,0.5-0.7,1.4-0.4,2.1c0.2,0.5,0.7,1,1.2,1.2c2.8,1.3,6.1,0.8,8.4-1.3c0.3-0.3,0.6-0.7,0.7-1.2c0.3-1.4-0.2-2.8-1.9-2.9
			C214.7,31,213.5,31.1,212.3,31.2L212.3,31.2z"/>
		<path class="st0" d="M127.3,27.3c-0.3,5.5-0.5,11-0.7,16.4c0,0-0.6-0.1-0.8-0.3c-0.4-0.8-0.6-1.7-0.4-2.6c0-0.1,0-0.2,0-0.3
			c0-0.7-0.3-0.8-0.9-0.5c-1.7,0.8-3.7,1.2-5.6,1.1c-1.7-0.1-3.2-1.1-4-2.6c-0.8-1.4-1.2-3-1.2-4.7c0-3.1,2.3-5.8,5.3-6.2
			c1.2-0.2,2.4-0.2,3.6-0.3c1.3,0,2.5,0,3.8,0C126.7,27.3,126.9,27.3,127.3,27.3z M122.3,30.9c-0.6,0.1-1.3,0.1-2,0.2
			c-1.6,0.2-3.1,1-4.3,2.1c-0.6,0.5-0.7,1.4-0.4,2.1c0.2,0.5,0.7,1,1.2,1.2c2.8,1.3,6.1,0.8,8.3-1.3c0.3-0.3,0.6-0.7,0.7-1.2
			c0.3-1.4-0.2-2.8-1.9-2.9L122.3,30.9z"/>
		<path class="st0" d="M88.3,27.3c-0.3,5.5-0.5,11-0.7,16.4c0,0-0.6-0.1-0.8-0.3c-0.4-0.8-0.6-1.7-0.4-2.6c0-0.1,0-0.2,0-0.3
			c0-0.7-0.3-0.8-0.9-0.5c-1.7,0.8-3.6,1.2-5.5,1.1c-1.7-0.1-3.2-1.1-4-2.6c-0.8-1.4-1.2-3-1.2-4.7c0-3.1,2.2-5.7,5.3-6.2
			c1.2-0.2,2.4-0.2,3.6-0.3c1.3,0,2.5,0,3.8,0C87.7,27.3,87.9,27.3,88.3,27.3z M83.3,31c-0.6,0.1-1.3,0.1-2,0.2
			c-1.6,0.2-3.1,0.9-4.3,2c-0.6,0.5-0.7,1.4-0.4,2.1c0.2,0.5,0.7,1,1.2,1.2c2.8,1.3,6.1,0.8,8.3-1.3c0.3-0.3,0.6-0.7,0.7-1.2
			c0.3-1.4-0.2-2.8-1.9-2.9L83.3,31z"/>
		<path class="st0" d="M66.3,27.3c-0.3,5.5-0.5,11-0.7,16.4c0,0-0.6-0.1-0.8-0.3c-0.4-0.8-0.6-1.7-0.4-2.6c0-0.1,0-0.2,0-0.3
			c0-0.7-0.3-0.8-0.9-0.5c-1.7,0.8-3.6,1.2-5.5,1.1c-1.7-0.1-3.2-1.1-4-2.6c-0.8-1.4-1.2-3-1.2-4.7c0-3.1,2.2-5.7,5.3-6.2
			c1.2-0.2,2.4-0.2,3.6-0.3c1.3,0,2.5,0,3.8,0C65.7,27.3,65.9,27.3,66.3,27.3z M61.3,31c-0.5,0.1-1.3,0.1-2,0.2
			c-1.6,0.2-3.1,0.9-4.3,2c-0.6,0.5-0.7,1.4-0.4,2.1c0.2,0.5,0.7,1,1.2,1.2c2.8,1.3,6.1,0.8,8.4-1.3c0.3-0.3,0.6-0.7,0.7-1.2
			c0.3-1.4-0.2-2.8-1.9-2.9L61.3,31z"/>
		<path class="st0" d="M26.1,19.7h7.3c0.1,0.4,0.2,0.8,0.3,1.2c0.9,2.8,1.7,5.7,2.7,8.5c0.8,1.8,1.7,3.5,2.7,5.2
			c1,2.1,2.3,4,3.7,5.9c1.3,1.7,4.8,5.6,5.4,5.7c0.1-1.3,0.2-2.7,0.2-4c0-1.7,0-3.4-0.3-5.2c-0.3-2.1-0.7-9-2.4-13.8
			c-0.3-1-1.4-3.3-1.5-3.4c2.4-0.2,4.9-0.3,7.3-0.1c-0.1,0.9-0.2,1.8-0.2,2.7c-0.1,1.4-0.1,2.9-0.2,4.3c-0.2,1.7,0,7,0,8
			c0,1.6,0.2,3.2,0.2,4.8c0,1.9,0.1,6.7,0.1,7.2c0.1,0.6-0.3,1.2-0.9,1.4c-0.1,0-0.1,0-0.2,0c-1,0.1-2-0.1-2.8-0.7
			c-2-1.2-3.8-2.7-5.5-4.3c-2.1-1.9-4.1-4-6-6.2c-1.1-1.3-2-2.7-3-4.1c-0.8-1.1-1.5-2.3-2.2-3.4c-0.2,1.2-0.3,2.3-0.5,3.5
			c-0.4,2-1.1,3.9-1.9,5.7c-1.2,3.2-2.8,6.3-4.6,9.1l-1.1-1.2c2-3.5,3.7-7.1,5.3-10.7c1.3-3.2,1-9.3,0.3-11.2
			C27.7,22.9,27,21.2,26.1,19.7z"/>
		<path class="st0" d="M149,41.9c1-0.6,1.8-1.4,2.4-2.4c1.9-2.6,3.4-5.5,4.5-8.6c0.6-1.5,1-3,1.3-4.5c0.2-1.7,0.2-3.4-0.1-5.1
			c-0.1-0.5-0.4-1-0.8-1.4c-0.4-0.3-0.7-0.7-1-1.1c-0.1-0.2-0.2-0.4-0.2-0.7h6.9c0.3,0.5,0.4,1.1,0.4,1.6c-0.2,1.8-0.5,3.6-1,5.4
			c-0.5,2.7-1.5,5.2-2.8,7.6c-1.3,2.2-2.7,4.3-4.3,6.3c-1.6,2.1-3.5,3.9-5.6,5.4c-0.5,0.3-1,0.6-1.6,0.8c-0.4,0.2-0.6,0-0.7-0.5
			c0-0.1,0-0.1,0-0.2c0-1,0-1.9,0-2.9c-0.1-2.1-0.1-4.2-0.2-6.2c0-0.3,0-0.6,0-1.1c-0.5,0.6-0.9,1.1-1.3,1.5
			c-1.8,1.9-3.6,3.8-5.5,5.7c-0.9,0.9-1.9,1.6-2.9,2.3c-0.6,0.4-1.3,0.7-2,1c-0.4,0.2-0.7,0-0.8-0.5c0-1,0-1.9,0-2.9
			c0-2,0-3.9,0-5.9c0-0.8,0.1-1.5,0-2.3c-0.1-2.9-0.2-5.8-0.4-8.7c0-2.2-0.7-4.4-2-6.2c-0.2-0.2-0.3-0.4-0.6-0.7
			c0.2-0.1,0.4-0.1,0.6-0.1c1.7,0,3.4,0,5,0c1,0,1.4,0.6,1.2,1.5c-0.4,1.9-0.7,3.8-0.9,5.7c-0.3,1.9-0.4,3.8-0.6,5.7
			c-0.2,2.2-0.6,10-0.6,11.8c0.4-0.3,0.7-0.5,1-0.8c2-1.9,3.7-4.1,5.1-6.4c1.6-2.6,2.6-5.6,3-8.6c0.3-1.9,0.1-3.8-0.4-5.6
			c-0.2-0.5-0.4-0.9-0.7-1.4c-0.4-0.7-0.2-1.3,0.7-1.4c1.6,0,3.3,0,4.9-0.1c0.3,0,0.5,0.2,0.5,0.5c0,0,0,0,0,0.1c0,0.5,0,1,0,1.5
			c-0.2,2.3-0.4,4.6-0.5,6.9c-0.1,2-0.2,4.1-0.3,6.2C148.8,34.5,148.5,40.4,149,41.9z"/>
		<path class="st0" d="M16.6,16.6l-0.9-0.4c0.5-0.4,1-0.6,1.4-0.9c0.9-0.7,1.4-1.8,1.3-3c0-1.5-0.6-2.8-1.7-3.8
			c-0.4-0.5-1-1-1.6-1.2c0.2,0.9,0.5,1.8,0.6,2.8c0.2,1.8-1.1,3.3-2.9,3.5c-0.1,0-0.2,0-0.3,0c-1.4,0-2.6-1-2.8-2.3
			C9.2,9.7,9.4,8.2,10.1,7c0.7-1.3,1.7-2.3,3.1-2.8c1.9-0.8,4.1-0.3,5.5,1.2c1.1,1.4,1.9,3,2.2,4.7c0.3,1,0.3,2,0.1,3
			c0.9,0.2,1.7,0.4,2.6,0.7c1.6,0.8,2.1,2.3,2.2,3.9c0.1,1.1-0.4,2.2-1.3,2.9c-0.5,0.5-1.1,0.7-1.8,0.6c-0.8-0.1-1.6-0.5-2.3-1
			c-0.4-0.3-0.4-0.5-0.2-1c0.1,0,0.3,0.1,0.4,0.2c0.7,0.6,1.8-0.1,2-1c0.1-0.4-0.2-0.6-0.5-0.8c-0.9-0.4-2-0.1-2.6,0.7
			c-0.8,1.4-1.7,2.7-2.5,4.1c-1,1.9-1.7,4-1.9,6.1c-0.6,3.4-0.4,6.9,0.6,10.2c1,3,2.1,5.9,3.3,8.8c1.4,3.3,3.3,6.4,5.5,9.2
			c1.5,1.9,3.3,3.7,5.3,5.1c0.4,0.3,0.9,0.6,1.3,0.9c0.2,0.1,0.3,0.3,0.4,0.4c0.1,0.1-0.6,0.4-0.7,0.3c-0.3,0-0.6-0.3-0.9-0.5
			c-0.7-0.6-1.4-1.2-2.2-1.8c-2.7-2.2-5.3-3.9-8.9-4.1c-0.5,0-1-0.2-1.6-0.2s-0.8,0-1.2,0L16,59c-0.7-0.5-1.7-0.4-2.4,0.2
			c-0.1,0-0.2,0-0.2-0.1c-0.6-0.7-0.6-0.7-1.5-0.2c-0.5,0.3-0.6,0.2-0.8-0.3c-0.1-0.2-0.1-0.3-0.1-0.5c0-0.5-0.2-0.8-0.8-0.8
			c-0.3,0-0.4-0.3-0.4-0.6c0.1-0.4-0.1-0.8-0.5-1c-0.4-0.3-0.8-0.6-1.1-0.9c0.3-0.4,0.6-0.8,0.9-1.1c0.2-0.2,0.3-0.5,0.2-0.8
			c-0.1-0.5-0.2-1.1-0.3-1.6h1.1l0.3-1.6l1.5,0.8l1.1-1l0.8,0.8c0.4-0.1,0.8-0.3,1.2-0.4c0.6-0.1,0.6-0.1,0.7,0.5v0.9l1.5,0.1
			l-0.3,1.9c0.2,0.2,0.4,0.3,0.7,0.6c0.2,0.1,0.3,0.3,0.4,0.5c0.3,0.5,0.3,0.6-0.2,0.9l-0.3,0.2c0.3,0.3,0.8,0.6,1.3,0.6
			c1.1,0.2,2.3,0.4,3.4,0.6c0.4,0.1,0.7,0.1,1.3,0.2c-0.4-0.5-0.8-0.9-1.1-1.3c-0.9-1.1-1.8-2.2-2.6-3.4s-1.8-2.3-2.6-3.5
			s-1.6-2.3-2.3-3.6c-0.9-1.7-2-3.2-3.4-4.6c-0.6-0.6-1.3-1.1-2-1.5c-0.5-0.3-1.1-0.4-1.6-0.2C7.5,38.9,7.2,39,6.9,39l0.4,0.3
			c0.9,0.6,1.9,1.2,2.8,1.9c0.7,0.6,1.1,1.5,1.1,2.4c0.1,1-0.2,2-0.8,2.8c-1.1,1.4-2.6,1.5-4.2,1.3c-0.6-0.1-1.3-0.2-1.9-0.4
			c-1.7-0.8-3-2.3-3.6-4.2c-0.4-1.1-0.4-2.2-0.2-3.3c0.6-2,3.2-3.2,3.8-3.6c1.1-0.6,2.4-0.9,3.6-0.9h0.6c-0.4-2.5-0.6-5.1-0.8-7.6
			c0-1.2,0-2.4-0.1-3.6c-0.1-0.8-0.3-1.5-0.7-2.2c-0.2,0.2-0.4,0.4-0.6,0.6c-1,1.4-2.9,1.8-4.4,1c-2.3-1.3-2.8-5.2-0.7-6.9
			c1-0.9,2.4-1.3,3.7-1.2C6,15.7,6.7,16,7.4,16.4c1.2,0.7,2.1,1.7,2.6,2.9c0.7,1.4,1.2,2.8,1.6,4.3c0.1,1.6,0.1,3.3-0.2,4.9
			c0,1.6,0.3,3.1,0.8,4.6c0.1-0.5,0.1-1,0.2-1.5c0.3-2.3,1-6.5,1.3-7.9c0.6-2.4,1.6-4.7,2.8-6.9C16.5,16.8,16.6,16.7,16.6,16.6z
			 M6.6,44.4c0.5-0.1,0.9-0.3,1.4-0.5c0.7-0.3,0.8-1,0.1-1.5c-0.8-0.6-1.8-1-2.8-1c-0.7,0-1.1,0.4-1,1.2C4.6,43.7,5.6,44.5,6.6,44.4
			L6.6,44.4z M13.1,6.9c-0.4,0.3-0.8,0.5-1.1,0.8c-0.7,0.5-1.1,1.3-1.3,2.2c-0.1,0.5,0.1,1,0.5,1.2c0.3,0.2,0.7,0.2,1,0
			c0.6-0.3,1.1-0.9,1.4-1.5C13.8,8.6,13.6,7.6,13.1,6.9z M5.2,19.9c-0.4-0.6-1.1-0.9-1.8-0.8c-0.3,0-0.5,0.2-0.6,0.5
			c-0.1,0.2,0,0.5,0.2,0.6c0.6,0.6,1.5,0.6,2,0C5,20.1,5.1,20,5.2,19.9L5.2,19.9z M15,54c0.6-0.5,1.1-1.1,1.4-1.8
			c-0.8,0.1-1.5,0.3-2.1,0.8c-0.4,0.3-0.4,0.6,0.1,0.8C14.6,53.9,14.7,53.9,15,54z M10,52l-0.1,0.1c0.2,0.6,0.6,1.2,1.1,1.6
			c0.3,0.3,0.5,0.2,0.8-0.1c0.2-0.2,0.2-0.5,0-0.7c0,0-0.1,0-0.1-0.1C11.1,52.6,10.5,52.3,10,52z M13.4,57.8
			c0.5-0.5,0.6-1.3,0.1-1.9c-0.2-0.2-0.4-0.3-0.7-0.4C12.5,56.3,12.7,57.2,13.4,57.8L13.4,57.8z M15.3,51.6v-1
			c-0.5-0.1-1,0.1-1.3,0.5c-0.2,0.4,0,0.6,0.2,0.9L15.3,51.6z M13.4,52.4c0.2-0.6,0-1.3-0.5-1.8c-0.5,0.5-0.6,1.3-0.3,1.9L13.4,52.4
			z M17.3,54.6c-0.5-0.9-0.9-0.9-1.7,0C16.1,55.2,16.3,55.2,17.3,54.6L17.3,54.6z M10.3,56.6c0.6,0.1,1.1-0.2,1.4-0.7
			c0.1-0.2,0.1-0.4-0.1-0.5c0,0,0,0-0.1,0c-0.2,0-0.3,0-0.5,0.1C10.8,55.8,10.6,56.1,10.3,56.6L10.3,56.6z M11.6,52
			c0.2-1.1,0.2-1.1-0.7-1.4C10.5,51.2,10.7,51.7,11.6,52z M14.3,55.9c0.7,0.5,0.8,0.5,1.3,0.3c-0.2-0.7-0.4-0.9-0.9-1.1L14.3,55.9z
			 M8.8,55l0.8,0.4c0.2,0.1,0.5,0.2,0.6-0.1c0-0.1,0.1-0.4,0-0.4c-0.2-0.1-0.4-0.2-0.7-0.2C9.4,54.6,9.2,54.8,8.8,55z M14.6,57
			c-0.1,0.8,0,0.9,0.6,1C15.6,57.1,15.5,57,14.6,57z M11.4,57.3l0.3,0.9c0.4-0.2,0.5-0.3,0.3-0.7S11.8,57,11.4,57.3L11.4,57.3z"/>
		<path class="st0" d="M223.7,62.9c0.3-0.3,0.6-0.6,1-0.8c1.9-1.3,3.7-2.8,5.2-4.6c2.1-2.5,3.9-5.2,5.4-8.2c0.8-1.5,1.4-3.1,2.1-4.7
			c1-2.5,1.9-5,2.6-7.6c0.6-2.3,0.8-4.7,0.4-7c-0.2-1-0.2-2-0.4-3c-0.5-2.6-1.5-5.1-3-7.3c-0.4-0.6-0.7-1.2-1.1-1.8
			c-0.4-0.6-1.1-1-1.9-0.9c-0.7,0-1.3,0.4-1.2,0.9c0.1,0.7,0.6,1.2,1.3,1.3c0.2,0,0.4-0.1,0.6-0.1c0.2-0.1,0.3-0.2,0.5-0.3
			c0.2,0.3,0.2,0.7,0,0.9c0,0-0.1,0.1-0.1,0.1c-0.7,0.7-1.7,1.1-2.6,1.1c-1-0.1-1.8-0.6-2.2-1.5c-0.8-1.3-0.6-2.6-0.1-3.9
			c0.1-0.4,0.3-0.7,0.5-1.1c-1.2,0.1-2.3-0.5-3-1.6c0.6,0,1.1-0.1,1.6-0.1c1.1,0.1,2.1-0.6,2.6-1.6c0.1-0.2,0.2-0.3,0.3-0.5
			c0.8-1.3,1-3,0.5-4.5c-0.1-0.5-0.3-0.9-0.4-1.3c-0.1-0.3-0.3-0.6-0.5-0.8c-0.1,1.2-0.5,2.4-1.2,3.5c-0.9,1.5-2.9,2-4.4,1
			c-0.1-0.1-0.2-0.1-0.3-0.2c-1-0.7-1.5-2-1.1-3.2c0.1-0.5,0.2-1,0.4-1.5c0.6-1.3,1.6-2.3,2.9-2.9c0.9-0.5,2-0.7,3-0.7
			c1.5,0.1,2.8,0.7,3.8,1.9c1.1,1.3,1.6,3,1.4,4.7c-0.1,1.6-0.4,3.2-1.1,4.6c-0.2,0.5-0.6,1-0.9,1.6c1.3,0.2,2.6,0.8,3.4,1.9
			c0.5,0.6,1.1,1.1,1.8,1.7c0.1-0.3,0.1-0.6,0.1-0.9c0-1.2,0.2-2.4,0.7-3.5c0.3-0.7,0.7-1.3,1.1-1.9l-1.4,0.4c0-0.4-0.1-0.6-0.1-0.9
			c0-0.5,0.1-1-0.3-1.5c-0.1-0.2-0.1-0.5-0.1-0.7c-0.5-0.2-0.9-0.3-1.3-0.5c-0.3-0.1-0.4-0.5-0.3-0.8c0,0,0-0.1,0-0.1
			c0.2-0.3,0.5-0.6,0.8-0.8c0.3-0.2,0.4-0.5,0.3-0.9c-0.1-0.4-0.2-0.9-0.2-1.3l1.4-0.1l0.1-1.4c0.7-0.2,1.2,0.2,1.8,0.3l0.8-0.7
			l1.1,1l1.4-0.7c0.4,0.5,0.3,1,0.4,1.6l1.1-0.1c0,0.7-0.1,1.4-0.3,2l1.3,1.5c-0.4,0.4-0.8,0.7-1.2,1c-0.3,0.1-0.4,0.4-0.4,0.7
			c0.1,0.4-0.1,0.7-0.6,0.7c-0.4,0-0.5,0.2-0.5,0.5s-0.3,0.8-0.4,1.3l-1.1-0.6c-0.2-0.1-0.5-0.1-0.6,0.1c0,0,0,0,0,0
			c-0.2,0.2-0.4,0.3-0.5,0.5c-0.1,0.1-0.2,0.3-0.3,0.4c-0.2,0.8-0.4,1.7-0.5,2.5c-0.3,2.2-0.4,4.3-0.2,6.5c0,0.5,0.1,0.9,0.3,1.3
			c0.9,2.4,1.4,4.8,1.5,7.3c0.1,1.1,0.2,2.3,0.3,3.4c0,0.2,0.1,0.4,0.1,0.6h0.2c0.1-0.6,0.3-1.2,0.4-1.8c0.2-1.2,0.2-2.4,0-3.5
			c-0.5-2.6-0.2-5.3,1.1-7.6c0.5-1.1,1.2-2.1,2-3c0.9-0.8,2-1.4,3.1-1.7c0.6-0.1,1.3-0.1,1.9,0.1c1.1,0.3,2.1,0.9,2.8,1.8
			c0.8,1.1,0.9,2.5,0.3,3.7c-0.2,0.5-0.5,1-0.7,1.4c-0.6,1.2-2.6,1.6-3.7,1.2c-0.7-0.2-1.3-0.7-1.7-1.3c-0.2-0.2-0.3-0.4-0.5-0.6
			c-0.5,0.8-0.8,1.7-0.8,2.6c0,1.5,0,3,0,4.4c0,2-0.3,4-0.8,6c0,0.1,0,0.2,0,0.3l2,0.2c1.2,0.3,2.3,0.7,3.3,1.4
			c1,0.5,1.8,1.2,2.4,2.1c0.4,0.6,0.7,1.4,0.8,2.1c0.2,1,0.1,2-0.2,3c-0.2,0.5-0.5,1-0.8,1.5c-0.5,0.7-1.2,1.3-2,1.6
			c-1.3,0.5-2.7,0.8-4.1,0.8c-2.2,0-3.9-1.8-3.9-3.9c0-1.2,0.6-2.3,1.5-3.1c0.9-0.6,1.8-1.2,2.6-1.8c-0.9-0.5-2-0.4-2.8,0.3
			c-2,1.5-3.6,3.4-4.8,5.7c-1,1.8-2.2,3.5-3.4,5.1c-0.9,1.2-1.8,2.5-2.8,3.7c-1.8,2.3-3.8,4.5-5.9,6.5c-1.1,1-2.4,2-3.6,3
			C224.5,63.3,224.1,63.4,223.7,62.9z M229.8,2.7c-1.3-0.2-2.6,0.2-3.6,1.1c-0.4,0.4-0.5,0.9-0.5,1.4c0,0.4,0.4,0.8,0.8,0.9
			c1.1,0.2,2.3-0.4,2.8-1.4C229.5,4,229.7,3.4,229.8,2.7z M248.6,44.1c1.1,0,2.1-0.8,2.2-1.9c0-0.6-0.2-0.9-0.8-1
			c-1.1,0-2.2,0.3-3.1,1.1c-0.3,0.2-0.4,0.7-0.2,1c0.1,0.1,0.2,0.3,0.4,0.3C247.6,43.8,248.1,43.9,248.6,44.1z M250,19.6
			c0.3,0.7,1.2,1,1.8,0.6c0.1-0.1,0.2-0.1,0.3-0.2c0.3-0.1,0.4-0.5,0.2-0.7c-0.1-0.3-0.3-0.5-0.6-0.5C251.1,18.7,250.4,19,250,19.6z
			 M240.4,5.6l0.2-0.1c0.2-0.1,0.4-0.1,0.5-0.2c0.4-0.2,0.5-0.5,0.1-0.7c-0.6-0.5-1.3-0.8-2.1-0.8L239,3.9L240.4,5.6z M245.6,3.7
			l-0.1-0.2c-0.6,0.3-1.1,0.6-1.6,1c-0.2,0.1-0.3,0.4-0.2,0.6c0,0,0.1,0.1,0.1,0.1c0.2,0.3,0.5,0.4,0.8,0.1
			C245,4.9,245.4,4.3,245.6,3.7L245.6,3.7z M242.1,9.3c0.6-0.6,0.9-1.5,0.6-2.3c-0.7,0.2-1.1,0.9-0.9,1.6
			C241.8,8.9,242,9.1,242.1,9.3L242.1,9.3z M241.3,3.4c0.2-0.3,0.4-0.5,0.2-0.9c-0.3-0.4-0.8-0.6-1.3-0.5v1L241.3,3.4z M242.5,2.1
			c-0.4,0.5-0.6,1.2-0.4,1.8l0.7,0.1C243.2,3.4,243.1,2.6,242.5,2.1L242.5,2.1z M239.9,6.1c-0.9-0.9-1.2-0.9-1.7,0
			C239,6.7,239.3,6.7,239.9,6.1L239.9,6.1z M245,8.1c-0.1-0.6-0.4-1.1-0.9-1.3c-0.4,0.4-0.4,0.4-0.3,0.7C244,7.9,244.5,8.1,245,8.1z
			 M243.8,3.5c0.6-0.2,0.9-0.5,0.9-1c0-0.2-0.1-0.3-0.3-0.4c-0.3-0.1-0.8,0.4-0.7,0.8C243.8,3.1,243.8,3.3,243.8,3.5L243.8,3.5z
			 M240.8,6.5c-0.5,0.3-0.8,0.8-0.9,1.3c0.5,0.2,0.9-0.1,1.3-0.3L240.8,6.5z M246.5,6.5V6.3c-0.3-0.1-0.5-0.2-0.8-0.3
			c-0.2,0-0.5,0.2-0.5,0.4c0,0,0,0.1,0,0.1c0.1,0.3,0.3,0.4,0.6,0.3S246.2,6.6,246.5,6.5L246.5,6.5z M240.9,8.4l-0.9,0.2l0.2,0.9
			C241,9.3,241,9.3,240.9,8.4z M244.1,8.7c-0.6-0.1-0.6,0.3-0.7,0.5s0.2,0.3,0.3,0.5l0.1-0.1L244.1,8.7z"/>
	</g>
</g>
</svg>
