<svg xmlns="http://www.w3.org/2000/svg" viewBox="0 0 261 181.14"><defs><style>.cls-1,.cls-3{fill:none;}.cls-1,.cls-2,.cls-3,.cls-4{stroke:#00214a;stroke-miterlimit:10;}.cls-1,.cls-4{stroke-width:3px;}.cls-2,.cls-4{fill:#00214a;}.cls-2,.cls-3{stroke-width:2px;}.cls-4{opacity:0.4;}</style></defs><g id="Layer_2" data-name="Layer 2"><g id="Layer_1-2" data-name="Layer 1"><polyline class="cls-1" points="44.89 135.98 1.5 135.98 1.5 1.5 214.57 1.5 214.57 43.56"/><rect class="cls-2" x="1.5" y="1.38" width="213.07" height="29.94"/><line class="cls-3" x1="20.5" y1="46.52" x2="45.5" y2="46.52"/><line class="cls-3" x1="20.5" y1="60.52" x2="45.3" y2="60.52"/><line class="cls-3" x1="20.5" y1="74.52" x2="45.1" y2="74.52"/><line class="cls-3" x1="20.5" y1="88.52" x2="44.9" y2="88.52"/><line class="cls-3" x1="20.5" y1="102.52" x2="44.7" y2="102.52"/><line class="cls-3" x1="20.5" y1="116.52" x2="44.5" y2="116.52"/><rect class="cls-4" x="46.43" y="45.16" width="213.07" height="134.48"/><rect class="cls-1" x="46.43" y="45.16" width="213.07" height="134.48"/><rect class="cls-2" x="46.43" y="45.04" width="213.07" height="29.94"/><polyline class="cls-1" points="235.5 155.52 74.5 155.52 74.5 90.52"/><polyline class="cls-3" points="74.9 114.31 92 104.02 117.43 133.49 129 123.02 153 144.02 178 106.02 193 128.02 214 110.02 235 125.02"/></g></g></svg>