<svg xmlns="http://www.w3.org/2000/svg" viewBox="0 0 192.01 211.61"><defs><style>.cls-1{fill:none;}.cls-1,.cls-2,.cls-3,.cls-4{stroke:#00214a;stroke-miterlimit:10;stroke-width:2px;}.cls-2{fill:#fff;opacity:0.6;}.cls-3,.cls-4{fill:#00214a;}.cls-3{opacity:0.4;}</style></defs><g id="Layer_2" data-name="Layer 2"><g id="Layer_1-2" data-name="Layer 1"><rect class="cls-1" x="28.08" y="17.78" width="136.04" height="176.05" rx="10.81" transform="translate(-35.24 49.41) rotate(-24.51)"/><rect class="cls-2" x="46.1" y="41.1" width="100" height="129.41" transform="translate(-35.24 49.41) rotate(-24.51)"/><rect class="cls-3" x="46.1" y="41.1" width="100" height="129.41" transform="translate(-35.24 49.41) rotate(-24.51)"/><path class="cls-1" d="M8.65,76.38c-3.58,1.63-7,1.9-7.56.6S2.92,73.3,6.5,71.67s7-1.9,7.55-.6"/><path class="cls-1" d="M12.1,83.94c-3.58,1.64-7,1.9-7.56.6S6.37,80.86,10,79.23s7-1.9,7.55-.6"/><path class="cls-1" d="M8.65,76.38c-3.58,1.63-7,1.9-7.56.6S2.92,73.3,6.5,71.67s7-1.9,7.55-.6"/><path class="cls-1" d="M15.54,91.51c-3.58,1.63-7,1.9-7.55.6s1.82-3.68,5.4-5.32,7-1.9,7.56-.6"/><path class="cls-1" d="M22.44,106.63c-3.58,1.64-7,1.9-7.56.6s1.83-3.68,5.41-5.31,7-1.9,7.56-.6"/><path class="cls-1" d="M19,99.07c-3.58,1.63-7,1.9-7.55.6s1.82-3.68,5.4-5.31,7-1.91,7.56-.6"/><path class="cls-1" d="M25.89,114.2c-3.58,1.63-7,1.9-7.56.6s1.83-3.69,5.41-5.32,7-1.9,7.56-.6"/><path class="cls-1" d="M32.79,129.32c-3.58,1.64-7,1.9-7.56.6s1.83-3.68,5.41-5.31,7-1.9,7.56-.6"/><path class="cls-1" d="M29.34,121.76c-3.58,1.63-7,1.9-7.56.6s1.83-3.68,5.41-5.32,7-1.9,7.56-.59"/><path class="cls-1" d="M36.24,136.89c-3.58,1.63-7,1.9-7.56.59s1.83-3.68,5.41-5.31,7-1.9,7.56-.6"/><path class="cls-1" d="M43.14,152c-3.59,1.63-7,1.9-7.56.6s1.82-3.68,5.41-5.31,7-1.9,7.55-.6"/><path class="cls-1" d="M39.69,144.45c-3.58,1.63-7,1.9-7.56.6s1.83-3.68,5.41-5.32,7-1.9,7.55-.59"/><path class="cls-1" d="M46.58,159.57c-3.58,1.64-7,1.91-7.55.6s1.82-3.68,5.4-5.31,7-1.9,7.56-.6"/><path class="cls-1" d="M53.48,174.7c-3.58,1.63-7,1.9-7.56.6s1.83-3.68,5.41-5.31,7-1.9,7.56-.6"/><path class="cls-1" d="M50,167.14c-3.58,1.63-7,1.9-7.55.6s1.82-3.68,5.4-5.32,7-1.9,7.56-.6"/><path class="cls-1" d="M56.93,182.26c-3.58,1.64-7,1.9-7.56.6s1.83-3.68,5.41-5.31,7-1.9,7.56-.6"/><path class="cls-1" d="M63.83,197.39c-3.58,1.63-7,1.9-7.56.6s1.83-3.68,5.41-5.31,7-1.91,7.56-.6"/><path class="cls-1" d="M60.38,189.83c-3.58,1.63-7,1.9-7.56.6s1.83-3.69,5.41-5.32,7-1.9,7.56-.6"/><line class="cls-1" x1="68.58" y1="46.27" x2="122.52" y2="164.55"/><rect class="cls-4" x="23.81" y="45.14" width="100" height="22.77" transform="translate(-16.8 35.72) rotate(-24.51)"/></g></g></svg>