<?xml version="1.0" encoding="utf-8"?>
<!-- Generator: Adobe Illustrator 24.1.3, SVG Export Plug-In . SVG Version: 6.00 Build 0)  -->
<svg version="1.1" id="Layer_1" xmlns="http://www.w3.org/2000/svg" xmlns:xlink="http://www.w3.org/1999/xlink" x="0px" y="0px"
	 viewBox="0 0 306 306" style="enable-background:new 0 0 306 306;" xml:space="preserve">
<style type="text/css">
	.st0{fill:#011F53;stroke:#F7C06C;stroke-width:9;stroke-miterlimit:10;}
	.st1{fill:none;stroke:#FFFFFF;stroke-width:2;stroke-miterlimit:10;}
	.st2{fill:#FFFFFF;}
</style>
<circle class="st0" cx="153" cy="151.9" r="146.8"/>
<g id="Layer_2_1_">
	<g id="Layer_1-2">
		<g id="Layer_2-2">
			<g id="Process_animation">
				<g id="strategy">
					<rect id="first_rectangle" x="79.6" y="47.3" class="st1" width="38.7" height="26.9"/>
					<rect id="second_rectangle" x="183.3" y="129.3" class="st1" width="38.7" height="28.8"/>
					<polygon id="first_diamond" class="st1" points="221.4,73.2 200,60 221.4,46.7 242.6,60 					"/>
					<polygon id="first_diamond-2" class="st1" points="102.8,190.8 74.6,173.4 102.8,155.9 130.8,173.4 					"/>
					<rect id="last_rectangle" x="114.8" y="210.6" class="st2" width="62.2" height="46.5"/>
					<g id="arrow_1">
						<line class="st1" x1="119.4" y1="60.7" x2="193" y2="60.7"/>
						<polygon class="st2" points="191.9,64.6 198.6,60.7 191.9,56.8 						"/>
					</g>
					<g id="arrow_2">
						<polyline class="st1" points="221.3,73.5 221.3,104.3 203,104.3 203,123.7 						"/>
						<polygon class="st2" points="199.1,122.5 203,129.3 207,122.5 						"/>
					</g>
					<g id="arrow_3">
						<polyline class="st1" points="183.3,143.7 102.4,143.6 102.6,152.5 						"/>
					</g>
					<g id="arrow_4">
						<polyline class="st1" points="129.6,173.8 163.1,173.8 163.1,191.1 148,191.1 148,204.8 						"/>
						<polygon class="st2" points="144.1,203.6 148,210.4 152,203.6 						"/>
						<polygon class="st2" points="98.9,148.6 102.8,155.4 106.6,148.6 						"/>
					</g>
				</g>
			</g>
		</g>
	</g>
</g>
</svg>
