<svg xmlns="http://www.w3.org/2000/svg" viewBox="0 0 219.74 203.89"><defs><style>.cls-1,.cls-4,.cls-5{fill:#00214a;}.cls-1,.cls-2,.cls-3,.cls-4,.cls-5{stroke:#00214a;stroke-miterlimit:10;}.cls-1,.cls-2{stroke-width:4px;}.cls-1{opacity:0.4;}.cls-2,.cls-3{fill:none;}.cls-3,.cls-5{stroke-width:2px;}</style></defs><g id="Layer_2" data-name="Layer 2"><g id="Layer_1-2" data-name="Layer 1"><rect class="cls-1" x="11.88" y="15.52" width="193.36" height="117.71"/><rect class="cls-2" x="11.88" y="15.52" width="193.36" height="117.71"/><path class="cls-3" d="M199.58,1H20.16C9.5,1,1,8.93,1,18.57V150.69C1,160.22,9.5,168,20.16,168H199.58c10.65,0,19.16-7.82,19.16-17.35V18.57C218.74,8.93,210.23,1,199.58,1Z"/><polygon class="cls-4" points="132.21 168.36 87.64 168.36 87.64 190.59 71.69 190.59 71.69 203.39 148.73 203.39 148.73 190.59 132.21 190.59 132.21 168.36"/><rect class="cls-4" x="11.97" y="15.87" width="193.28" height="28.7"/><rect class="cls-5" x="12.22" y="66.83" width="193" height="14.57"/><rect class="cls-3" x="11.97" y="81.39" width="41" height="51.62"/></g></g></svg>