<svg xmlns="http://www.w3.org/2000/svg" xmlns:xlink="http://www.w3.org/1999/xlink" viewBox="0 0 1725.21 829.88">
  <defs>
    <style>
      .cls-1, .cls-2 {
        fill: none;
        stroke: #e9c0aa;
        stroke-miterlimit: 10;
      }

      .cls-2 {
        font-size: 93.87px;
        font-family: OpenSans-Bold, Open Sans;
        font-weight: 700;
      }
    </style>
  </defs>
  <g id="Layer_2" data-name="Layer 2">
    <g id="Layer_6" data-name="Layer 6">
      <image width="2530" height="1386" transform="scale(0.6)" xlink:href="../../Rainaskot%20Map%20Graphics.png"/>
      <path class="cls-1" d="M1471.06,201.84h-58a2.73,2.73,0,0,1-2.19-.88q-.33-.44-16.1-26.72a3.88,3.88,0,0,0-3.51-2h-8.87a1.84,1.84,0,0,0-2.08,2.08,3.52,3.52,0,0,0,.66,2q7.66,11.73,10.84,15.77c.59.81,1.39,1.77,2.41,2.91l2,2.19c.29.32,1.68,1.73,4.16,4.21v.44h-347.5c-1.75,0-2.63.84-2.63,2.52v6.24a2.33,2.33,0,0,0,2.63,2.63h18.07c.73.07,1.09.59,1.09,1.53v14.46q0,3.94-3.83,3.94H1060a3.33,3.33,0,0,0-2.36.88,3,3,0,0,0-.93,2.3v7.88l3.18,4.17,12.48,20.26a2.61,2.61,0,0,0,2.3,1.42h8.65c1.54,0,2.3-.8,2.3-2.41a3.12,3.12,0,0,0-.65-1.86l-13.58-21.47h.54a11.8,11.8,0,0,0,9.37-3.94q3.45-3.94,3.45-10.4V214.76c0-1,.44-1.53,1.31-1.53h9.75c.87,0,1.31.51,1.31,1.53v52.79c0,1.68.88,2.52,2.63,2.52h7.56c1.75,0,2.63-.84,2.63-2.52V214.76c0-1,.43-1.53,1.31-1.53H1146c.87,0,1.31.51,1.31,1.53v3.07c0,1-.44,1.53-1.31,1.53h-9.31q-6.79,0-10.79,3.4t-4,10v1.65q0,14,14.79,14h10.18q3.28,0,3.29,3v4.17a4.09,4.09,0,0,1-.71,2.68,3.29,3.29,0,0,1-2.58.82h-8q-4.94,0-4.93-4.6V254c0-1.68-.87-2.52-2.63-2.52H1124c-1.75,0-2.62.84-2.62,2.52v20.59c0,1.68.87,2.52,2.62,2.52h7.34c1.76,0,2.63-.84,2.63-2.52V267h.44c1,2,3.29,3.06,6.79,3.06h7.56q6.57,0,10.4-3.89t3.83-10.46v-5.25q0-6.36-3.77-9.64t-10.46-3.29h-11.06c-2.2,0-3.29-1-3.29-2.95v-.44a4.08,4.08,0,0,1,.71-2.68,3.29,3.29,0,0,1,2.58-.83h15.87q6.46,0,6.47-6v-9.86c0-1,.44-1.53,1.31-1.53H1201c.73.07,1.09.59,1.09,1.53v9.86c0,1-.44,1.53-1.31,1.53H1183.9a13.83,13.83,0,0,0-9.8,3.51,12.1,12.1,0,0,0-3.78,9.31q0,11.17,5.92,11.17h5.36c1.61,0,2.41-.84,2.41-2.52l-1-5.91q0-3.28,2.73-3.84a17.9,17.9,0,0,1,3.18-.22h11.83c.87,0,1.31.52,1.31,1.54v28.36c0,1.68.88,2.52,2.63,2.52h7.56c1.75,0,2.63-.84,2.63-2.52V214.76c0-1,.43-1.53,1.31-1.53h10.51q1.32,0,1.32,1.53v52.79c0,1.68.87,2.52,2.63,2.52h7.55c1.76,0,2.63-.84,2.63-2.52V214.76q0-1.53,1.32-1.53h22.45c.87,0,1.31.51,1.31,1.53v14.46q0,3.94-3.83,3.94H1254a3.31,3.31,0,0,0-2.35.88,3,3,0,0,0-.93,2.3v7.88l3.18,4.17,12.48,20.26a2.61,2.61,0,0,0,2.3,1.42h8.65a2,2,0,0,0,2.3-2.3,4,4,0,0,0-.65-2l-13.48-21.25h27.28c.87,0,1.31.51,1.31,1.54v21.46c0,1.68.88,2.52,2.63,2.52h7.55c1.76,0,2.63-.84,2.63-2.52V214.76q0-1.53,1.32-1.53h37.67q1.32,0,1.32,1.53V243q0,6.9-7,6.9h-2.52q-8.43,0-8.44-7.89v-3.28q0-7.89,8-7.89h2.08c1.75,0,2.63-.84,2.63-2.52V222.1a2.33,2.33,0,0,0-2.63-2.63h-4q-9,0-13.75,4.93t-4.87,13.69v4.6q0,8.88,4.87,13.75t13.75,4.87h2.08q6.9,0,9.42-4.27h.44v10.4c0,1.76.84,2.63,2.52,2.63h7.33a2.32,2.32,0,0,0,2.63-2.63V237.76q0-6.9,7-6.9h2.52q8.43,0,8.43,7.89V242q0,7.89-8,7.89h-2.08c-1.76,0-2.63.84-2.63,2.52v6.24a2.32,2.32,0,0,0,2.63,2.63h4q9,0,13.74-4.93t4.88-13.69v-4.6q0-8.86-4.88-13.74t-13.74-4.88h-2.08q-6.9,0-9.42,4.27h-.44v-9q0-1.53,1.32-1.53h37.78c.88,0,1.31.51,1.31,1.53v52.79c0,1.68.88,2.52,2.63,2.52h7.56c1.75,0,2.63-.84,2.63-2.52V214.76c0-1,.44-1.53,1.31-1.53h34.61c.8,0,1.21.51,1.21,1.53v5.81q0,1.53-1.32,1.53h-6.35q-9.31,0-14,4.88t-4.71,13.52v7.34q0,8.76,4.71,13.8t14,5h6.9q18.62,0,18.62-18.18v-.44c0-2.12-.92-3.18-2.74-3.18h-6.79c-1.61,0-2.41,1.06-2.41,3.18v.44q0,3.93-1.86,5.36t-6.14,1.43h-4q-4.15,0-6-1.65c-1.24-1.09-1.86-2.92-1.86-5.47V240.5q0-3.83,1.86-5.48t6-1.64h12.38q6.46,0,6.46-6v-12.6c0-1,.44-1.53,1.31-1.53h7a2.32,2.32,0,0,0,2.63-2.63v-6.24C1473.69,202.68,1472.82,201.84,1471.06,201.84Zm-177,29.79c0,1-.44,1.53-1.31,1.53H1277.1v-.44c1.1-1.16,1.65-3.54,1.65-7.11V214.76c0-1,.43-1.53,1.31-1.53h12.71c.87,0,1.31.51,1.31,1.53Z"/>
      <path class="cls-1" d="M1488.59,254.3v8.54a12.82,12.82,0,0,1-2.52,6.79l-7.56,11.07a2.42,2.42,0,0,1-2.08,1.09q-1.86,0-1.86-2.19V254.41a1.94,1.94,0,0,1,2.19-2.19h9.75A1.84,1.84,0,0,1,1488.59,254.3Z"/>
      <path class="cls-1" d="M1563.5,190.84h.54V196h-7.66q-7.23-6.8-11.17-11.23A93.32,93.32,0,0,1,1537.1,174l-5.69-8.65a3.52,3.52,0,0,1-.66-2,1.84,1.84,0,0,1,2.08-2.08h8.87a3.89,3.89,0,0,1,3.51,2q15.76,26.28,16.1,26.72A2.73,2.73,0,0,0,1563.5,190.84Z"/>
      <path class="cls-1" d="M1722.08,201.84h-205.9c-1.75,0-2.62.84-2.62,2.52v6.24a2.32,2.32,0,0,0,2.62,2.63h34c.73.07,1.1.59,1.1,1.53v9.86c0,1-.44,1.53-1.31,1.53h-16.87a13.82,13.82,0,0,0-9.8,3.51,12.1,12.1,0,0,0-3.78,9.31q0,11.17,5.91,11.17h5.37c1.61,0,2.41-.84,2.41-2.52l-1-5.91c0-2.19.92-3.47,2.74-3.84a17.9,17.9,0,0,1,3.18-.22h11.83c.87,0,1.31.52,1.31,1.54v28.36c0,1.68.88,2.52,2.63,2.52h7.56c1.75,0,2.62-.84,2.62-2.52V214.76q0-1.53,1.32-1.53H1575c.72.07,1.09.59,1.09,1.53V236q0,8,4.77,12.71t12.75,4.7h2.3q7.13,0,9.75-4.38h.44v18.51c0,1.68.88,2.52,2.63,2.52h7.55c1.76,0,2.63-.84,2.63-2.52V214.76q0-1.53,1.32-1.53h10.51q1.32,0,1.32,1.53v52.79c0,1.68.87,2.52,2.62,2.52h7.56c1.75,0,2.63-.84,2.63-2.52V214.76c0-1,.44-1.53,1.31-1.53h54.76c.73.07,1.1.59,1.1,1.53v9.64h-.44c-1.09-1.75-3.29-2.63-6.57-2.63q-7.66,0-9.86,6h-.44q-2.62-6.26-11.22-6.25t-13.25,4.93q-4.66,4.94-4.66,13.8v8.44q0,9,4.82,13.79t13.8,4.82h2.63a2.32,2.32,0,0,0,2.63-2.63v-6.24c0-1.68-.88-2.52-2.63-2.52h-.66q-8,0-8-7.88v-6.9q0-7.89,5.58-7.89a5,5,0,0,1,4,1.48q1.26,1.49,1.26,5v6.69a2.32,2.32,0,0,0,2.63,2.62h7a2.32,2.32,0,0,0,2.63-2.62v-5.7q0-4,1.25-5.64a5,5,0,0,1,4.17-1.59c1.93,0,3.3.48,4.1,1.43s1.21,2.7,1.21,5.25v27.38c0,1.68.87,2.52,2.63,2.52h7.55c1.76,0,2.63-.84,2.63-2.52V214.76q0-1.53,1.32-1.53h5.91a2.33,2.33,0,0,0,2.63-2.63v-6.24C1724.71,202.68,1723.83,201.84,1722.08,201.84Zm-116,32.42a7.73,7.73,0,0,1-1.92,5.47q-1.92,2.09-6.19,2.09h-2.08q-3.83,0-5.42-1.76c-1.06-1.16-1.59-3-1.59-5.47V214.76q0-1.53,1.32-1.53h14.57c.87,0,1.31.51,1.31,1.53Z"/>
      <text class="cls-2" transform="translate(672.69 140.37)">RAINASKOT, NEPAL</text>
    </g>
  </g>
</svg>
