<?xml version="1.0" encoding="utf-8"?>
<!-- Generator: Adobe Illustrator 24.1.3, SVG Export Plug-In . SVG Version: 6.00 Build 0)  -->
<svg version="1.1" id="Layer_1" xmlns="http://www.w3.org/2000/svg" xmlns:xlink="http://www.w3.org/1999/xlink" x="0px" y="0px"
	 viewBox="0 0 449.8 83.9" style="enable-background:new 0 0 449.8 83.9;" xml:space="preserve">
<style type="text/css">
	.st0{fill:#FFFFFF;}
	.st1{fill:#86A3D4;stroke:#173B45;stroke-width:0.28;stroke-miterlimit:10;}
	.st2{fill:#ACAAB0;stroke:#173B45;stroke-width:0.28;stroke-miterlimit:10;}
	.st3{fill:none;stroke:#173B45;stroke-width:0.28;stroke-miterlimit:10;}
	.st4{fill:#173B45;stroke:#173B45;stroke-width:1.47;stroke-miterlimit:10;}
	.st5{fill:#C52034;}
	.st6{fill:#020202;}
	.st7{fill:#C82539;stroke:#010101;stroke-width:0.88;stroke-miterlimit:10;}
</style>
<g id="Layer_2_1_">
	<g id="Layer_2-2">
		<circle class="st0" cx="37.7" cy="81.3" r="2.7"/>
		<circle class="st0" cx="2.7" cy="42" r="2.7"/>
		<circle class="st0" cx="11.3" cy="22" r="2.7"/>
		<circle class="st0" cx="37.8" cy="2.7" r="2.7"/>
		<circle class="st0" cx="64.2" cy="22.1" r="2.7"/>
		<circle class="st0" cx="72.9" cy="42.1" r="2.7"/>
		<circle class="st0" cx="64.1" cy="61.5" r="2.7"/>
		<polyline class="st0" points="37.7,1.8 64.6,21.6 73.6,42 64.6,61.8 37.7,82.2 10.8,61.8 1.9,42 10.8,21.6 37.7,1.8 		"/>
		<polygon class="st0" points="37.7,2.7 11.4,22 2.7,42 11.4,61.3 37.7,81.3 64,61.3 72.8,42 64,22 		"/>
		<polygon class="st1" points="37.7,2.7 11.4,22 2.7,42 29,22 		"/>
		<polygon class="st1" points="64,22.4 37.7,42 29,61.4 55.2,41.7 		"/>
		<polygon class="st2" points="37.7,2.7 29,22 37.7,42 46.5,22 		"/>
		<polygon class="st2" points="64,22.4 55.2,41.7 64,61.7 72.8,41.7 		"/>
		<line class="st3" x1="37.7" y1="2.7" x2="64" y2="22"/>
		<line class="st3" x1="46.5" y1="22" x2="72.8" y2="42"/>
		<line class="st3" x1="29" y1="22" x2="55.3" y2="42"/>
		<line class="st3" x1="11.4" y1="22" x2="64" y2="61.3"/>
		<line class="st3" x1="2.7" y1="42" x2="29.1" y2="61.3"/>
		<line class="st3" x1="11.4" y1="61.3" x2="37.7" y2="81.3"/>
		<line class="st3" x1="20.2" y1="42" x2="46.5" y2="61.3"/>
		<line class="st3" x1="11.4" y1="22" x2="20.2" y2="42"/>
		<line class="st3" x1="2.7" y1="42" x2="11.4" y2="61.3"/>
		<line class="st3" x1="72.8" y1="42" x2="46.5" y2="61.3"/>
		<line class="st3" x1="37.7" y1="42" x2="46.5" y2="61.3"/>
		<line class="st3" x1="37.7" y1="81.3" x2="64" y2="61.3"/>
		<line class="st3" x1="37.7" y1="81.3" x2="46.5" y2="61.3"/>
		<line class="st3" x1="37.7" y1="81.3" x2="29.1" y2="61.3"/>
		<line class="st3" x1="20.2" y1="42" x2="46.5" y2="22"/>
		<line class="st3" x1="11.4" y1="61.3" x2="20.2" y2="42"/>
		<line class="st3" x1="11.4" y1="61.3" x2="37.7" y2="42"/>
		<path class="st4" d="M74.2,42c0,0.8-0.6,1.5-1.4,1.5c-0.7,0-1.4-0.5-1.5-1.2l0,0c0-0.1,0-0.2,0-0.3c0-0.8,0.6-1.5,1.5-1.5
			C73.6,40.5,74.2,41.2,74.2,42z"/>
		<path class="st5" d="M74.1,42.1c-0.1,0.7-0.7,1.2-1.4,1.1s-1.2-0.7-1.1-1.4c0.1-0.7,0.7-1.2,1.4-1.1c0.6,0.1,1.1,0.5,1.1,1.1
			C74.1,42,74.1,42,74.1,42.1z"/>
		<path class="st4" d="M56.7,42c0.1,0.8-0.5,1.5-1.3,1.6s-1.5-0.5-1.6-1.3c0-0.1,0-0.2,0-0.3c0-0.8,0.7-1.4,1.5-1.3h0.1
			C56.1,40.7,56.7,41.3,56.7,42z"/>
		<path class="st5" d="M56.5,42c0,0.7-0.6,1.3-1.3,1.3S54,42.7,54,42c0-0.7,0.6-1.3,1.3-1.3c0,0,0,0,0,0l0,0
			C56,40.7,56.5,41.3,56.5,42C56.5,42,56.5,42,56.5,42z"/>
		<path class="st4" d="M39.2,42c0,0.8-0.6,1.4-1.4,1.4s-1.4-0.6-1.4-1.4c0-0.7,0.6-1.4,1.3-1.4C38.5,40.6,39.2,41.2,39.2,42z"/>
		<path class="st5" d="M39,42c0,0.7-0.6,1.3-1.3,1.3s-1.3-0.6-1.3-1.3s0.6-1.3,1.3-1.3l0,0C38.4,40.7,39,41.3,39,42
			C39,42,39,42,39,42z"/>
		<path class="st4" d="M18.8,42.1c0-0.8,0.6-1.5,1.4-1.5c0.8,0,1.5,0.6,1.5,1.4c0,0.8-0.6,1.5-1.4,1.5S18.8,43,18.8,42.1L18.8,42.1
			L18.8,42.1z"/>
		<path class="st5" d="M19.1,42.2c-0.1-0.7,0.4-1.3,1.1-1.4c0,0,0,0,0,0l0,0c0.7,0,1.2,0.5,1.3,1.1c0,0.7-0.5,1.2-1.1,1.3
			c-0.1,0-0.1,0-0.2,0C19.6,43.2,19.1,42.8,19.1,42.2L19.1,42.2z"/>
		<path class="st4" d="M1.2,42.1c0-0.8,0.6-1.5,1.4-1.5c0.8,0,1.5,0.6,1.5,1.4c0,0.8-0.6,1.4-1.4,1.5C1.9,43.6,1.3,42.9,1.2,42.1
			C1.2,42.1,1.2,42.1,1.2,42.1L1.2,42.1z"/>
		<path class="st5" d="M1.4,42.3c-0.1-0.7,0.4-1.3,1.1-1.4h0.1c0.7,0,1.2,0.6,1.2,1.2c0,0.7-0.6,1.2-1.3,1.1c0,0,0,0,0,0
			C2,43.2,1.6,42.8,1.4,42.3z"/>
		<path class="st4" d="M65.5,22c0,0.8-0.6,1.4-1.4,1.4c-0.8,0-1.4-0.6-1.4-1.4c0-0.8,0.6-1.4,1.4-1.4C64.8,20.6,65.5,21.2,65.5,22
			C65.5,22,65.5,22,65.5,22z"/>
		<path class="st5" d="M65.3,22c0,0.7-0.5,1.2-1.2,1.2c-0.7,0-1.2-0.5-1.2-1.2c0-0.7,0.5-1.2,1.2-1.2l0,0
			C64.7,20.8,65.3,21.3,65.3,22C65.3,22,65.3,22,65.3,22z"/>
		<path class="st4" d="M47.9,22c0,0.8-0.6,1.4-1.4,1.4c-0.8,0-1.4-0.6-1.4-1.4c0-0.8,0.6-1.4,1.4-1.4S47.9,21.2,47.9,22
			C47.9,22,47.9,22,47.9,22z"/>
		<path class="st5" d="M47.7,22c0,0.7-0.6,1.3-1.3,1.3c-0.7,0-1.3-0.6-1.3-1.3s0.6-1.3,1.3-1.3l0,0C47.2,20.7,47.7,21.3,47.7,22z"/>
		<path class="st4" d="M30.4,22c-0.1,0.8-0.8,1.3-1.5,1.3c-0.8-0.1-1.3-0.8-1.3-1.5s0.8-1.3,1.5-1.3c0.7,0.1,1.2,0.6,1.3,1.3
			C30.4,21.8,30.4,21.9,30.4,22z"/>
		<path class="st5" d="M30.2,22c0,0.7-0.5,1.3-1.2,1.3s-1.3-0.5-1.3-1.2s0.5-1.3,1.2-1.3c0,0,0.1,0,0.1,0l0,0
			C29.7,20.8,30.2,21.3,30.2,22z"/>
		<path class="st4" d="M10,22.1c0-0.7,0.7-1.3,1.4-1.3s1.3,0.7,1.3,1.4s-0.7,1.3-1.4,1.3c-0.7,0-1.2-0.6-1.3-1.3V22.1z"/>
		<path class="st5" d="M10.2,22.1c0-0.6,0.6-1.1,1.2-1.1c0.6,0,1.1,0.6,1.1,1.2s-0.6,1.1-1.2,1.1c-0.6,0-1.1-0.5-1.1-1.1V22.1z"/>
		<path class="st4" d="M65.5,61.3c0,0.8-0.6,1.4-1.4,1.4c-0.8,0-1.4-0.6-1.4-1.4c0-0.8,0.6-1.4,1.4-1.4
			C64.8,59.9,65.5,60.5,65.5,61.3L65.5,61.3z"/>
		<path class="st4" d="M12.8,61.5c0,0.8-0.7,1.4-1.5,1.3s-1.4-0.7-1.3-1.5c0-0.7,0.7-1.3,1.4-1.3l0,0C12.1,60.1,12.7,60.7,12.8,61.5
			L12.8,61.5z"/>
		<path class="st5" d="M65.3,61.3c0,0.7-0.5,1.2-1.2,1.2c-0.7,0-1.2-0.5-1.2-1.2c0-0.7,0.5-1.2,1.2-1.2l0,0
			C64.7,60.1,65.3,60.6,65.3,61.3C65.3,61.3,65.3,61.3,65.3,61.3z"/>
		<path class="st4" d="M47.9,61.3c0,0.8-0.6,1.4-1.4,1.4s-1.4-0.6-1.4-1.4c0-0.8,0.6-1.4,1.4-1.4S47.9,60.5,47.9,61.3L47.9,61.3z"/>
		<path class="st5" d="M47.7,61.3c0,0.7-0.6,1.3-1.3,1.2c-0.7,0-1.3-0.6-1.2-1.3c0-0.7,0.6-1.2,1.3-1.3C47.2,60,47.7,60.6,47.7,61.3
			C47.7,61.3,47.7,61.3,47.7,61.3L47.7,61.3z"/>
		<path class="st4" d="M30.4,61.3c0,0.8-0.6,1.4-1.4,1.4s-1.4-0.6-1.4-1.4c0-0.8,0.6-1.4,1.4-1.4l0,0C29.8,59.9,30.4,60.5,30.4,61.3
			L30.4,61.3z"/>
		<path class="st5" d="M30.2,61.3c0,0.7-0.6,1.3-1.3,1.2c-0.7,0-1.3-0.6-1.2-1.3c0-0.7,0.6-1.3,1.3-1.2c0,0,0,0,0,0
			C29.7,60,30.3,60.6,30.2,61.3C30.3,61.3,30.3,61.3,30.2,61.3L30.2,61.3z"/>
		<path class="st5" d="M10.2,61.4c0.1-0.7,0.7-1.2,1.3-1.1c0.6,0.1,1.1,0.5,1.1,1.1c0,0.7-0.6,1.2-1.3,1.2c-0.6,0-1.1-0.5-1.2-1.1
			C10.2,61.5,10.2,61.4,10.2,61.4z"/>
		<path class="st4" d="M39.2,2.8c0,0.8-0.7,1.3-1.4,1.3c-0.8,0-1.3-0.7-1.3-1.4s0.7-1.3,1.4-1.3C38.6,1.4,39.2,2,39.2,2.8L39.2,2.8z
			"/>
		<path class="st5" d="M39,2.8c0,0.7-0.6,1.3-1.3,1.3c-0.7,0-1.3-0.6-1.3-1.3c0-0.7,0.6-1.3,1.3-1.3l0,0C38.4,1.5,39,2.1,39,2.8
			C39,2.8,39,2.8,39,2.8L39,2.8z"/>
		<path class="st4" d="M39.2,81.3c0,0.8-0.7,1.4-1.5,1.3c-0.8,0-1.4-0.7-1.3-1.5c0-0.7,0.7-1.3,1.4-1.3l0,0
			C38.6,79.8,39.2,80.4,39.2,81.3L39.2,81.3z"/>
		<path class="st5" d="M39,81.3c0,0.7-0.5,1.2-1.2,1.2s-1.2-0.5-1.2-1.2s0.5-1.2,1.2-1.2c0,0,0,0,0,0l0,0C38.5,80.1,39,80.6,39,81.3
			z"/>
		<path class="st6" d="M119.9,49.7L119.9,49.7l0.1-17.5h2.1v20.5h-2.6l-12-17.7h-0.1v17.7h-2.1V32.2h2.6L119.9,49.7z"/>
		<path class="st6" d="M139.3,52.8c-0.1-0.7-0.1-1.7-0.1-2.3h-0.1c-0.8,1.6-2.7,2.7-4.6,2.7c-3.5,0-5.2-2.2-5.2-5.6v-8.3h2v7.5
			c0,2.8,0.8,4.8,3.7,4.8c2.1,0,4.1-1.7,4.1-5.3v-7h2v10.6c0,0.7,0,2.1,0.1,3H139.3z"/>
		<path class="st6" d="M154.8,38.8c1.5,0,3.3,0.6,4.2,2.9c0.9-1.9,2.6-2.9,4.8-2.9c3.5,0,5.2,2.2,5.2,5.6v8.3h-2v-7.5
			c0-2.8-1-4.8-3.5-4.8c-2.8,0-3.9,2.5-3.9,5v7.2h-2v-7.9c0-2.6-0.6-4.4-3.3-4.4c-1.9,0-3.9,1.7-3.9,5.3v7h-2V42.2
			c0-0.7,0-2.1-0.1-3h1.9c0.1,0.7,0.1,1.7,0.1,2.3h0.1C151.1,39.9,152.8,38.8,154.8,38.8z"/>
		<path class="st6" d="M188.3,46.5h-11.3c0.1,2.7,2.2,4.9,5,4.9c2,0,3.6-1.1,4.4-2.3l1.5,1.2c-1.6,2-3.6,2.9-5.8,2.9c-4,0-7-3-7-7.1
			c0-4.1,3-7.1,6.8-7.1c4.3,0,6.5,3,6.5,6.7C188.3,45.8,188.3,46.1,188.3,46.5z M186.3,44.9c-0.1-2.6-1.7-4.4-4.5-4.4
			c-2.6,0-4.6,2.1-4.8,4.4H186.3z"/>
		<path class="st6" d="M194,39.2h1.9c0.1,0.7,0.1,1.7,0.1,2.3h0.1c0.8-1.6,2.4-2.7,4.4-2.7c0.5,0,0.9,0,1.3,0.1l-0.3,1.9
			c-0.2-0.1-0.9-0.2-1.4-0.2c-2.1,0-4,1.5-4,5.1v7h-2V42.2C194.1,41.4,194.1,40.1,194,39.2z"/>
		<path class="st6" d="M214.7,44c0-2.3-1.3-3.5-3.6-3.5c-1.6,0-3.1,0.6-4,1.6l-1.1-1.3c1.1-1.1,3-1.9,5.3-1.9c2.9,0,5.3,1.6,5.3,4.9
			v5.9c0,1,0.1,2.3,0.2,3H215c-0.1-0.7-0.2-1.5-0.2-2.2h-0.1c-1.2,1.8-2.8,2.6-4.9,2.6c-2.1,0-4.7-1.1-4.7-4.1
			c0-4.2,4.6-4.6,9.6-4.6V44z M214.1,46c-3.2,0-7,0.3-7,2.9c0,1.9,1.7,2.6,3.2,2.6c2.8,0,4.4-2.1,4.4-4.5v-1H214.1z"/>
		<path class="st6" d="M229.4,40.8h-3.8v7.9c0,2,0.8,2.5,2,2.5c0.6,0,1.2-0.2,1.7-0.4l0.1,1.7c-0.7,0.3-1.4,0.4-2.3,0.4
			c-1.5,0-3.5-0.6-3.5-3.6v-8.5h-2.8v-1.7h2.8v-3.8h2v3.8h3.8V40.8z"/>
		<path class="st6" d="M235.5,35.3c-0.7,0-1.4-0.6-1.4-1.4c0-0.8,0.7-1.4,1.4-1.4s1.4,0.6,1.4,1.4C236.9,34.8,236.2,35.3,235.5,35.3
			z M236.5,52.8h-2V39.2h2V52.8z"/>
		<path class="st6" d="M246.8,32.6c2.5,0,4.5,2,4.5,4.5c0,2.5-2,4.4-4.5,4.4c-2.5,0-4.5-2-4.5-4.4C242.4,34.6,244.4,32.6,246.8,32.6
			z M246.8,40.9c2.1,0,3.8-1.7,3.8-3.8c0-2.1-1.7-3.8-3.8-3.8c-2.1,0-3.8,1.7-3.8,3.8C243.1,39.2,244.8,40.9,246.8,40.9z
			 M245.1,34.5h1.8c0.9,0,1.9,0.4,1.9,1.5c0,0.7-0.5,1.2-1.2,1.4l1.4,2.2h-1.1l-1.2-2.1H246v2.1h-0.9V34.5z M246.7,36.7
			c0.5,0,1.1-0.1,1.1-0.7c0-0.6-0.5-0.7-1-0.7H246v1.4H246.7z"/>
		<path class="st6" d="M266,32.2h5.8c4.2,0,6.9,1.8,6.9,5.5s-2.8,5.5-7,5.5h-3.7v9.5H266V32.2z M268.1,41.4h3.5c3.2,0,5-1.3,5-3.7
			c0-2.5-1.9-3.7-5-3.7h-3.5V41.4z"/>
		<path class="st6" d="M291.4,44c0-2.3-1.3-3.5-3.6-3.5c-1.6,0-3.1,0.6-4,1.6l-1.1-1.3c1.1-1.1,3-1.9,5.3-1.9c2.9,0,5.3,1.6,5.3,4.9
			v5.9c0,1,0.1,2.3,0.2,3h-1.8c-0.1-0.7-0.2-1.5-0.2-2.2h-0.1c-1.2,1.8-2.8,2.6-4.9,2.6c-2.1,0-4.7-1.1-4.7-4.1
			c0-4.2,4.6-4.6,9.6-4.6V44z M290.8,46c-3.2,0-7,0.3-7,2.9c0,1.9,1.7,2.6,3.2,2.6c2.8,0,4.4-2.1,4.4-4.5v-1H290.8z"/>
		<path class="st6" d="M300.1,39.2h1.9c0.1,0.7,0.1,1.7,0.1,2.3h0.1c0.8-1.6,2.4-2.7,4.4-2.7c0.5,0,0.9,0,1.3,0.1l-0.3,1.9
			c-0.2-0.1-0.9-0.2-1.4-0.2c-2.1,0-4,1.5-4,5.1v7h-2V42.2C300.3,41.4,300.2,40.1,300.1,39.2z"/>
		<path class="st6" d="M318.4,40.8h-3.8v7.9c0,2,0.8,2.5,2,2.5c0.6,0,1.2-0.2,1.7-0.4l0.1,1.7c-0.7,0.3-1.4,0.4-2.3,0.4
			c-1.5,0-3.5-0.6-3.5-3.6v-8.5h-2.8v-1.7h2.8v-3.8h2v3.8h3.8V40.8z"/>
		<path class="st6" d="M325.3,39.2c0.1,0.7,0.1,1.7,0.1,2.3h0.1c0.8-1.6,2.7-2.7,4.6-2.7c3.5,0,5.2,2.2,5.2,5.6v8.3h-2v-7.5
			c0-2.8-0.8-4.8-3.7-4.8c-2.1,0-4.1,1.7-4.1,5.3v7h-2V42.2c0-0.7,0-2.1-0.1-3H325.3z"/>
		<path class="st6" d="M354.7,46.5h-11.3c0.1,2.7,2.2,4.9,5,4.9c2,0,3.6-1.1,4.4-2.3l1.5,1.2c-1.6,2-3.6,2.9-5.8,2.9c-4,0-7-3-7-7.1
			c0-4.1,3-7.1,6.8-7.1c4.3,0,6.5,3,6.5,6.7C354.7,45.8,354.7,46.1,354.7,46.5z M352.7,44.9c-0.1-2.6-1.7-4.4-4.5-4.4
			c-2.6,0-4.6,2.1-4.8,4.4H352.7z"/>
		<path class="st6" d="M360.9,39.2h1.9c0.1,0.7,0.1,1.7,0.1,2.3h0.1c0.8-1.6,2.4-2.7,4.4-2.7c0.5,0,0.9,0,1.3,0.1l-0.3,1.9
			c-0.2-0.1-0.9-0.2-1.4-0.2c-2.1,0-4,1.5-4,5.1v7h-2V42.2C361,41.4,361,40.1,360.9,39.2z"/>
		<path class="st6" d="M380.7,42.4c-0.6-1.1-1.8-1.9-3.3-1.9c-1.4,0-2.9,0.6-2.9,2.1c0,1.3,1,1.9,3.2,2.3c3.2,0.7,4.7,1.9,4.7,4
			c0,3.1-2.6,4.2-5.1,4.2c-2.1,0-4.1-0.8-5.4-2.6l1.6-1.2c0.7,1.2,2.2,2.1,3.8,2.1c1.7,0,3.2-0.6,3.2-2.4c0-1.4-1.4-2-4-2.6
			c-1.6-0.4-3.9-1.1-3.9-3.7c0-2.8,2.4-3.9,4.8-3.9c1.9,0,3.9,0.9,4.8,2.4L380.7,42.4z"/>
		<path class="st6" d="M399.9,50.9h9.6v1.9h-11.7V32.2h2.1V50.9z"/>
		<path class="st6" d="M415.9,50.9h9.6v1.9h-11.7V32.2h2.1V50.9z"/>
		<path class="st6" d="M446.9,49.4c-1.4,2.1-4,3.8-7.7,3.8c-6.2,0-10.7-4.6-10.7-10.8s4.6-10.8,10.7-10.8c3,0,5.9,1.2,7.3,3.2
			l-1.7,1.3c-0.9-1.3-2.9-2.7-5.5-2.7c-5.3,0-8.5,4.2-8.5,9s3.2,9,8.5,9c2.3,0,4.6-0.9,6-3L446.9,49.4z"/>
		<circle class="st7" cx="235.5" cy="33.9" r="1.7"/>
	</g>
</g>
</svg>
